SplineFontDB: 1.0
FontName: NimbusMonL-BoldObli
FullName: Nimbus Mono L Bold Oblique
FamilyName: Nimbus Mono L
Weight: Bold
Copyright: Copyright (URW)++,Copyright 1999 by (URW)++ Design & Development; Cyrillic glyphs added by Valek Filippov (C) 2001
Version: 1.06
ItalicAngle: -12
UnderlinePosition: -100
UnderlineWidth: 50
Ascent: 620
Descent: 155
NeedsXUIDChange: 1
UniqueID: 4254402
FSType: 0
OS2WinAscent: 0
OS2WinAOffset: 1
OS2WinDescent: 0
OS2WinDOffset: 1
HheadAscent: 0
HheadAOffset: 1
HheadDescent: 0
HheadDOffset: 1
ScriptLang: 2
 1 latn 1 dflt 
 1 DFLT 1 dflt 
Encoding: adobestandard
UnicodeInterp: none
DisplaySize: -36
AntiAlias: 1
FitToEm: 1
WinInfo: 330 30 14
BeginPrivate: 7
BlueValues 31 [-20 0 437 457 583 603 623 643]
BlueScale 8 0.039625
StdHW 5 [101]
StdVW 5 [103]
StemSnapH 8 [93 101]
StemSnapV 2 []
ForceBold 5 false
EndPrivate
BeginChars: 767 660
StartChar: exclam
Encoding: 33 33 2
Width: 579
Flags: W
HStem: -15 128<294 306>
Fore
474 508 m 1
 386 221 l 1
 376 191 356 172 329 172 c 0
 303 172 290 188 290 211 c 2
 290 221 l 1
 322 508 l 1
 329 550 332 567 349 584 c 0
 368 605 395 618 420 618 c 0
 460 618 485 594 485 558 c 0
 485 546 484 536 474 508 c 1
295 -15 m 2
 279 -15 l 2
 248 -15 226 7 226 37 c 0
 226 76 265 113 306 113 c 2
 322 113 l 2
 353 113 375 92 375 64 c 0
 375 23 337 -15 295 -15 c 2
EndSplineSet
EndChar
StartChar: quotedbl
Encoding: 34 34 3
Width: 579
Flags: W
HStem: 563 20G<257 380 450 574>
Fore
257 583 m 1
 380 583 l 1
 296 337 l 1
 290 313 277 302 259 302 c 0
 244 302 236 312 236 325 c 2
 236 336 l 1
 257 583 l 1
450 583 m 1
 574 583 l 1
 491 337 l 1
 482 312 472 302 453 302 c 0
 439 302 429 312 429 325 c 0
 429 326 429 332 430 336 c 1
 450 583 l 1
EndSplineSet
EndChar
StartChar: numbersign
Encoding: 35 35 4
Width: 579
Flags: W
HStem: 136 95<151 178 302 345 466 489> 332 98<213 236 358 401 524 549>
DStem: 178 136 275 136 133 -22 228 -28 234 332 332 332 205 231 302 231 307 593 403 587 260 430 358 430 345 136 441 136 299 -22 395 -28 401 332 497 332 371 231 468 231 474 593 569 587 428 430 524 430
Fore
524 430 m 1
 549 430 l 2
 567 430 574 429 582 427 c 0
 595 422 604 408 604 391 c 0
 604 376 595 360 581 348 c 0
 567 336 558 332 528 332 c 2
 497 332 l 1
 468 231 l 1
 487 231 l 2
 505 231 512 229 519 226 c 1
 533 224 542 208 542 193 c 0
 542 177 534 160 519 149 c 0
 505 138 495 136 466 136 c 2
 441 136 l 1
 395 -28 l 2
 391 -43 380 -65 374 -71 c 0
 361 -82 346 -89 332 -89 c 0
 310 -89 294 -73 294 -51 c 0
 294 -45 294 -45 299 -22 c 1
 345 136 l 1
 275 136 l 1
 228 -28 l 1
 220 -68 198 -89 167 -89 c 0
 146 -89 128 -73 128 -51 c 0
 128 -45 129 -38 133 -22 c 1
 178 136 l 1
 153 136 l 2
 113 136 98 146 98 172 c 0
 98 188 107 205 120 218 c 1
 136 228 143 231 172 231 c 2
 205 231 l 1
 234 332 l 1
 215 332 l 2
 195 332 189 334 181 337 c 0
 169 342 160 356 160 371 c 0
 160 388 169 404 182 417 c 1
 197 428 205 430 236 430 c 2
 260 430 l 1
 307 593 l 1
 318 634 339 654 370 654 c 0
 391 654 409 637 409 618 c 0
 409 611 408 604 403 587 c 2
 358 430 l 1
 428 430 l 1
 474 593 l 1
 482 620 484 626 494 636 c 0
 505 646 521 654 536 654 c 0
 558 654 574 637 574 615 c 0
 574 611 574 611 569 587 c 1
 524 430 l 1
401 332 m 1
 332 332 l 1
 302 231 l 1
 371 231 l 1
 401 332 l 1
EndSplineSet
EndChar
StartChar: dollar
Encoding: 36 36 5
Width: 579
Flags: W
HStem: 33 189<136 177> 404 154<515 520> 480 183<402 434>
VStem: 191 102<391 411> 443 103<208 228>
Fore
468 598 m 1xb8
 462 574 l 1
 473 572 477 572 484 570 c 2
 494 567 l 2
 501 565 508 561 515 558 c 0
 516 558 519 557 524 556 c 1
 536 561 542 563 552 563 c 0
 574 563 591 549 591 527 c 0
 591 519 590 511 587 499 c 1
 581 468 l 1
 574 441 572 434 562 425 c 1
 549 411 534 404 518 404 c 0xd8
 491 404 477 418 477 446 c 0
 477 463 441 480 402 480 c 0
 339 480 293 450 293 411 c 0
 293 389 313 374 356 365 c 2
 415 352 l 2
 508 332 546 296 546 228 c 0
 546 129 466 48 346 26 c 1
 329 -54 l 1
 322 -81 319 -89 310 -99 c 0
 298 -112 282 -119 267 -119 c 0
 244 -119 228 -104 228 -84 c 0
 228 -77 229 -67 232 -54 c 2
 250 26 l 1
 211 35 205 37 178 50 c 1
 160 37 150 33 136 33 c 0
 113 33 97 48 97 70 c 0
 97 76 98 82 101 98 c 1
 113 156 l 2
 119 185 123 192 133 202 c 0
 146 214 161 222 177 222 c 0
 189 222 202 216 208 208 c 0
 214 202 214 202 215 174 c 0
 218 144 263 120 318 120 c 0
 387 120 443 159 443 208 c 0
 443 232 423 247 378 257 c 2
 309 271 l 2
 229 288 191 329 191 391 c 0
 191 477 267 557 365 574 c 1
 371 598 l 2
 378 624 381 632 391 643 c 0
 402 655 418 663 434 663 c 0
 456 663 472 646 472 626 c 0
 472 620 472 617 468 598 c 1xb8
EndSplineSet
EndChar
StartChar: percent
Encoding: 37 37 6
Width: 579
Flags: W
HStem: -15 63<353 369> 193 64<395 412> 329 62<290 306> 535 63<333 349>
VStem: 182 64<435 450> 244 66<93 107> 394 64<475 490> 457 64<134 148>
DStem: 538 378 544 321 162 264 169 208
Fore
349 598 m 0xfa
 414 598 458 554 458 490 c 0
 458 406 378 329 290 329 c 0
 228 329 182 373 182 435 c 0
 182 518 264 598 349 598 c 0xfa
335 535 m 0
 290 535 246 492 246 450 c 0
 246 415 270 391 304 391 c 0
 350 391 394 433 394 477 c 0
 394 511 370 535 335 535 c 0
544 321 m 2
 169 208 l 1
 161 203 153 202 148 202 c 0
 136 202 127 213 127 228 c 0
 127 244 138 257 162 264 c 2
 538 378 l 2
 550 381 552 381 558 381 c 0
 572 381 581 371 581 356 c 0
 581 339 570 329 544 321 c 2
412 257 m 0
 477 257 521 211 521 148 c 0
 521 64 440 -15 353 -15 c 0
 291 -15 244 31 244 93 c 0xf5
 244 177 326 257 412 257 c 0
398 193 m 0
 353 193 310 150 310 105 c 0
 310 73 334 48 367 48 c 0
 414 48 457 90 457 136 c 0
 457 170 433 193 398 193 c 0
EndSplineSet
EndChar
StartChar: ampersand
Encoding: 38 38 7
Width: 579
Flags: W
HStem: -15 99<246 269> 0 97<428 452> 436 97<373 394>
VStem: 99 99<102 125> 211 101<363 380>
DStem: 267 213 329 332 322 97 394 192
Fore
394 192 m 1xb8
 434 271 l 1
 484 271 l 2
 503 271 511 270 518 267 c 0
 532 263 539 248 539 234 c 0
 539 203 515 177 487 174 c 1
 468 136 457 117 441 97 c 1
 450 97 l 2
 468 97 474 97 482 93 c 0
 495 89 503 74 503 57 c 0
 503 43 495 24 482 15 c 1
 468 2 456 0 428 0 c 2
 369 0 l 1x78
 361 15 l 1
 329 -6 298 -15 247 -15 c 0
 155 -15 99 31 99 102 c 0
 99 180 147 252 228 294 c 1
 216 326 211 345 211 363 c 0
 211 446 306 533 394 533 c 0
 417 533 435 528 458 516 c 1
 470 521 480 523 487 523 c 0
 507 523 524 505 524 485 c 0
 524 458 512 443 473 425 c 2
 427 403 l 1
 406 428 392 436 373 436 c 0
 342 436 312 408 312 380 c 0
 312 371 318 350 329 332 c 1
 394 192 l 1xb8
322 97 m 1
 267 213 l 1
 224 195 198 162 198 125 c 0
 198 97 221 84 267 84 c 0xb8
 291 84 302 86 322 97 c 1
EndSplineSet
EndChar
StartChar: quoteright
Encoding: 39 8217 8
Width: 579
Flags: W
HStem: 584 20G<339 468>
Fore
339 604 m 1
 468 604 l 1
 276 345 l 2
 264 329 252 321 240 321 c 0
 226 321 215 330 215 342 c 0
 215 349 216 353 224 365 c 1
 339 604 l 1
EndSplineSet
KernsSLIF: 121 -149 1 0 119 -135 1 0 118 -141 1 0 116 -150 1 0 115 -192 1 0 114 -193 1 0 46 -313 1 0 111 -184 1 0 100 -181 1 0 44 -291 1 0 262 -200 1 0 256 -200 1 0 257 -200 1 0 225 -197 1 0 65 -200 1 0
EndChar
StartChar: parenleft
Encoding: 40 40 9
Width: 579
Flags: W
VStem: 294 109<107 157>
Fore
554 612 m 0
 577 612 594 598 594 574 c 0
 594 560 589 549 574 532 c 0
 456 388 403 267 403 136 c 0
 403 70 415 8 446 -68 c 0
 451 -81 453 -84 453 -89 c 0
 453 -120 423 -148 392 -148 c 0
 378 -148 365 -143 358 -129 c 1
 322 -70 294 43 294 127 c 0
 294 260 345 386 456 530 c 0
 508 596 527 612 554 612 c 0
EndSplineSet
EndChar
StartChar: parenright
Encoding: 41 41 10
Width: 579
Flags: W
VStem: 282 109<315 349>
Fore
293 612 m 0
 308 612 319 606 326 594 c 0
 363 534 391 420 391 337 c 0
 391 203 342 81 228 -66 c 0
 178 -131 158 -148 131 -148 c 0
 107 -148 90 -133 90 -110 c 0
 90 -97 97 -86 110 -68 c 1
 232 78 282 195 282 329 c 0
 282 395 268 456 239 532 c 1
 234 542 232 549 232 554 c 0
 232 584 260 612 293 612 c 0
EndSplineSet
EndChar
StartChar: asterisk
Encoding: 42 42 11
Width: 579
Flags: W
HStem: 584 20G<402.5 429.5>
DStem: 290 361 356 304 224 291 290 234
Fore
290 361 m 1
 211 388 l 2
 182 397 172 407 172 427 c 0
 172 457 202 487 231 487 c 0
 239 487 241 485 260 480 c 1
 339 453 l 1
 356 539 l 1
 365 581 387 604 418 604 c 0
 441 604 457 587 457 566 c 0
 457 560 456 551 453 539 c 1
 435 453 l 1
 524 480 l 1
 546 485 549 487 558 487 c 0
 578 487 595 469 595 448 c 0
 595 418 577 400 535 388 c 2
 446 361 l 1
 482 291 l 1
 490 274 492 267 492 259 c 0
 492 231 462 202 433 202 c 0
 412 202 404 208 391 234 c 2
 356 304 l 1
 290 234 l 1
 264 208 255 202 236 202 c 0
 211 202 195 218 195 240 c 0
 195 257 202 267 224 291 c 2
 290 361 l 1
EndSplineSet
EndChar
StartChar: plus
Encoding: 43 43 12
Width: 579
Flags: W
HStem: 0 21G<280.5 298.5> 224 95<151 290 408 546>
DStem: 290 224 387 224 257 64 353 64 345 479 441 479 312 319 408 319
Fore
387 224 m 1
 353 64 l 1
 348 38 345 31 335 20 c 0
 324 8 306 0 291 0 c 0
 270 0 253 16 253 35 c 0
 253 43 255 55 257 64 c 2
 290 224 l 1
 153 224 l 2
 113 224 98 234 98 260 c 0
 98 277 107 294 120 306 c 1
 136 318 143 319 172 319 c 2
 312 319 l 1
 345 479 l 1
 353 521 374 542 407 542 c 0
 429 542 446 527 446 505 c 0
 446 499 446 497 441 479 c 1
 408 319 l 1
 544 319 l 2
 566 319 570 319 578 316 c 0
 591 312 600 298 600 281 c 0
 600 265 591 249 577 237 c 0
 565 226 552 224 524 224 c 2
 387 224 l 1
EndSplineSet
EndChar
StartChar: comma
Encoding: 44 44 13
Width: 579
Flags: W
Fore
239 129 m 1
 367 129 l 1
 175 -129 l 1
 164 -146 152 -153 140 -153 c 0
 126 -153 115 -143 115 -132 c 0
 115 -125 115 -121 122 -107 c 2
 239 129 l 1
EndSplineSet
KernsSLIF: 39 -211 1 0 186 -178 1 0 49 -166 1 0
EndChar
StartChar: hyphen
Encoding: 45 45 14
Width: 579
Flags: W
HStem: 222 97<151 546>
Fore
524 222 m 2
 153 222 l 2
 113 222 98 232 98 260 c 0
 98 276 107 293 120 304 c 0
 136 316 143 319 172 319 c 2
 544 319 l 2
 563 319 570 318 578 315 c 0
 590 312 600 295 600 281 c 0
 600 264 591 248 577 236 c 0
 565 225 552 222 524 222 c 2
EndSplineSet
KernsSLIF: 89 -104 1 0 87 -1 1 0 86 -51 1 0 84 -116 1 0 262 -25 1 0 256 -25 1 0 257 -25 1 0 225 -20 1 0 65 -25 1 0
EndChar
StartChar: period
Encoding: 46 46 15
Width: 579
Flags: W
HStem: -15 21G<279 295>
Fore
295 -15 m 2
 279 -15 l 2
 248 -15 226 7 226 37 c 0
 226 76 265 113 306 113 c 2
 322 113 l 2
 353 113 375 92 375 64 c 0
 375 23 336 -15 295 -15 c 2
EndSplineSet
KernsSLIF: 39 -206 1 0 186 -171 1 0 49 -148 1 0
EndChar
StartChar: slash
Encoding: 47 47 16
Width: 579
Flags: W
DStem: 538 629 616 591 87 -26 166 -67
Fore
616 591 m 1
 166 -67 l 2
 143 -100 129 -109 107 -109 c 0
 84 -109 67 -93 67 -71 c 0
 67 -59 71 -47 87 -26 c 1
 538 629 l 1
 560 663 574 673 598 673 c 0
 620 673 636 657 636 636 c 0
 636 623 632 613 616 591 c 1
EndSplineSet
EndChar
StartChar: zero
Encoding: 48 48 17
Width: 579
Flags: W
HStem: -15 97<287 308> 521 97<399 422>
VStem: 126 98<170 194> 485 98<400 434>
Fore
574 348 m 1
 555 257 l 1
 536 169 492 90 433 39 c 0
 392 4 343 -15 287 -15 c 0
 185 -15 126 53 126 172 c 0
 126 202 129 228 136 257 c 1
 154 348 l 1
 172 435 218 513 276 565 c 0
 316 600 365 618 422 618 c 0
 525 618 583 550 583 430 c 0
 583 403 581 375 574 348 c 1
252 356 m 1
 231 249 l 1
 226 229 224 209 224 189 c 0
 224 122 255 82 308 82 c 0
 376 82 435 148 456 249 c 1
 479 356 l 1
 484 374 485 394 485 415 c 0
 485 482 453 521 401 521 c 0
 332 521 274 456 252 356 c 1
EndSplineSet
KernsSLIF: 55 -99 1 0 49 -100 1 0 52 -82 1 0
EndChar
StartChar: one
Encoding: 49 49 18
Width: 579
Flags: W
HStem: 0 97<144 264 360 457>
DStem: 347 492 470 618 264 97 360 97
Fore
470 618 m 1
 360 97 l 1
 457 97 l 2
 477 97 484 97 491 93 c 1
 503 89 512 74 512 59 c 0
 512 43 503 26 490 15 c 0
 477 4 464 0 437 0 c 2
 146 0 l 2
 105 0 90 12 90 39 c 0
 90 54 99 71 113 82 c 1
 127 95 136 97 166 97 c 2
 264 97 l 1
 347 492 l 1
 259 470 l 2
 239 466 236 466 226 466 c 0
 205 466 191 480 191 503 c 0
 191 536 208 554 254 565 c 2
 470 618 l 1
EndSplineSet
KernsSLIF: 48 -118 1 0 50 -65 1 0 51 -77 1 0 54 -134 1 0 55 -181 1 0 46 -148 1 0 49 -85 1 0 57 -100 1 0 52 -118 1 0 53 -78 1 0 56 -104 1 0 44 -130 1 0
EndChar
StartChar: two
Encoding: 50 50 19
Width: 579
Flags: W
HStem: 0 97<221 492> 0 149<466 492> 521 97<389 412>
VStem: 484 99<449 469>
Fore
221 97 m 1xb0
 417 97 l 1xb0
 427 132 446 149 477 149 c 0x70
 499 149 515 133 515 113 c 0
 515 105 513 102 511 86 c 1
 492 0 l 1xb0
 51 0 l 1x70
 74 102 l 1
 250 226 291 255 339 291 c 0
 468 391 484 409 484 450 c 0
 484 491 445 521 391 521 c 0
 352 521 314 507 288 482 c 0
 275 470 274 468 257 437 c 0
 248 420 228 409 208 409 c 0
 186 409 169 425 169 446 c 0
 169 477 205 529 250 565 c 1
 295 598 356 618 412 618 c 0
 513 618 583 557 583 469 c 0
 583 423 566 379 534 341 c 0
 507 310 445 260 341 183 c 1
 267 131 l 1
 221 97 l 1xb0
EndSplineSet
KernsSLIF: 55 -98 1 0 49 -91 1 0 52 -94 1 0
EndChar
StartChar: three
Encoding: 51 51 20
Width: 579
Flags: W
HStem: -15 97<239 287> 326 45<386 479> 521 97<397 425>
VStem: 453 101<192 205> 491 99<462 480>
Fore
346 371 m 2xf0
 386 371 l 2
 440 371 491 415 491 462 c 0
 491 499 456 521 397 521 c 0
 343 521 314 511 275 477 c 0
 265 468 250 462 239 462 c 0
 218 462 200 479 200 500 c 0
 200 560 310 618 425 618 c 0
 525 618 590 565 590 480 c 0xe8
 590 417 551 364 479 326 c 1
 477 326 474 325 472 322 c 1
 527 293 554 254 554 205 c 0
 554 158 522 97 479 56 c 0
 425 6 361 -15 260 -15 c 0
 152 -15 78 15 78 56 c 0
 78 88 105 116 138 116 c 0
 148 116 153 115 166 105 c 0
 187 88 215 82 277 82 c 0
 345 82 381 90 412 115 c 0
 437 136 453 166 453 195 c 0
 453 222 431 250 398 267 c 1
 380 274 365 276 326 277 c 1
 298 280 285 291 285 314 c 0
 285 345 314 371 346 371 c 2xf0
EndSplineSet
KernsSLIF: 55 -91 1 0 49 -99 1 0 52 -72 1 0
EndChar
StartChar: four
Encoding: 52 52 21
Width: 579
Flags: W
HStem: 0 97<297 356> 133 98<240 364> 584 20G<434 561>
DStem: 434 604 435 466 119 214 240 231 435 466 561 604 384 231 482 231
Fore
561 604 m 1
 482 231 l 1
 516 231 532 219 532 192 c 0
 532 177 523 160 508 148 c 1
 496 136 487 133 461 133 c 1
 453 97 l 1
 487 97 503 84 503 57 c 0
 503 43 495 26 482 15 c 0
 468 4 453 0 427 0 c 2
 299 0 l 2
 260 0 244 12 244 39 c 0
 244 54 253 71 267 82 c 0
 281 94 290 97 319 97 c 2
 356 97 l 1
 364 133 l 1
 101 133 l 1
 119 214 l 1
 434 604 l 1
 561 604 l 1
384 231 m 1
 435 466 l 1
 240 231 l 1
 384 231 l 1
EndSplineSet
KernsSLIF: 55 -125 1 0 49 -90 1 0 52 -85 1 0
EndChar
StartChar: five
Encoding: 53 53 22
Width: 579
Flags: W
HStem: -15 97<256 298> 314 97<375 397> 505 99<244 538>
VStem: 461 99<226 247>
DStem: 244 604 319 505 185 329 296 394
Fore
319 505 m 1
 296 394 l 1
 334 404 367 411 397 411 c 0
 495 411 560 346 560 247 c 0
 560 187 536 123 496 77 c 0
 441 12 371 -15 265 -15 c 0
 160 -15 81 22 81 70 c 0
 81 101 109 129 140 129 c 0
 154 129 160 126 171 115 c 0
 195 90 224 82 286 82 c 0
 360 82 403 99 433 138 c 0
 450 162 461 195 461 228 c 0
 461 281 427 314 375 314 c 0
 342 314 295 301 250 281 c 0
 236 275 231 273 222 273 c 0
 200 273 182 291 183 312 c 0
 183 316 185 322 185 329 c 1
 244 604 l 1
 536 604 l 2
 555 604 561 601 570 598 c 0
 582 594 591 581 591 565 c 0
 591 549 582 532 569 519 c 1
 556 508 543 505 515 505 c 2
 319 505 l 1
EndSplineSet
KernsSLIF: 55 -100 1 0 49 -100 1 0 52 -72 1 0
EndChar
StartChar: six
Encoding: 54 54 23
Width: 579
Flags: W
HStem: -15 97<318 343> 285 96<388 415> 518 100<516 542>
VStem: 149 104<172 202> 463 100<208 231>
Fore
267 314 m 1
 325 363 365 381 415 381 c 0
 499 381 563 316 563 231 c 0
 563 174 539 113 502 68 c 0
 456 12 394 -15 318 -15 c 0
 205 -15 149 48 149 174 c 0
 149 267 175 356 224 429 c 0
 264 487 322 541 386 574 c 1
 437 604 487 618 542 618 c 0
 604 618 642 598 642 565 c 0
 642 535 612 505 581 505 c 0
 574 505 563 508 549 513 c 0
 539 518 535 518 525 518 c 0
 439 518 336 450 286 356 c 0
 280 345 277 337 267 314 c 1
254 202 m 1
 253 195 253 191 253 188 c 0
 253 158 263 123 274 107 c 1
 287 92 312 82 341 82 c 0
 381 82 414 98 436 129 c 0
 453 153 463 183 463 208 c 0
 463 252 431 285 388 285 c 0
 346 285 291 250 254 202 c 1
EndSplineSet
KernsSLIF: 55 -68 1 0 49 -73 1 0 52 -65 1 0
EndChar
StartChar: seven
Encoding: 55 55 24
Width: 579
Flags: W
HStem: -1 21G<275 299> 433 20G<206.5 232.5> 505 99<202 497>
DStem: 497 505 600 507 260 78 348 47
Fore
497 505 m 1
 276 505 l 1
 267 470 247 453 218 453 c 0
 195 453 178 469 178 490 c 0
 178 496 178 505 182 518 c 1
 202 604 l 1
 620 604 l 1
 600 507 l 1
 348 47 l 2
 329 12 312 -1 286 -1 c 0
 264 -1 246 16 246 35 c 0
 246 47 249 55 260 78 c 1
 497 505 l 1
EndSplineSet
KernsSLIF: 50 -87 1 0 51 -98 1 0 54 -122 1 0 55 -86 1 0 46 -221 1 0 49 -90 1 0 52 -131 1 0 53 -108 1 0 56 -99 1 0 44 -200 1 0 58 -201 1 0
EndChar
StartChar: eight
Encoding: 56 56 25
Width: 579
Flags: W
HStem: -15 97<286 310> 255 98<346 364> 521 97<398 420>
VStem: 110 101<125 153> 178 98<413 421> 442 97<176 192> 489 100<451 474>
Fore
472 309 m 1xea
 518 277 539 239 539 192 c 0
 539 149 516 98 484 62 c 1
 440 16 363 -15 286 -15 c 0
 177 -15 110 39 110 125 c 0xf4
 110 198 156 263 240 309 c 1
 198 342 178 374 178 415 c 0
 178 460 208 515 250 552 c 1
 295 594 360 618 420 618 c 0
 519 618 589 558 589 474 c 0
 589 408 551 356 472 309 c 1xea
400 521 m 0
 330 521 276 477 276 419 c 0
 276 380 312 353 364 353 c 0
 433 353 489 397 489 451 c 0xea
 489 495 456 521 400 521 c 0
346 255 m 0
 274 255 211 208 211 153 c 0
 211 109 249 82 308 82 c 0
 381 82 442 127 442 181 c 0xf4
 442 224 401 255 346 255 c 0
EndSplineSet
KernsSLIF: 55 -94 1 0 49 -100 1 0 52 -78 1 0
EndChar
StartChar: nine
Encoding: 57 57 26
Width: 579
Flags: W
HStem: -15 101<211 230> 222 97<339 365> 521 97<411 436>
VStem: 191 100<373 395> 501 103<401 434>
Fore
487 290 m 1
 428 240 388 222 339 222 c 0
 255 222 191 287 191 373 c 0
 191 429 214 491 252 536 c 0
 299 591 360 618 436 618 c 0
 549 618 604 555 604 429 c 0
 604 336 578 247 530 174 c 1
 490 117 431 64 368 28 c 0
 316 -1 267 -15 211 -15 c 0
 152 -15 112 7 112 39 c 0
 112 70 141 98 172 98 c 0
 181 98 191 97 205 90 c 0
 215 86 219 86 228 86 c 0
 315 86 418 155 468 249 c 0
 474 260 477 267 487 290 c 1
500 401 m 1
 501 407 501 412 501 415 c 0
 501 446 492 480 480 497 c 1
 467 512 443 521 412 521 c 0
 371 521 340 505 318 474 c 0
 301 450 291 420 291 395 c 0
 291 352 322 319 365 319 c 0
 408 319 463 353 500 401 c 1
EndSplineSet
KernsSLIF: 55 -85 1 0 49 -95 1 0 52 -73 1 0
EndChar
StartChar: colon
Encoding: 58 58 27
Width: 579
Flags: W
HStem: -15 128<294 306> 294 129<359 373>
Fore
295 -15 m 2
 279 -15 l 2
 248 -15 226 7 226 37 c 0
 226 76 265 113 306 113 c 2
 322 113 l 2
 353 113 375 92 375 64 c 0
 375 23 337 -15 295 -15 c 2
361 294 m 2
 345 294 l 2
 314 294 293 316 293 346 c 0
 293 386 332 423 371 423 c 2
 388 423 l 2
 419 423 441 402 441 371 c 0
 441 332 402 294 361 294 c 2
EndSplineSet
EndChar
StartChar: semicolon
Encoding: 59 59 28
Width: 579
Flags: W
HStem: 294 129<329 356>
Fore
240 129 m 1
 367 129 l 1
 175 -129 l 1
 164 -146 152 -153 140 -153 c 0
 126 -153 115 -143 115 -132 c 0
 115 -125 115 -121 122 -107 c 2
 240 129 l 1
356 423 m 0
 396 423 418 404 418 371 c 0
 418 329 379 294 329 294 c 0
 291 294 270 313 270 346 c 0
 270 388 308 423 356 423 c 0
EndSplineSet
EndChar
StartChar: less
Encoding: 60 60 29
Width: 579
Flags: W
DStem: 99 271 301 270 470 61 525 139 558 477 581 398 99 271 301 270
Fore
301 270 m 1
 525 139 l 2
 543 128 549 120 549 105 c 0
 549 97 546 87 539 78 c 1
 539 77 l 1
 529 64 512 51 499 51 c 0
 490 51 480 55 470 61 c 2
 99 271 l 1
 558 477 l 1
 572 482 582 485 590 485 c 0
 604 485 616 474 620 461 c 1
 621 460 l 1
 622 456 622 453 622 450 c 0
 622 428 609 412 581 398 c 1
 301 270 l 1
EndSplineSet
EndChar
StartChar: equal
Encoding: 61 61 30
Width: 579
Flags: W
HStem: 133 98<131 527> 312 97<169 563>
Fore
192 409 m 2
 563 409 l 2
 584 409 588 409 598 404 c 0
 609 400 618 387 618 370 c 0
 618 356 609 339 596 326 c 1
 582 315 570 312 542 312 c 2
 171 312 l 2
 132 312 116 322 116 350 c 0
 116 365 125 384 139 395 c 0
 153 407 162 409 192 409 c 2
154 231 m 2
 525 231 l 2
 546 231 550 231 558 226 c 1
 572 222 581 208 581 192 c 0
 581 177 572 159 558 148 c 0
 544 136 533 133 505 133 c 2
 133 133 l 2
 94 133 78 144 78 172 c 0
 78 188 87 205 101 218 c 1
 115 228 123 231 154 231 c 2
EndSplineSet
EndChar
StartChar: greater
Encoding: 62 62 31
Width: 579
Flags: W
DStem: 170 398 225 477 394 267 598 265 394 267 598 265 115 138 136 60
Fore
394 267 m 1
 170 398 l 2
 152 409 146 417 146 431 c 0
 146 439 149 450 156 458 c 1
 156 460 l 1
 166 473 185 484 198 484 c 0
 205 484 215 482 225 477 c 2
 598 265 l 1
 136 60 l 2
 123 54 113 51 105 51 c 0
 92 51 81 62 76 76 c 1
 74 78 l 1
 74 88 l 2
 74 109 86 125 115 138 c 2
 394 267 l 1
EndSplineSet
EndChar
StartChar: question
Encoding: 63 63 32
Width: 579
Flags: W
HStem: -15 128<296 310> 482 98<398 422>
VStem: 228 150<37 64> 490 99<415 436>
Fore
195 446 m 1
 211 522 l 1
 316 567 358 580 422 580 c 0
 525 580 589 525 589 436 c 0
 589 381 567 332 530 299 c 0
 496 270 456 248 388 221 c 1
 378 186 356 169 329 169 c 0
 307 169 290 185 290 205 c 0
 290 211 290 214 294 232 c 2
 306 287 l 1
 451 339 490 365 490 415 c 0
 490 457 458 482 402 482 c 0
 365 482 329 474 294 460 c 1
 291 446 l 1
 286 418 283 412 273 402 c 0
 260 389 244 381 229 381 c 0
 208 381 191 397 191 418 c 0
 191 423 192 433 195 446 c 1
298 -15 m 2
 281 -15 l 2
 250 -15 228 7 228 37 c 0
 228 76 267 113 308 113 c 2
 326 113 l 2
 356 113 378 92 378 64 c 0
 378 23 339 -15 298 -15 c 2
EndSplineSet
EndChar
StartChar: at
Encoding: 64 64 33
Width: 579
Flags: W
HStem: -147 76<260 282> 70 78<386 453> 524 77<399 419>
VStem: 95 77<55 83> 254 78<191 207> 485 80<443 458>
DStem: 140 313 215 307 105 149 183 156 460 306 558 415 427 150 501 143
Fore
477 386 m 1
 482 415 l 1
 484 425 485 433 485 443 c 0
 485 492 453 524 404 524 c 0
 322 524 241 431 215 307 c 2
 183 156 l 1
 177 126 172 100 172 76 c 0
 172 22 188 -26 213 -50 c 0
 229 -65 250 -71 280 -71 c 0
 324 -71 364 -60 387 -40 c 0
 403 -27 409 -24 420 -24 c 0
 439 -24 451 -37 451 -55 c 0
 451 -104 361 -147 260 -147 c 0
 198 -147 156 -127 129 -82 c 0
 107 -46 95 1 95 57 c 0
 95 87 98 119 105 149 c 1
 140 313 l 1
 175 480 293 601 419 601 c 0
 508 601 565 546 565 458 c 0
 565 445 562 430 558 415 c 1
 501 143 l 1
 513 138 518 131 518 119 c 0
 518 105 511 90 499 81 c 0
 487 71 479 70 453 70 c 2
 384 70 l 2
 306 70 254 119 254 191 c 0
 254 290 353 378 477 386 c 1
427 150 m 1
 460 306 l 1
 388 299 332 257 332 205 c 0
 332 171 361 148 400 148 c 0
 406 148 412 148 427 150 c 1
EndSplineSet
EndChar
StartChar: A
Encoding: 65 65 34
Width: 579
Flags: W
HStem: 0 97<43 66 170 195 401 446 538 559> 153 97<264 436> 468 97<232 294>
DStem: 294 468 380 436 66 97 264 250 380 436 463 565 417 250 557 97
Fore
436 153 m 1
 205 153 l 1
 170 97 l 1
 193 97 l 2
 213 97 219 97 226 93 c 1
 240 89 248 74 248 57 c 0
 248 43 240 26 226 15 c 0
 211 2 202 0 172 0 c 2
 45 0 l 2
 5 0 -11 11 -11 39 c 0
 -11 54 -2 71 12 82 c 0
 26 94 35 97 66 97 c 1
 294 468 l 1
 234 468 l 2
 194 468 178 479 178 507 c 0
 178 522 187 539 202 551 c 0
 215 563 224 565 254 565 c 2
 463 565 l 1
 557 97 l 1
 577 97 583 97 591 93 c 0
 604 88 613 74 613 57 c 0
 613 43 604 24 591 15 c 1
 577 2 565 0 538 0 c 2
 403 0 l 2
 364 0 349 11 349 39 c 0
 349 54 357 71 371 82 c 0
 386 95 394 97 425 97 c 2
 446 97 l 1
 436 153 l 1
417 250 m 1
 380 436 l 1
 264 250 l 1
 417 250 l 1
EndSplineSet
KernsSLIF: 121 -51 0 0 119 -19 0 0 118 -51 0 0 117 -21 0 0 116 -30 0 0 39 -145 0 0 186 -110 0 0 113 -11 0 0 46 -83 0 0 111 -14 0 0 45 -28 0 0 172 -55 0 0 171 -55 0 0 103 -6 0 0 101 -6 0 0 100 -5 0 0 44 -64 0 0 332 -19 0 0 99 -15 0 0 98 49 0 0 97 10 0 0 89 -42 0 0 87 -25 0 0 86 -78 0 0 300 -41 0 0 298 -41 0 0 301 -41 0 0 299 -41 0 0 85 -41 0 0 84 -43 0 0 81 -30 0 0 286 -30 0 0 79 -30 0 0 71 -24 0 0 264 -37 0 0 67 -29 0 0
EndChar
StartChar: B
Encoding: 66 66 35
Width: 579
Flags: W
HStem: 0 97<75 112 208 380> 234 98<257 380> 468 97<174 197 197 423>
VStem: 488 101<161 183> 502 99<416 434>
DStem: 191 468 287 468 112 97 257 332 191 468 237 234 112 97 208 97
Fore
112 97 m 1xf0
 191 468 l 1
 175 468 l 2
 136 468 121 479 121 507 c 0
 121 522 129 539 143 551 c 0
 156 562 167 565 197 565 c 2
 441 565 l 2
 496 565 535 551 565 522 c 1
 587 499 601 467 601 434 c 0xe8
 601 379 572 334 512 295 c 1
 566 267 589 232 589 183 c 0
 589 143 567 94 532 61 c 0
 489 20 433 0 363 0 c 2
 77 0 l 2
 37 0 22 12 22 39 c 0
 22 54 31 71 43 82 c 0
 57 94 67 97 97 97 c 2
 112 97 l 1xf0
257 332 m 1
 367 332 l 2
 443 332 502 368 502 418 c 0
 502 450 470 468 415 468 c 2
 287 468 l 1
 257 332 l 1
208 97 m 1
 378 97 l 2
 450 97 488 119 488 161 c 0xf0
 488 208 442 234 368 234 c 2
 237 234 l 1
 208 97 l 1
EndSplineSet
KernsSLIF: 89 -61 0 0 87 -11 0 0 86 -36 0 0 233 -15 0 0 288 -19 0 0 286 -19 0 0 289 -19 0 0 287 -19 0 0 234 9 0 0 79 -19 0 0 261 -2 0 0 262 -2 0 0 256 -2 0 0 259 -2 0 0 257 -2 0 0 225 -2 0 0 65 -2 0 0
EndChar
StartChar: C
Encoding: 67 67 36
Width: 579
Flags: W
HStem: -15 99<312 338> 356 209<558 604> 482 96<397 420>
VStem: 78 99<189 208>
Fore
549 546 m 2xb0
 558 542 l 1
 574 558 587 565 604 565 c 0
 626 565 642 549 642 528 c 0
 642 521 642 518 639 501 c 1
 621 419 l 1
 615 394 612 386 604 376 c 1
 591 363 574 356 558 356 c 0xd0
 536 356 519 371 521 394 c 1
 522 412 l 2
 524 450 467 482 402 482 c 0
 303 482 215 407 194 306 c 1
 180 243 l 1
 177 231 177 218 177 208 c 0
 177 131 237 84 336 84 c 0
 381 84 422 92 450 105 c 1
 492 139 l 2
 505 149 518 154 530 154 c 0
 552 154 570 136 570 115 c 0
 570 97 558 78 533 57 c 0
 477 11 401 -15 314 -15 c 0
 170 -15 78 67 78 189 c 0
 78 208 81 224 84 241 c 1
 97 306 l 1
 129 460 268 578 418 578 c 0
 469 578 501 570 549 546 c 2xb0
EndSplineSet
KernsSLIF: 286 -24 0 0 287 -24 0 0 79 -24 0 0 75 -15 0 0 72 -21 0 0 262 2 0 0 256 2 0 0 257 2 0 0 225 2 0 0 65 2 0 0
EndChar
StartChar: D
Encoding: 68 68 37
Width: 579
Flags: W
HStem: 0 97<76 93 191 299> 468 97<198 391>
VStem: 503 101<337 357>
DStem: 171 468 268 468 93 97 191 97
Fore
93 97 m 1
 171 468 l 1
 138 468 122 480 122 507 c 0
 122 522 131 539 144 551 c 0
 159 563 167 565 198 565 c 2
 404 565 l 2
 522 565 604 482 604 357 c 0
 604 337 601 316 596 295 c 1
 587 250 l 1
 572 178 536 119 482 73 c 0
 423 22 360 0 276 0 c 2
 78 0 l 2
 38 0 22 12 22 39 c 0
 22 54 31 71 45 82 c 1
 57 94 70 97 93 97 c 1
191 97 m 1
 296 97 l 2
 356 97 388 108 427 140 c 1
 460 169 480 203 490 253 c 1
 500 298 l 2
 503 312 503 325 503 339 c 0
 503 380 487 420 460 443 c 1
 442 460 411 468 375 468 c 2
 268 468 l 1
 191 97 l 1
EndSplineSet
KernsSLIF: 89 -76 0 0 88 -50 0 0 87 -20 0 0 86 -50 0 0 84 -45 0 0 74 -47 0 0 261 -40 0 0 262 -40 0 0 258 -40 0 0 256 -40 0 0 259 -40 0 0 257 -40 0 0 65 -40 0 0
EndChar
StartChar: E
Encoding: 69 69 38
Width: 579
Flags: W
HStem: 0 97<76 113 209 533> 0 211<518.88 534> 356 209<198 541> 468 97<175 198 198 515>
DStem: 191 468 288 468 113 97 259 332 191 468 239 236 113 97 209 97
Fore
239 236 m 1x10
 209 97 l 1
 456 97 l 1x90
 468 147 l 1
 473 174 477 182 487 192 c 0
 499 205 515 211 529 211 c 0x40
 551 211 569 197 569 177 c 0
 569 169 567 164 565 147 c 1
 533 0 l 1
 78 0 l 2
 39 0 22 12 22 39 c 0
 22 54 31 71 45 82 c 1
 59 95 68 97 98 97 c 2
 113 97 l 1
 191 468 l 1
 177 468 l 2x90
 136 468 121 479 121 507 c 0
 121 522 129 539 144 551 c 0
 158 563 167 565 198 565 c 2x20
 632 565 l 1x10
 601 419 l 1
 595 392 591 384 582 375 c 0
 570 363 554 356 539 356 c 0x20
 518 356 500 370 500 391 c 0
 500 397 501 407 503 419 c 1
 515 468 l 1
 288 468 l 1
 259 332 l 1
 341 332 l 1
 342 339 l 1
 348 365 350 373 361 381 c 1
 373 395 389 403 404 403 c 0
 427 403 443 388 443 365 c 0
 443 358 443 357 439 339 c 2
 415 228 l 1
 409 202 406 195 396 185 c 0
 384 172 368 164 353 164 c 0
 332 164 315 180 315 202 c 0
 315 208 316 215 319 228 c 2
 321 236 l 1
 239 236 l 1x10
EndSplineSet
EndChar
StartChar: F
Encoding: 70 70 39
Width: 579
Flags: W
HStem: 0 97<76 113 209 295> 356 209<198 567> 468 97<175 198 198 536>
DStem: 191 468 288 468 113 97 259 332 191 468 239 236 113 97 209 97
Fore
239 236 m 1xa0
 209 97 l 1
 306 97 l 2
 325 97 332 97 339 93 c 1
 352 89 361 74 361 59 c 0
 361 43 352 26 339 15 c 0
 325 4 312 0 285 0 c 2
 78 0 l 2
 38 0 22 12 22 39 c 0
 22 54 31 71 45 82 c 0
 59 94 68 97 98 97 c 2
 113 97 l 1
 191 468 l 1
 177 468 l 2xa0
 136 468 121 479 121 507 c 0
 121 522 129 539 143 551 c 0
 158 563 167 565 198 565 c 2xc0
 653 565 l 1xa0
 622 418 l 1
 616 392 613 384 604 375 c 0
 591 363 574 356 560 356 c 0xc0
 539 356 521 370 521 391 c 0
 521 396 523 408 525 418 c 2
 536 468 l 1
 288 468 l 1
 259 332 l 1
 340 332 l 1
 342 339 l 1
 347 363 352 371 361 381 c 0
 371 394 388 402 404 402 c 0
 427 402 443 387 443 365 c 0
 443 357 443 356 437 339 c 1
 415 228 l 1
 411 202 406 194 396 185 c 1
 384 171 368 164 353 164 c 0
 332 164 315 178 315 200 c 0
 315 208 316 218 319 228 c 2
 321 236 l 1
 239 236 l 1xa0
EndSplineSet
KernsSLIF: 117 -7 0 0 114 -45 0 0 46 -238 0 0 249 -68 0 0 250 -24 0 0 351 -68 0 0 352 -68 0 0 111 -68 0 0 106 -72 0 0 105 -61 0 0 45 -76 0 0 335 -64 0 0 101 -64 0 0 44 -215 0 0 328 -55 0 0 241 -28 0 0 322 -55 0 0 323 -55 0 0 97 -55 0 0 286 -40 0 0 79 -40 0 0 74 -104 0 0 261 -59 0 0 262 -59 0 0 258 -59 0 0 256 -59 0 0 259 -59 0 0 257 -59 0 0 65 -59 0 0
EndChar
StartChar: G
Encoding: 71 71 40
Width: 579
Flags: W
HStem: -15 99<314 347> 174 97<376 473> 482 96<409 432>
VStem: 77 98<177 195>
Fore
570 174 m 1
 542 47 l 1
 446 0 394 -15 316 -15 c 0
 249 -15 187 2 144 31 c 0
 100 61 77 112 77 178 c 0
 77 198 78 218 84 239 c 1
 98 307 l 2
 113 381 158 453 221 503 c 0
 283 554 350 578 430 578 c 0
 482 578 527 569 565 549 c 1
 581 570 591 578 611 578 c 0
 632 578 646 565 646 542 c 0
 646 535 646 533 642 515 c 2
 626 439 l 1
 620 412 617 404 608 395 c 0
 596 381 580 375 565 375 c 0
 551 375 539 381 534 389 c 0
 529 396 529 396 527 427 c 0
 525 460 480 482 411 482 c 0
 303 482 216 412 195 307 c 1
 181 244 l 2
 177 226 175 210 175 193 c 0
 175 123 232 84 332 84 c 0
 379 84 418 90 460 107 c 1
 473 174 l 1
 378 174 l 2
 337 174 322 185 322 213 c 0
 322 228 330 246 345 257 c 1
 358 270 367 271 397 271 c 2
 567 271 l 2
 587 271 591 270 601 267 c 0
 613 264 622 249 622 234 c 0
 622 205 601 183 570 174 c 1
EndSplineSet
KernsSLIF: 89 -24 0 0 87 6 0 0 86 1 0 0 84 -37 0 0
EndChar
StartChar: H
Encoding: 72 72 41
Width: 579
Flags: W
HStem: 0 97<84 114 202 226 379 418 499 521> 234 96<259 446> 468 97<226 326 478 502>
VStem: 31 246<39 57> 150 228<507 527> 326 248<39 57> 427 227<507 527>
DStem: 191 468 288 468 113 97 259 330 191 468 239 234 113 97 209 97 446 234 591 468 417 97 513 97 495 468 591 468 466 330 513 97
Fore
446 234 m 1xe4
 239 234 l 1
 209 97 l 1
 224 97 l 2
 241 97 249 97 257 93 c 0
 270 89 277 74 277 57 c 0
 277 43 270 26 257 15 c 0
 242 2 231 0 202 0 c 2
 86 0 l 2
 47 0 31 11 31 39 c 0xf4
 31 54 40 71 53 82 c 0
 67 94 77 97 107 97 c 2
 113 97 l 1
 191 468 l 1
 164 470 150 482 150 507 c 0
 150 522 159 539 172 551 c 0
 187 563 195 565 226 565 c 2
 322 565 l 2
 342 565 349 565 356 561 c 1
 369 557 378 542 378 527 c 0
 378 511 369 492 356 482 c 0
 341 470 332 468 302 468 c 2
 288 468 l 1
 259 330 l 1
 466 330 l 1
 495 468 l 1
 480 468 l 2
 462 468 456 469 448 472 c 0
 435 477 427 490 427 507 c 0
 427 522 435 539 450 551 c 1
 462 563 472 565 502 565 c 2
 598 565 l 2
 618 565 624 565 632 561 c 0
 645 557 654 542 654 527 c 0xea
 654 495 629 470 591 468 c 1
 513 97 l 1
 519 97 l 2
 539 97 544 97 552 93 c 0
 565 89 574 74 574 57 c 0
 574 43 565 26 551 15 c 1
 539 2 525 0 499 0 c 2
 381 0 l 2
 342 0 326 11 326 39 c 0
 326 54 335 71 349 82 c 0
 363 94 371 97 402 97 c 2
 417 97 l 1
 446 234 l 1xe4
EndSplineSet
EndChar
StartChar: I
Encoding: 73 73 42
Width: 579
Flags: W
HStem: 0 97<144 264 361 459> 468 97<242 342 265 559>
DStem: 342 468 439 468 264 97 361 97
Fore
439 468 m 1
 361 97 l 1
 457 97 l 2
 477 97 484 97 491 93 c 1
 503 89 512 74 512 59 c 0
 512 43 503 26 490 15 c 1
 477 2 466 0 437 0 c 2
 146 0 l 2
 105 0 90 11 90 39 c 0
 90 54 99 71 113 82 c 1
 127 95 136 97 166 97 c 2
 264 97 l 1
 342 468 l 1
 244 468 l 2
 205 468 191 479 191 507 c 0
 191 522 198 539 211 550 c 0
 226 563 234 565 265 565 c 2
 557 565 l 2
 577 565 583 565 591 561 c 0
 604 557 612 542 612 527 c 0
 612 511 604 492 590 482 c 0
 574 470 566 468 536 468 c 2
 439 468 l 1
EndSplineSet
EndChar
StartChar: J
Encoding: 74 74 43
Width: 579
Flags: W
HStem: -15 99<257 279> 468 97<359 477 381 651>
DStem: 95 208 193 208 62 50 172 113 477 468 574 468 418 192 512 181
Fore
574 468 m 1
 512 181 l 1
 499 117 474 81 420 40 c 1
 371 6 314 -15 257 -15 c 0
 202 -15 141 6 62 50 c 1
 95 208 l 1
 101 232 105 241 115 250 c 1
 126 264 143 271 158 271 c 0
 180 271 197 257 197 236 c 0
 197 228 195 225 193 208 c 1
 172 113 l 1
 216 92 247 84 279 84 c 0
 314 84 352 97 379 119 c 0
 404 139 409 147 418 192 c 1
 477 468 l 1
 361 468 l 2
 322 468 306 479 306 507 c 0
 306 522 315 539 329 551 c 0
 343 563 352 565 381 565 c 2
 649 565 l 2
 670 565 675 565 683 561 c 0
 696 557 704 542 704 525 c 0
 704 511 696 492 682 482 c 1
 670 470 657 468 629 468 c 2
 574 468 l 1
EndSplineSet
KernsSLIF: 262 -19 0 0 256 -19 0 0 225 -29 0 0 65 -19 0 0
EndChar
StartChar: K
Encoding: 75 75 44
Width: 579
Flags: W
HStem: 0 97<75 112 208 233 507 539> 468 97<173 197 197 343 513 615>
VStem: 437 229<503 527>
DStem: 191 468 287 468 112 97 257 324 191 468 231 202 112 97 208 97 460 472 594 468 257 324 391 319
Fore
231 202 m 1
 208 97 l 1
 242 97 l 2
 260 97 267 97 275 93 c 0
 288 89 296 74 296 57 c 0
 296 43 288 26 274 15 c 0
 260 4 248 0 221 0 c 2
 77 0 l 2
 37 0 22 12 22 39 c 0
 22 54 31 71 43 82 c 0
 57 95 66 97 97 97 c 2
 112 97 l 1
 191 468 l 1
 175 468 l 2
 136 468 121 479 121 507 c 0
 121 522 129 539 143 551 c 0
 158 563 166 565 197 565 c 2
 341 565 l 2
 361 565 367 565 375 561 c 0
 388 557 396 542 396 525 c 0
 396 511 388 492 374 482 c 1
 361 470 349 468 321 468 c 2
 287 468 l 1
 257 324 l 1
 460 472 l 1
 445 477 437 487 437 503 c 0
 437 521 446 539 461 550 c 1
 474 563 484 565 513 565 c 2
 611 565 l 2
 629 565 636 565 644 561 c 0
 657 557 666 542 666 527 c 0
 666 511 657 494 643 482 c 0
 629 470 620 468 594 468 c 1
 391 319 l 1
 445 290 487 208 508 97 c 1
 539 97 l 2
 558 97 565 97 574 93 c 0
 585 89 595 74 595 59 c 0
 595 43 587 24 573 15 c 0
 558 4 546 0 518 0 c 2
 412 0 l 1
 396 139 353 232 298 250 c 1
 231 202 l 1
EndSplineSet
KernsSLIF: 121 -69 0 0 362 -37 0 0 117 -37 0 0 351 -24 0 0 352 -24 0 0 111 -24 0 0 45 -61 0 0 101 -19 0 0 328 -1 0 0 241 28 0 0 322 -1 0 0 97 -1 0 0 84 -24 0 0 83 -20 0 0 286 -40 0 0 287 -40 0 0 234 -10 0 0 79 -40 0 0 71 -37 0 0 67 -40 0 0
EndChar
StartChar: L
Encoding: 76 76 45
Width: 579
Flags: W
HStem: 0 97<95 171 268 554> 468 97<193 249 216 424>
DStem: 250 468 347 468 171 97 268 97
Fore
347 468 m 1
 268 97 l 1
 477 97 l 1
 496 186 l 1
 501 211 505 221 515 231 c 0
 527 244 542 250 558 250 c 0
 581 250 598 236 598 214 c 0
 598 208 596 202 593 186 c 1
 554 0 l 1
 97 0 l 2
 56 0 40 12 40 39 c 0
 40 54 50 71 64 82 c 1
 78 95 86 97 116 97 c 2
 171 97 l 1
 250 468 l 1
 195 468 l 2
 156 468 140 479 140 507 c 0
 140 522 149 539 162 551 c 0
 177 563 185 565 216 565 c 2
 422 565 l 2
 442 565 450 565 456 561 c 1
 469 557 477 542 477 525 c 0
 477 511 469 492 456 482 c 0
 441 470 431 468 402 468 c 2
 347 468 l 1
EndSplineSet
KernsSLIF: 121 -45 0 0 362 -19 0 0 117 -15 0 0 39 -134 0 0 186 -104 0 0 45 6 0 0 89 -73 0 0 87 -28 0 0 86 -76 0 0 298 -40 0 0 85 -40 0 0 84 -73 0 0 83 -40 0 0 290 -20 0 0 288 -20 0 0 286 -20 0 0 289 -20 0 0 287 -20 0 0 79 -20 0 0 71 -24 0 0 264 -24 0 0 67 -24 0 0 262 10 0 0 256 10 0 0 257 10 0 0 225 10 0 0 65 10 0 0
EndChar
StartChar: M
Encoding: 77 77 46
Width: 579
Flags: W
HStem: 0 97<44 61 158 184 412 468>
VStem: -9 255<39 59> 358 255<39 59>
DStem: 140 468 218 378 61 97 158 97 218 378 279 565 280 133 352 277 527 378 643 468 468 97 565 97 544 565 527 378 352 277 368 133
Fore
218 378 m 1
 158 97 l 1
 192 97 l 2
 211 97 218 97 225 93 c 1
 237 89 246 74 246 59 c 0
 246 43 237 26 224 15 c 0
 210 4 198 0 170 0 c 2
 46 0 l 2
 6 0 -9 11 -9 39 c 0
 -9 54 -1 71 12 82 c 0
 26 94 37 97 61 97 c 1
 140 468 l 1
 112 470 99 482 99 507 c 0
 99 522 107 539 121 551 c 0
 136 562 144 565 174 565 c 2
 279 565 l 1
 352 277 l 1
 544 565 l 1
 650 565 l 2
 670 565 676 565 684 561 c 0
 696 557 705 542 705 527 c 0
 705 513 699 499 689 488 c 0
 676 474 666 470 643 468 c 1
 565 97 l 1
 598 97 613 86 613 59 c 0
 613 43 605 24 591 15 c 1
 578 4 566 0 539 0 c 2
 414 0 l 2
 374 0 358 11 358 39 c 0
 358 54 367 71 381 82 c 1
 395 95 403 97 434 97 c 2
 468 97 l 1
 527 378 l 1
 368 133 l 1
 280 133 l 1
 218 378 l 1
EndSplineSet
EndChar
StartChar: N
Encoding: 78 78 47
Width: 579
Flags: W
HStem: 0 97<74 90 188 222> 468 97<153 177 480 631>
VStem: 20 256<39 59> 428 256<507 525>
DStem: 170 468 248 381 90 97 188 97 248 381 287 565 418 0 456 185 516 468 613 468 456 185 513 0
Fore
248 381 m 1
 188 97 l 1
 222 97 l 2
 241 97 247 97 255 93 c 0
 267 89 276 74 276 59 c 0
 276 43 267 26 254 15 c 0
 241 4 228 0 202 0 c 2
 76 0 l 2
 35 0 20 11 20 39 c 0
 20 54 29 71 43 82 c 0
 56 94 66 97 90 97 c 1
 170 468 l 1
 155 468 l 2
 115 468 101 479 101 507 c 0
 101 522 109 539 123 550 c 0
 136 562 146 565 177 565 c 2
 287 565 l 1
 456 185 l 1
 516 468 l 1
 482 468 l 2
 443 468 428 479 428 507 c 0
 428 522 437 539 450 551 c 1
 466 563 473 565 503 565 c 2
 629 565 l 2
 648 565 655 565 663 561 c 0
 675 557 684 542 684 525 c 0
 684 511 675 494 662 482 c 0
 648 470 637 468 613 468 c 1
 513 0 l 1
 418 0 l 1
 248 381 l 1
EndSplineSet
KernsSLIF: 362 -15 0 0 117 -15 0 0 46 -122 0 0 249 -7 0 0 351 -15 0 0 352 -15 0 0 111 -15 0 0 335 -9 0 0 101 -9 0 0 44 -99 0 0 328 -19 0 0 241 19 0 0 322 -19 0 0 323 -19 0 0 97 -19 0 0 286 -11 0 0 287 -11 0 0 79 -11 0 0 71 -15 0 0 264 -11 0 0 67 -15 0 0 262 -11 0 0 256 -11 0 0 257 -11 0 0 225 -14 0 0 65 -11 0 0
EndChar
StartChar: O
Encoding: 79 79 48
Width: 579
Flags: W
HStem: -15 99<288 309> 482 96<390 412>
VStem: 73 99<213 238> 529 100<330 356>
Fore
412 578 m 0
 536 578 629 482 629 356 c 0
 629 260 591 169 524 99 c 0
 457 29 368 -15 288 -15 c 0
 164 -15 73 84 73 213 c 0
 73 302 113 398 177 466 c 0
 242 535 334 578 412 578 c 0
392 482 m 0
 281 482 172 360 172 236 c 0
 172 148 229 84 307 84 c 0
 420 84 529 205 529 332 c 0
 529 418 470 482 392 482 c 0
EndSplineSet
KernsSLIF: 89 -64 0 0 88 -34 0 0 87 -5 0 0 86 -40 0 0 84 -28 0 0 262 -25 0 0 256 -25 0 0 257 -25 0 0 225 -24 0 0 65 -25 0 0
EndChar
StartChar: P
Encoding: 80 80 49
Width: 579
Flags: W
HStem: 0 97<76 113 209 304> 194 97<250 359> 468 97<175 197 197 407>
VStem: 492 106<400 418>
DStem: 191 468 288 468 113 97 250 291 191 468 229 194 113 97 209 97
Fore
229 194 m 1
 209 97 l 1
 304 97 l 2
 324 97 330 97 339 93 c 0
 349 89 360 74 360 59 c 0
 360 43 350 24 337 15 c 1
 325 4 312 0 283 0 c 2
 78 0 l 2
 38 0 22 12 22 39 c 0
 22 54 31 71 45 82 c 1
 57 94 68 97 98 97 c 2
 113 97 l 1
 191 468 l 1
 177 468 l 2
 136 468 121 479 121 507 c 0
 121 522 129 539 143 551 c 0
 158 563 167 565 197 565 c 2
 422 565 l 2
 532 565 598 508 598 418 c 0
 598 371 577 321 541 280 c 0
 487 218 427 194 325 194 c 2
 229 194 l 1
288 468 m 1
 250 291 l 1
 364 291 l 2
 440 291 492 336 492 401 c 0
 492 443 458 468 402 468 c 2
 288 468 l 1
EndSplineSet
KernsSLIF: 46 -228 0 0 249 -58 0 0 250 -21 0 0 351 -59 0 0 352 -59 0 0 111 -59 0 0 45 -49 0 0 335 -51 0 0 101 -51 0 0 44 -205 0 0 328 -65 0 0 241 -40 0 0 322 -65 0 0 323 -65 0 0 97 -65 0 0 74 -100 0 0 262 -82 0 0 256 -82 0 0 257 -82 0 0 225 -78 0 0 65 -82 0 0
EndChar
StartChar: Q
Encoding: 81 81 50
Width: 579
Flags: W
HStem: -140 97<400 420> -113 89<277 302> -7 89<277 307> 482 96<391 414>
VStem: 73 98<213 236> 529 100<330 352>
Fore
260 -6 m 1x7c
 253 -29 l 1
 277 -24 290 -24 302 -24 c 0x7c
 329 -24 352 -28 381 -37 c 0
 403 -43 409 -43 420 -43 c 0
 435 -43 443 -40 466 -29 c 1
 490 -15 496 -12 508 -12 c 0
 532 -12 549 -28 549 -50 c 0
 549 -70 536 -87 519 -99 c 0
 480 -125 436 -140 400 -140 c 0xbc
 378 -140 371 -140 329 -121 c 0
 319 -117 298 -113 286 -113 c 0
 264 -113 200 -123 158 -133 c 0
 146 -136 136 -139 129 -139 c 0
 109 -139 93 -121 93 -101 c 0
 93 -81 100 -70 121 -51 c 1
 194 7 l 1
 140 40 115 65 99 98 c 0
 82 131 73 171 73 213 c 0
 73 400 239 578 414 578 c 0
 538 578 629 482 629 352 c 0
 629 236 567 126 461 51 c 0
 403 9 349 -7 277 -7 c 0
 275 -7 268 -7 260 -6 c 1x7c
392 482 m 0
 281 482 171 360 171 234 c 0
 171 147 229 82 307 82 c 0
 420 82 529 203 529 332 c 0
 529 418 470 482 392 482 c 0
EndSplineSet
EndChar
StartChar: R
Encoding: 82 82 51
Width: 579
Flags: W
HStem: 0 97<76 113 209 236 536 556> 468 97<175 198 198 414>
VStem: 488 105<406 425>
DStem: 191 468 288 468 113 97 255 312 191 468 234 215 113 97 209 97
Fore
234 215 m 1
 209 97 l 1
 243 97 l 2
 260 97 268 97 276 93 c 1
 290 89 298 74 298 57 c 0
 298 43 290 26 275 15 c 1
 263 4 249 0 222 0 c 2
 78 0 l 2
 38 0 22 11 22 39 c 0
 22 54 31 71 45 82 c 0
 59 94 68 97 98 97 c 2
 113 97 l 1
 191 468 l 1
 177 468 l 2
 136 468 122 479 122 507 c 0
 122 522 131 539 144 551 c 0
 159 563 167 565 198 565 c 2
 414 565 l 2
 525 565 593 512 593 425 c 0
 593 350 546 291 453 246 c 1
 490 208 518 161 543 97 c 1
 556 97 l 2
 598 97 611 87 611 57 c 0
 611 43 604 26 589 15 c 1
 577 4 563 0 536 0 c 2
 460 0 l 1
 430 95 365 202 329 215 c 1
 234 215 l 1
255 312 m 1
 329 312 l 2
 417 312 488 356 488 407 c 0
 488 443 451 468 396 468 c 2
 288 468 l 1
 255 312 l 1
EndSplineSet
KernsSLIF: 121 -28 0 0 362 -10 0 0 363 -10 0 0 117 -10 0 0 250 29 0 0 351 -10 0 0 352 -10 0 0 111 -10 0 0 45 -37 0 0 335 -5 0 0 101 -5 0 0 328 9 0 0 241 40 0 0 322 9 0 0 323 7 0 0 97 9 0 0 89 -43 0 0 87 -11 0 0 86 -42 0 0 298 -25 0 0 85 -24 0 0 84 -45 0 0 286 -21 0 0 287 -21 0 0 234 2 0 0 79 -21 0 0 71 -21 0 0 264 -21 0 0 67 -24 0 0
EndChar
StartChar: S
Encoding: 83 83 52
Width: 579
Flags: W
HStem: -15 99<293 311> 1 192<108 150> 482 96<389 412>
VStem: 162 102<373 398> 456 102<169 193>
Fore
611 515 m 1xb8
 591 429 l 1
 587 402 582 394 574 384 c 1
 561 371 544 364 530 364 c 0
 518 364 505 370 499 379 c 1
 492 386 492 386 492 417 c 0
 492 456 451 482 391 482 c 0
 324 482 264 443 264 398 c 0
 264 384 273 368 283 358 c 1
 298 347 308 345 381 329 c 1
 436 319 463 312 488 299 c 1
 532 279 558 240 558 193 c 0x78
 558 74 446 -15 296 -15 c 0xb8
 244 -15 195 -1 153 24 c 1
 133 6 123 1 108 1 c 0
 86 1 70 16 70 37 c 0
 70 43 71 53 74 65 c 1
 87 129 l 1
 97 172 116 193 150 193 c 0x78
 162 193 174 188 181 178 c 0
 186 172 186 172 188 146 c 0
 191 112 246 84 309 84 c 0
 389 84 456 121 456 169 c 0
 456 181 450 194 436 203 c 1
 420 216 401 222 334 234 c 0
 273 244 243 255 216 273 c 0
 183 294 162 332 162 373 c 0
 162 485 275 578 412 578 c 0
 461 578 502 567 532 546 c 1
 546 570 557 578 574 578 c 0
 598 578 613 565 613 543 c 0
 613 536 613 532 611 515 c 1xb8
EndSplineSet
KernsSLIF: 116 -24 0 0 89 -45 0 0 87 -19 0 0 86 -20 0 0 84 -59 0 0 262 -20 0 0 256 -20 0 0 257 -20 0 0 225 -20 0 0 65 -20 0 0
EndChar
StartChar: T
Encoding: 84 84 53
Width: 579
Flags: W
HStem: 0 97<176 260 358 422> 468 97<161 341 161 543>
DStem: 341 468 437 468 260 97 358 97
Fore
437 468 m 1
 358 97 l 1
 422 97 l 2
 442 97 448 97 456 93 c 0
 469 89 477 74 477 59 c 0
 477 43 469 26 456 15 c 0
 442 4 428 0 402 0 c 2
 178 0 l 2
 140 0 123 12 123 39 c 0
 123 54 133 71 146 82 c 0
 161 95 169 97 200 97 c 2
 260 97 l 1
 341 468 l 1
 237 468 l 1
 218 378 l 1
 211 352 209 345 200 334 c 1
 187 322 170 314 156 314 c 0
 136 314 117 330 117 349 c 0
 117 356 119 365 121 378 c 1
 161 565 l 1
 660 565 l 1
 621 378 l 2
 615 350 612 345 604 334 c 1
 591 322 574 314 558 314 c 0
 536 314 519 329 519 349 c 0
 519 356 521 365 524 378 c 1
 543 468 l 1
 437 468 l 1
EndSplineSet
KernsSLIF: 121 -5 0 0 119 6 0 0 118 7 0 0 117 -1 0 0 59 -131 0 0 115 -51 0 0 114 -41 0 0 46 -192 0 0 249 -45 0 0 111 -45 0 0 106 -65 0 0 105 -58 0 0 45 -120 0 0 172 -100 0 0 171 -100 0 0 103 -34 0 0 101 -40 0 0 44 -170 0 0 58 -148 0 0 99 -51 0 0 241 -20 0 0 97 -49 0 0 89 -20 0 0 87 -2 0 0 86 5 0 0 83 -60 0 0 290 -28 0 0 233 -28 0 0 288 -28 0 0 286 -28 0 0 289 -28 0 0 287 -28 0 0 79 -28 0 0 74 -90 0 0 71 -33 0 0 67 -33 0 0 261 -43 0 0 262 -43 0 0 258 -43 0 0 256 -43 0 0 259 -43 0 0 257 -43 0 0 225 -43 0 0 65 -43 0 0
EndChar
StartChar: U
Encoding: 85 85 54
Width: 579
Flags: W
HStem: -15 99<290 311> 468 97<195 323 480 630>
VStem: 107 98<153 172>
DStem: 169 468 265 468 112 198 208 191 515 468 612 468 456 191 555 198
Fore
612 468 m 1
 555 198 l 1
 530 78 414 -15 290 -15 c 0
 183 -15 107 57 107 153 c 0
 107 169 108 182 112 198 c 1
 169 468 l 1
 133 468 119 480 119 507 c 0
 119 522 128 539 141 551 c 0
 156 563 164 565 195 565 c 2
 321 565 l 2
 342 565 346 565 353 561 c 1
 365 557 375 542 375 527 c 0
 375 511 365 492 353 482 c 0
 339 470 329 468 299 468 c 2
 265 468 l 1
 208 191 l 1
 205 183 205 177 205 170 c 0
 205 120 249 84 309 84 c 0
 378 84 443 131 456 191 c 2
 515 468 l 1
 482 468 l 2
 442 468 427 479 427 507 c 0
 427 522 436 539 450 551 c 0
 464 563 472 565 503 565 c 2
 628 565 l 2
 646 565 654 565 662 561 c 0
 675 557 683 542 683 527 c 0
 683 511 675 492 660 482 c 0
 646 472 636 468 612 468 c 1
EndSplineSet
KernsSLIF: 114 -45 0 0 46 -148 0 0 112 -2 0 0 110 -11 0 0 109 19 0 0 44 -122 0 0 261 -28 0 0 262 -28 0 0 256 -28 0 0 259 -28 0 0 257 -28 0 0 225 -28 0 0 65 -28 0 0
EndChar
StartChar: V
Encoding: 86 86 55
Width: 579
Flags: W
HStem: 0 21G<241 336> 468 97<142 164 164 295 506 659>
DStem: 144 468 253 468 241 0 322 140 533 468 635 468 322 140 336 0
Fore
322 140 m 1
 533 468 l 1
 508 468 l 2
 489 468 484 469 477 472 c 0
 463 477 453 491 453 507 c 0
 453 522 463 539 477 551 c 0
 491 563 499 565 530 565 c 2
 657 565 l 2
 675 565 683 565 691 561 c 0
 704 557 712 542 712 525 c 0
 712 507 698 485 679 474 c 0
 670 469 660 468 635 468 c 1
 336 0 l 1
 241 0 l 1
 144 468 l 1
 133 468 l 2
 102 470 88 482 88 507 c 0
 88 522 97 539 110 551 c 0
 125 563 133 565 164 565 c 2
 293 565 l 2
 310 565 318 565 326 561 c 0
 339 557 347 542 347 525 c 0
 347 511 339 494 325 482 c 0
 312 470 301 468 271 468 c 2
 253 468 l 1
 322 140 l 1
EndSplineSet
KernsSLIF: 121 -28 0 0 117 -25 0 0 59 -158 0 0 114 -64 0 0 46 -211 0 0 249 -64 0 0 111 -69 0 0 105 -80 0 0 45 -55 0 0 172 -104 0 0 171 -104 0 0 103 -61 0 0 101 -64 0 0 44 -188 0 0 58 -175 0 0 241 -37 0 0 97 -73 0 0 84 2 0 0 83 -43 0 0 290 -40 0 0 233 -40 0 0 288 -40 0 0 286 -40 0 0 289 -40 0 0 287 -40 0 0 79 -40 0 0 71 -42 0 0 67 -42 0 0 261 -15 0 0 262 -15 0 0 258 -15 0 0 256 -15 0 0 259 -15 0 0 257 -15 0 0 225 -25 0 0 65 -15 0 0
EndChar
StartChar: W
Encoding: 87 87 56
Width: 579
Flags: W
HStem: 0 21G<95 202 381 488> 468 97<174 304 498 552>
DStem: 136 468 234 468 95 0 214 205 334 423 348 268 214 205 202 0 348 268 434 423 381 0 461 205 552 468 646 468 461 205 488 0
Fore
348 268 m 1
 202 0 l 1
 95 0 l 1
 136 468 l 1
 110 470 99 482 99 503 c 0
 99 519 107 539 122 551 c 0
 136 563 144 565 174 565 c 2
 302 565 l 2
 322 565 329 565 336 561 c 1
 349 557 357 542 357 525 c 0
 357 511 349 492 335 482 c 1
 321 470 310 468 281 468 c 2
 234 468 l 1
 214 205 l 1
 334 423 l 1
 434 423 l 1
 461 205 l 1
 552 468 l 1
 500 468 l 2
 460 468 446 479 446 507 c 0
 446 522 453 539 468 551 c 0
 482 563 490 565 521 565 c 2
 646 565 l 2
 666 565 673 565 681 561 c 0
 694 557 702 542 702 527 c 0
 702 497 679 474 646 468 c 1
 488 0 l 1
 381 0 l 1
 348 268 l 1
EndSplineSet
KernsSLIF: 121 -7 0 0 117 -2 0 0 59 -108 0 0 114 -34 0 0 46 -131 0 0 249 -7 0 0 111 -14 0 0 105 -50 0 0 45 -2 0 0 172 -47 0 0 171 -47 0 0 103 -6 0 0 101 -7 0 0 44 -108 0 0 58 -129 0 0 241 19 0 0 97 -19 0 0 84 -1 0 0 83 -25 0 0 290 -9 0 0 233 -2 0 0 288 -9 0 0 286 -9 0 0 289 -9 0 0 287 -9 0 0 79 -9 0 0 71 -10 0 0 67 -10 0 0 261 -19 0 0 262 -19 0 0 258 -19 0 0 256 -19 0 0 259 -19 0 0 257 -19 0 0 225 -19 0 0 65 -19 0 0
EndChar
StartChar: X
Encoding: 88 88 57
Width: 579
Flags: W
HStem: 0 97<72 86>
VStem: 19 238<39 57> 127 219<507 527> 345 237<39 57> 453 217<507 527>
DStem: 172 468 298 469 290 290 367 363 290 290 336 213 86 97 211 97 336 213 414 288 411 97 535 97 480 469 604 468 367 363 414 288
Fore
414 288 m 1xa8
 535 97 l 1
 567 97 582 84 582 57 c 0
 582 43 574 26 560 15 c 1
 546 2 535 0 507 0 c 2
 400 0 l 2
 361 0 345 11 345 39 c 0
 345 51 350 66 361 77 c 0
 374 90 386 95 411 97 c 1
 336 213 l 1
 211 97 l 1
 241 97 257 84 257 57 c 0
 257 43 247 24 234 15 c 1
 220 2 208 0 180 0 c 2
 74 0 l 2
 34 0 19 11 19 39 c 0xd0
 19 73 47 97 86 97 c 1
 290 290 l 1
 172 468 l 1
 141 469 127 482 127 507 c 0
 127 522 136 539 149 551 c 0
 162 562 172 565 202 565 c 2
 291 565 l 2
 310 565 316 565 325 561 c 0
 336 557 346 542 346 527 c 0
 346 501 332 484 298 469 c 1
 367 363 l 1
 480 469 l 1
 457 482 453 488 453 507 c 0
 453 522 461 539 474 551 c 1
 489 562 499 565 528 565 c 2
 615 565 l 2
 635 565 640 565 649 561 c 0
 662 557 670 542 670 527 c 0
 670 492 642 469 604 468 c 1
 414 288 l 1xa8
EndSplineSet
KernsSLIF: 121 -60 0 0 117 -45 0 0 111 -30 0 0 45 -68 0 0 101 -24 0 0 97 -9 0 0 81 -37 0 0 286 -40 0 0 79 -40 0 0 67 -41 0 0
EndChar
StartChar: Y
Encoding: 89 89 58
Width: 579
Flags: W
HStem: 0 97<176 264 361 423> 468 97<181 205 528 620>
VStem: 129 218<507 527> 453 220<507 527>
DStem: 182 468 298 468 293 237 363 337 293 237 389 237 264 97 361 97 482 468 598 468 363 337 389 237
Fore
389 237 m 1
 361 97 l 1
 423 97 l 2
 443 97 450 97 457 93 c 1
 470 89 479 74 479 59 c 0
 479 43 470 24 456 15 c 1
 443 4 430 0 403 0 c 2
 178 0 l 2
 140 0 123 12 123 39 c 0
 123 54 133 71 146 82 c 0
 161 95 170 97 200 97 c 2
 264 97 l 1
 293 237 l 1
 182 468 l 1
 177 468 l 2
 146 468 129 482 129 507 c 0
 129 522 139 539 152 550 c 0
 167 563 175 565 205 565 c 2
 293 565 l 2
 312 565 318 565 326 561 c 0
 339 557 347 542 347 527 c 0
 347 501 330 480 298 468 c 1
 363 337 l 1
 482 468 l 1
 460 477 453 487 453 507 c 0
 453 522 461 539 474 551 c 0
 488 562 499 565 528 565 c 2
 618 565 l 2
 637 565 643 565 651 561 c 0
 663 557 673 542 673 527 c 0
 673 511 663 494 650 482 c 0
 636 470 624 468 601 468 c 2
 598 468 l 1
 389 237 l 1
EndSplineSet
MinimumDistance: x13,32 
KernsSLIF: 118 -47 0 0 117 -60 0 0 59 -175 0 0 46 -175 0 0 112 -42 0 0 249 -69 0 0 111 -85 0 0 105 -78 0 0 45 -108 0 0 172 -125 0 0 171 -125 0 0 103 -77 0 0 101 -78 0 0 44 -153 0 0 58 -196 0 0 241 -45 0 0 97 -76 0 0 84 -20 0 0 83 -68 0 0 290 -64 0 0 233 -61 0 0 288 -64 0 0 286 -64 0 0 289 -64 0 0 287 -64 0 0 79 -64 0 0 71 -65 0 0 67 -65 0 0 261 -40 0 0 262 -40 0 0 258 -40 0 0 256 -40 0 0 259 -40 0 0 257 -40 0 0 225 -43 0 0 65 -40 0 0
EndChar
StartChar: Z
Encoding: 90 90 59
Width: 579
Flags: W
HStem: 0 97<215 511> 468 97<213 462>
DStem: 462 468 588 470 90 97 215 97
Fore
215 97 m 1
 434 97 l 1
 450 167 l 1
 453 192 460 202 468 211 c 0
 480 224 496 231 512 231 c 0
 534 231 550 215 550 194 c 0
 550 186 550 185 546 167 c 2
 511 0 l 1
 71 0 l 1
 90 97 l 1
 462 468 l 1
 290 468 l 1
 275 400 l 1
 270 375 265 365 257 356 c 1
 244 345 228 336 211 336 c 0
 191 336 172 353 172 371 c 0
 172 380 172 381 178 400 c 1
 213 565 l 1
 608 565 l 1
 588 470 l 1
 215 97 l 1
EndSplineSet
KernsSLIF: 121 -68 0 0 118 -59 0 0
EndChar
StartChar: bracketleft
Encoding: 91 91 60
Width: 579
Flags: W
HStem: 511 97<371 527>
DStem: 371 608 448 511 211 -143 329 -47
Fore
448 511 m 1
 329 -47 l 1
 387 -47 l 2
 406 -47 412 -47 420 -50 c 0
 433 -54 442 -70 442 -84 c 0
 442 -101 433 -117 419 -129 c 0
 406 -140 394 -143 365 -143 c 2
 211 -143 l 1
 371 608 l 1
 525 608 l 2
 544 608 550 606 558 604 c 1
 570 598 580 585 580 570 c 0
 580 554 570 536 557 525 c 0
 543 513 533 511 503 511 c 2
 448 511 l 1
EndSplineSet
EndChar
StartChar: backslash
Encoding: 92 92 61
Width: 579
Flags: W
DStem: 218 591 312 629 388 -67 484 -26
Fore
312 629 m 1
 484 -26 l 2
 487 -37 488 -47 488 -51 c 0
 488 -81 460 -109 429 -109 c 0
 404 -109 395 -100 388 -67 c 1
 218 591 l 1
 213 604 211 611 211 616 c 0
 211 645 241 673 271 673 c 0
 294 673 304 663 312 629 c 1
EndSplineSet
EndChar
StartChar: bracketright
Encoding: 93 93 62
Width: 579
Flags: W
HStem: -143 96<154 308> 511 97<293 350>
DStem: 350 511 468 608 232 -47 308 -143
Fore
232 -47 m 1
 350 511 l 1
 294 511 l 2
 274 511 268 512 260 515 c 0
 247 518 239 533 239 549 c 0
 239 565 247 581 260 593 c 0
 274 604 286 608 314 608 c 2
 468 608 l 1
 308 -143 l 1
 155 -143 l 2
 136 -143 129 -143 122 -140 c 0
 109 -136 101 -121 101 -105 c 0
 101 -90 109 -73 123 -61 c 0
 136 -50 147 -47 177 -47 c 2
 232 -47 l 1
EndSplineSet
EndChar
StartChar: asciicircum
Encoding: 94 94 63
Width: 579
Flags: W
DStem: 391 479 425 632 479 345 566 406 425 632 391 479 187 406 249 345
Fore
391 479 m 1
 249 345 l 2
 222 319 214 315 195 315 c 0
 172 315 156 332 156 353 c 0
 156 371 162 381 187 406 c 1
 425 632 l 1
 566 406 l 2
 577 389 580 381 580 371 c 0
 580 345 549 315 519 315 c 0
 501 315 494 319 479 345 c 1
 391 479 l 1
EndSplineSet
EndChar
StartChar: underscore
Encoding: 95 95 64
Width: 579
Flags: W
HStem: -121 48<-59 546>
Fore
546 -73 m 1
 546 -121 l 1
 -59 -121 l 1
 -59 -73 l 1
 546 -73 l 1
EndSplineSet
EndChar
StartChar: quoteleft
Encoding: 96 8216 65
Width: 579
Flags: W
HStem: 563 20G<365 492>
Fore
492 583 m 1
 518 381 l 1
 518 375 l 2
 518 353 501 337 480 337 c 0
 468 337 462 343 453 361 c 1
 365 583 l 1
 492 583 l 1
EndSplineSet
KernsSLIF: 89 -91 1 0 87 -50 1 0 86 -55 1 0 84 -64 1 0 262 -112 1 0 256 -112 1 0 257 -112 1 0 225 -110 1 0 65 -112 1 0
EndChar
StartChar: a
Encoding: 97 97 66
Width: 579
Flags: W
HStem: -16 97<211 236> 0 97<489 513> 191 88<308 337> 339 97<355 384>
VStem: 64 105<95 115> 439 100<301 326>
Fore
376 0 m 1x7c
 381 22 l 1
 329 -2 270 -16 211 -16 c 0xbc
 126 -16 64 31 64 95 c 0
 64 123 77 154 102 185 c 1
 153 244 236 279 335 279 c 0
 365 279 395 276 433 270 c 1
 437 291 l 1
 439 295 439 295 439 301 c 0
 439 329 412 339 357 339 c 0
 326 339 286 332 241 322 c 0
 225 319 211 316 202 316 c 0
 178 316 164 332 164 356 c 0
 164 376 177 395 195 404 c 0
 228 419 324 436 378 436 c 0
 477 436 539 394 539 326 c 0
 539 314 539 304 536 293 c 1
 494 97 l 1
 511 97 l 2
 530 97 536 97 543 93 c 1
 556 89 565 74 565 59 c 0
 565 43 556 26 542 15 c 1
 530 2 518 0 489 0 c 2
 376 0 l 1x7c
404 131 m 1
 415 178 l 1
 378 186 343 191 310 191 c 0
 263 191 224 177 192 152 c 1
 177 138 169 126 169 115 c 0
 169 97 197 81 234 81 c 0
 287 81 345 98 404 131 c 1
EndSplineSet
KernsSLIF: 121 -45 0 0 119 -15 0 0 118 -30 0 0 39 -99 0 0 106 -105 0 0
EndChar
StartChar: b
Encoding: 98 98 67
Width: 579
Flags: W
HStem: -15 99<311 334> 0 97<55 169> 340 97<381 404> 508 96<162 185>
VStem: 503 101<236 260>
DStem: 180 508 298 604 93 97 250 388
Fore
298 604 m 1x78
 250 388 l 1
 299 420 349 437 404 437 c 0
 464 437 512 423 542 396 c 1
 581 364 604 314 604 260 c 0
 604 195 574 125 524 74 c 0
 466 16 396 -15 312 -15 c 0xb8
 255 -15 219 -1 177 34 c 1
 169 0 l 1
 56 0 l 2
 17 0 2 11 2 39 c 0
 2 54 11 71 24 82 c 0
 38 94 47 97 78 97 c 2
 93 97 l 1
 180 508 l 1
 164 508 l 2
 123 508 109 518 109 546 c 0
 109 562 119 580 132 591 c 0
 146 601 155 604 185 604 c 2
 298 604 l 1x78
381 340 m 0
 326 340 282 319 247 277 c 0
 224 250 211 218 211 187 c 0
 211 122 257 84 332 84 c 0
 388 84 434 105 468 146 c 0
 490 172 503 208 503 236 c 0
 503 270 489 299 463 319 c 0
 446 332 418 340 381 340 c 0
EndSplineSet
KernsSLIF: 121 -19 0 0 119 2 0 0 118 -5 0 0
EndChar
StartChar: c
Encoding: 99 99 68
Width: 579
Flags: W
HStem: -16 97<307 339> 339 97<371 396>
VStem: 90 99<152 172>
Fore
604 371 m 1
 587 298 l 2
 581 273 577 263 567 253 c 0
 556 241 539 234 524 234 c 0
 512 234 499 240 492 247 c 1
 487 254 485 260 485 280 c 0
 485 296 482 306 470 315 c 0
 450 330 415 339 373 339 c 0
 312 339 263 316 226 273 c 1
 203 244 189 208 189 172 c 0
 189 112 237 81 337 81 c 0
 415 81 450 90 496 123 c 0
 507 132 516 136 528 136 c 0
 550 136 567 119 567 97 c 0
 567 77 552 55 527 38 c 0
 477 2 404 -16 307 -16 c 0
 236 -16 183 -2 149 24 c 0
 112 54 90 101 90 152 c 0
 90 216 120 288 169 340 c 1
 226 403 304 436 394 436 c 0
 450 436 492 427 527 407 c 1
 536 427 549 436 570 436 c 0
 593 436 606 422 606 398 c 0
 606 392 605 388 604 371 c 1
EndSplineSet
KernsSLIF: 107 2 0 0 104 10 0 0
EndChar
StartChar: d
Encoding: 100 100 69
Width: 579
Flags: W
HStem: -15 99<270 295> 0 97<530 553> 340 97<341 365> 508 96<502 532>
VStem: 71 100<162 187>
DStem: 525 508 643 604 501 388 536 97
Fore
643 604 m 1xb8
 536 97 l 1
 551 97 l 2
 570 97 577 97 584 93 c 1
 598 89 605 74 605 57 c 0
 605 43 598 24 583 15 c 1
 570 2 558 0 530 0 c 2
 418 0 l 1x78
 425 34 l 1
 367 -1 326 -15 270 -15 c 0
 211 -15 164 0 133 27 c 0
 94 59 71 109 71 162 c 0
 71 228 102 298 152 349 c 0
 210 409 279 437 365 437 c 0
 423 437 466 420 501 388 c 1
 525 508 l 1
 511 508 l 2
 492 508 484 508 477 512 c 1
 464 516 456 532 456 549 c 0
 456 562 464 580 477 591 c 0
 492 604 501 604 532 604 c 2
 643 604 l 1xb8
343 340 m 0
 288 340 242 319 208 277 c 0
 185 250 171 218 171 187 c 0
 171 122 218 84 293 84 c 0xb8
 349 84 395 105 430 146 c 0
 453 172 466 208 466 236 c 0
 466 270 451 299 425 319 c 0
 408 332 380 340 343 340 c 0
EndSplineSet
EndChar
StartChar: e
Encoding: 101 101 70
Width: 579
Flags: W
HStem: -16 97<285 317> 167 85<194 569> 339 97<354 375>
Fore
569 167 m 1
 172 167 l 1
 183 108 229 81 315 81 c 0
 357 81 386 86 477 108 c 0
 490 112 503 113 512 113 c 0
 534 113 549 98 549 77 c 0
 549 55 536 38 516 27 c 0
 474 5 363 -16 285 -16 c 0
 153 -16 71 53 71 164 c 0
 71 308 214 436 375 436 c 0
 501 436 581 363 581 250 c 0
 581 236 580 220 577 205 c 2
 569 167 l 1
194 252 m 1
 480 252 l 1
 474 304 425 339 356 339 c 0
 283 339 221 306 194 252 c 1
EndSplineSet
KernsSLIF: 121 -30 0 0 120 2 0 0 119 -5 0 0 118 -19 0 0 116 -20 0 0 39 -80 0 0
EndChar
StartChar: f
Encoding: 102 102 71
Width: 579
Flags: W
HStem: 0 97<134 213 310 445> 326 97<214 260 380 527> 507 97<479 508>
DStem: 260 326 358 326 213 97 310 97
Fore
358 326 m 1
 310 97 l 1
 445 97 l 2
 464 97 470 97 479 93 c 0
 491 89 500 74 500 59 c 0
 500 43 491 26 477 15 c 0
 464 4 451 0 425 0 c 2
 136 0 l 2
 97 0 81 12 81 39 c 0
 81 54 90 71 104 82 c 0
 119 95 126 97 156 97 c 2
 213 97 l 1
 260 326 l 1
 218 326 l 2
 177 326 161 337 161 365 c 0
 161 381 170 398 183 411 c 1
 198 420 208 423 237 423 c 2
 282 423 l 1
 290 460 l 2
 309 549 392 604 508 604 c 0
 549 604 608 598 637 588 c 0
 659 582 670 570 670 552 c 0
 670 522 640 492 612 492 c 0
 606 492 598 494 587 496 c 0
 552 503 508 507 479 507 c 0
 423 507 394 491 387 460 c 1
 380 423 l 1
 525 423 l 2
 546 423 551 422 558 419 c 0
 572 415 581 401 581 384 c 0
 581 369 572 353 558 341 c 0
 544 329 533 326 505 326 c 2
 358 326 l 1
EndSplineSet
KernsSLIF: 116 -11 0 0 115 -58 0 0 39 -98 0 0 249 -42 0 0 250 -20 0 0 351 -60 0 0 352 -64 0 0 111 -64 0 0 108 -37 0 0 106 -78 0 0 105 -50 0 0 102 -58 0 0 335 -58 0 0 101 -58 0 0 328 -47 0 0 241 -15 0 0 322 -47 0 0 323 -47 0 0 97 -47 0 0
EndChar
StartChar: g
Encoding: 103 103 72
Width: 579
Flags: W
HStem: -198 96<156 286> -15 99<257 280> 326 97<487 600> 340 97<332 353>
VStem: 71 99<162 187>
Fore
480 388 m 1xd8
 487 423 l 1
 600 423 l 2
 620 423 624 422 632 419 c 0
 645 415 654 401 654 384 c 0
 654 369 645 353 632 341 c 0
 618 329 608 326 578 326 c 2
 563 326 l 1xe8
 489 -19 l 1
 468 -122 371 -198 265 -198 c 2
 158 -198 l 2
 119 -198 102 -188 102 -160 c 0
 102 -144 112 -127 125 -116 c 0
 140 -104 148 -102 178 -102 c 2
 283 -102 l 2
 339 -102 381 -70 392 -19 c 1
 404 34 l 1
 352 1 307 -15 257 -15 c 0
 146 -15 71 57 71 162 c 0
 71 308 205 437 353 437 c 0
 404 437 450 420 480 388 c 1xd8
334 340 m 0xd8
 250 340 170 265 170 187 c 0
 170 126 216 84 280 84 c 0
 365 84 445 158 445 236 c 0
 445 298 398 340 334 340 c 0xd8
EndSplineSet
KernsSLIF: 114 -6 0 0 351 -7 0 0 352 -7 0 0 108 -47 0 0 335 -1 0 0 101 -1 0 0 328 -9 0 0 241 25 0 0 322 -9 0 0 97 -9 0 0
EndChar
StartChar: h
Encoding: 104 104 73
Width: 579
Flags: W
HStem: 0 97<85 195 195 218 389 418 499 521> 339 97<384 415> 508 96<183 205>
VStem: 456 100<293 315>
DStem: 202 508 318 604 113 97 270 378 202 508 248 274 113 97 210 97 453 263 552 275 418 97 513 97
Fore
318 604 m 1
 270 378 l 1
 316 417 364 436 415 436 c 0
 500 436 556 388 556 315 c 0
 556 302 555 290 552 275 c 1
 513 97 l 1
 519 97 l 2
 539 97 546 97 554 93 c 0
 566 88 574 74 574 57 c 0
 574 43 566 26 552 15 c 1
 539 2 527 0 499 0 c 2
 391 0 l 2
 350 0 335 11 335 39 c 0
 335 54 345 71 357 82 c 0
 371 94 381 97 412 97 c 2
 418 97 l 1
 453 263 l 1
 456 274 456 285 456 293 c 0
 456 321 428 339 384 339 c 0
 337 339 314 329 248 274 c 1
 210 97 l 1
 216 97 l 2
 236 97 241 97 250 93 c 0
 260 88 271 74 271 57 c 0
 271 43 263 24 249 15 c 1
 236 2 224 0 195 0 c 2
 86 0 l 2
 47 0 32 11 32 39 c 0
 32 54 40 71 54 82 c 0
 70 94 78 97 107 97 c 2
 113 97 l 1
 202 508 l 1
 185 508 l 2
 144 508 129 518 129 546 c 0
 129 562 139 580 152 591 c 0
 166 601 175 604 205 604 c 2
 318 604 l 1
EndSplineSet
KernsSLIF: 121 -36 0 0 39 -90 0 0
EndChar
StartChar: i
Encoding: 105 105 74
Width: 579
Flags: W
HStem: 0 97<123 265 361 477> 326 97<234 311> 503 101<352 409>
DStem: 312 326 429 423 264 97 361 97
Fore
439 566 m 1
 434 539 l 2
 429 512 423 503 396 503 c 2
 352 503 l 2
 325 503 316 512 319 538 c 1
 324 567 l 1
 329 591 339 604 363 604 c 2
 407 604 l 2
 437 604 445 594 439 566 c 1
429 423 m 1
 361 97 l 1
 477 97 l 2
 497 97 503 97 512 93 c 0
 524 89 533 74 533 57 c 0
 533 43 524 26 511 15 c 0
 497 4 484 0 457 0 c 2
 125 0 l 2
 86 0 70 11 70 39 c 0
 70 54 78 71 92 82 c 0
 107 95 115 97 146 97 c 2
 264 97 l 1
 312 326 l 1
 236 326 l 2
 195 326 180 337 180 365 c 0
 180 381 189 398 202 409 c 1
 218 420 226 423 257 423 c 2
 429 423 l 1
EndSplineSet
KernsSLIF: 106 -180 0 0 84 -80 0 0
EndChar
StartChar: j
Encoding: 106 106 75
Width: 579
Flags: W
HStem: -198 96<134 265> 326 97<248 446> 503 101<446 503>
DStem: 446 326 563 423 371 -19 469 -19
Fore
533 566 m 1
 528 539 l 2
 523 512 518 503 490 503 c 2
 446 503 l 2
 418 503 411 512 414 538 c 1
 418 567 l 1
 420 591 433 604 457 604 c 2
 501 604 l 2
 532 604 539 594 533 566 c 1
446 326 m 1
 250 326 l 2
 210 326 195 337 195 365 c 0
 195 381 203 397 218 409 c 0
 232 420 240 423 270 423 c 2
 563 423 l 1
 469 -19 l 1
 448 -121 350 -198 244 -198 c 2
 136 -198 l 2
 97 -198 81 -188 81 -160 c 0
 81 -144 89 -128 102 -116 c 0
 117 -104 126 -102 156 -102 c 2
 263 -102 l 2
 319 -102 361 -70 371 -19 c 1
 446 326 l 1
EndSplineSet
EndChar
StartChar: k
Encoding: 107 107 76
Width: 579
Flags: W
HStem: 0 97<93 132 476 510> 326 97<423 534> 508 96<201 224>
DStem: 219 508 336 604 132 97 267 277 219 508 241 159 132 97 208 0 260 172 350 234 343 84 477 97 356 339 485 326 267 277 350 234
Fore
241 159 m 1
 208 0 l 1
 95 0 l 2
 56 0 40 11 40 39 c 0
 40 54 50 71 64 82 c 0
 77 94 86 97 116 97 c 2
 132 97 l 1
 219 508 l 1
 203 508 l 2
 186 508 177 508 170 512 c 1
 156 515 148 530 148 546 c 0
 148 562 156 580 170 591 c 0
 185 601 195 604 224 604 c 2
 336 604 l 1
 267 277 l 1
 356 339 l 1
 349 349 348 356 348 364 c 0
 348 381 356 397 370 409 c 0
 384 420 394 423 423 423 c 2
 532 423 l 2
 572 423 587 412 587 386 c 0
 587 369 578 353 565 341 c 0
 550 329 541 326 512 326 c 2
 485 326 l 1
 350 234 l 1
 477 97 l 1
 508 97 l 2
 527 97 535 97 542 93 c 1
 555 89 565 74 565 57 c 0
 565 43 555 26 542 15 c 0
 528 2 515 0 488 0 c 2
 374 0 l 2
 334 0 319 11 319 39 c 0
 319 55 326 70 343 84 c 1
 260 172 l 1
 241 159 l 1
EndSplineSet
KernsSLIF: 362 -9 0 0 117 -9 0 0 115 -15 0 0 46 -100 0 0 351 -28 0 0 352 -28 0 0 111 -28 0 0 45 -65 0 0 103 -20 0 0 335 -20 0 0 101 -20 0 0 44 -83 0 0 328 -6 0 0 241 24 0 0 322 -6 0 0 323 -6 0 0 97 -6 0 0
EndChar
StartChar: l
Encoding: 108 108 77
Width: 579
Flags: W
HStem: 0 97<123 265 361 477> 508 96<272 350>
DStem: 350 508 468 604 264 97 361 97
Fore
468 604 m 1
 361 97 l 1
 477 97 l 2
 497 97 503 97 512 93 c 0
 524 89 533 74 533 57 c 0
 533 43 524 26 511 15 c 0
 497 4 484 0 457 0 c 2
 125 0 l 2
 86 0 70 11 70 39 c 0
 70 54 78 71 92 82 c 0
 107 95 115 97 146 97 c 2
 264 97 l 1
 350 508 l 1
 274 508 l 2
 259 508 248 508 241 512 c 1
 228 515 219 532 219 546 c 0
 219 562 228 580 242 591 c 0
 257 601 265 604 295 604 c 2
 468 604 l 1
EndSplineSet
KernsSLIF: 121 -98 0 0 118 -95 0 0
EndChar
StartChar: m
Encoding: 109 109 78
Width: 579
Flags: W
HStem: 0 97<46 132> 326 97<109 136> 339 97<283 312 487 511>
VStem: -8 216<39 57> 515 98<317 339>
DStem: 109 326 200 295 61 97 158 97 308 301 404 295 244 0 363 97 512 301 611 309 450 0 566 97
Fore
226 423 m 1xd8
 222 400 l 1
 260 427 283 436 312 436 c 0
 349 436 379 420 400 388 c 1
 437 420 472 436 511 436 c 0
 572 436 613 396 613 339 c 0
 613 326 613 319 611 309 c 2
 566 97 l 1
 598 97 615 84 615 57 c 0
 615 43 606 26 593 15 c 1
 580 2 567 0 539 0 c 2
 450 0 l 1
 512 301 l 1
 515 308 515 314 515 319 c 0
 513 332 505 339 487 339 c 0
 461 339 445 330 404 295 c 1
 363 97 l 1
 394 97 411 84 411 57 c 0
 411 43 402 26 388 15 c 1
 375 2 363 0 335 0 c 2
 244 0 l 1
 308 301 l 1
 310 308 312 316 312 319 c 0
 312 332 301 339 283 339 c 0xb8
 257 339 236 329 200 295 c 1
 158 97 l 1
 191 97 208 84 208 57 c 0
 208 43 198 26 185 15 c 0
 171 2 159 0 132 0 c 2
 47 0 l 2
 7 0 -8 11 -8 39 c 0
 -8 73 20 97 61 97 c 1
 109 326 l 1
 77 326 60 339 60 365 c 0
 60 381 70 397 84 409 c 0
 97 420 107 423 136 423 c 2
 226 423 l 1xd8
EndSplineSet
KernsSLIF: 121 2 0 0 119 28 0 0 118 15 0 0 112 40 0 0
EndChar
StartChar: n
Encoding: 110 110 79
Width: 579
Flags: W
HStem: 0 97<85 195 195 218 399 418> 326 97<162 188> 339 97<381 415>
VStem: 457 100<291 318>
DStem: 162 326 247 273 113 97 210 97 453 270 552 273 418 97 515 97
Fore
279 423 m 1xd0
 270 378 l 1
 326 420 361 436 415 436 c 0
 500 436 557 388 557 318 c 0
 557 302 555 290 552 273 c 1
 515 97 l 1
 549 97 565 84 565 57 c 0
 565 43 556 26 542 15 c 1
 529 2 516 0 489 0 c 2
 403 0 l 2
 363 0 348 11 348 39 c 0
 348 54 356 71 370 82 c 0
 384 94 394 97 418 97 c 1
 453 270 l 1
 456 277 457 285 457 291 c 0
 457 322 430 339 381 339 c 0xb0
 337 339 303 322 247 273 c 1
 210 97 l 1
 216 97 l 2
 236 97 241 97 249 93 c 0
 260 88 270 74 270 57 c 0
 270 43 260 26 248 15 c 0
 234 2 224 0 195 0 c 2
 86 0 l 2
 47 0 32 11 32 39 c 0
 32 54 40 71 54 82 c 0
 68 94 78 97 107 97 c 2
 113 97 l 1
 162 326 l 1
 128 326 112 339 112 365 c 0
 112 381 120 398 133 409 c 0
 148 420 158 423 188 423 c 2
 279 423 l 1xd0
EndSplineSet
KernsSLIF: 121 -34 0 0 119 -7 0 0 118 -20 0 0 39 -86 0 0 112 2 0 0 84 -59 0 0
EndChar
StartChar: o
Encoding: 111 111 80
Width: 579
Flags: W
HStem: -16 97<288 310> 339 97<362 387>
VStem: 81 99<169 188> 491 99<232 252>
Fore
387 436 m 0
 507 436 590 361 590 252 c 0
 590 112 446 -16 288 -16 c 0
 164 -16 81 57 81 169 c 0
 81 224 107 286 153 335 c 0
 209 397 298 436 387 436 c 0
364 339 m 0
 265 339 180 268 180 186 c 0
 180 125 234 81 308 81 c 0
 406 81 491 153 491 234 c 0
 491 295 437 339 364 339 c 0
EndSplineSet
KernsSLIF: 121 -25 0 0 120 -11 0 0 119 -2 0 0 118 -11 0 0 116 -20 0 0 39 -76 0 0 84 -49 0 0
EndChar
StartChar: p
Encoding: 112 112 81
Width: 579
Flags: W
HStem: -198 96<13 50 147 205> 9 98<317 345> 326 97<123 146> 339 97<385 411>
VStem: 505 99<242 260>
DStem: 141 326 182 64 50 -102 147 -102
Fore
182 64 m 1xd8
 147 -102 l 1
 203 -102 l 2
 221 -102 228 -102 236 -105 c 0
 249 -109 257 -123 257 -140 c 0
 257 -156 249 -172 236 -185 c 1
 222 -195 211 -198 182 -198 c 2
 15 -198 l 2
 -24 -198 -40 -188 -40 -160 c 0
 -40 -144 -32 -128 -19 -116 c 0
 -5 -105 5 -102 35 -102 c 2
 50 -102 l 1
 141 326 l 1
 125 326 l 2
 86 326 71 337 71 365 c 0
 71 381 81 397 93 409 c 1
 107 420 116 423 146 423 c 2
 259 423 l 1xe8
 249 380 l 1
 306 420 349 436 411 436 c 0
 528 436 604 367 604 260 c 0
 604 123 474 9 319 9 c 0
 264 9 224 26 182 64 c 1xd8
386 339 m 0xd8
 291 339 218 281 214 205 c 0
 213 180 225 152 243 136 c 0
 264 116 294 107 335 107 c 0
 375 107 411 116 439 136 c 1
 479 161 505 205 505 244 c 0
 505 302 458 339 386 339 c 0xd8
EndSplineSet
KernsSLIF: 121 -15 0 0 116 -9 0 0
EndChar
StartChar: q
Encoding: 113 113 82
Width: 579
Flags: W
HStem: -198 96<317 396 487 510> 9 98<268 295> 326 97<507 620> 339 97<337 363>
VStem: 73 99<171 202>
DStem: 430 64 583 326 395 -102 492 -102
Fore
395 -102 m 1xe8
 430 64 l 1
 371 24 326 9 268 9 c 0
 153 9 73 76 73 171 c 0
 73 242 110 318 171 369 c 0
 224 412 291 436 361 436 c 0xd8
 420 436 460 420 499 380 c 1
 507 423 l 1
 620 423 l 2
 639 423 645 422 653 419 c 0
 666 415 675 401 675 384 c 0
 675 369 666 353 653 341 c 0
 639 329 628 326 598 326 c 2
 583 326 l 1
 492 -102 l 1
 508 -102 l 2
 527 -102 533 -102 542 -105 c 0
 554 -110 563 -123 563 -140 c 0
 563 -156 554 -172 541 -185 c 1
 527 -195 515 -198 487 -198 c 2
 319 -198 l 2
 302 -198 291 -198 285 -195 c 0
 273 -191 264 -175 264 -161 c 0
 264 -146 273 -127 286 -116 c 0
 299 -105 310 -102 339 -102 c 2
 395 -102 l 1xe8
345 339 m 0
 304 339 270 329 240 312 c 1
 202 285 172 241 172 202 c 0
 172 143 221 107 295 107 c 0
 336 107 371 116 400 136 c 1
 439 160 467 205 467 241 c 0
 467 303 420 339 345 339 c 0
EndSplineSet
KernsSLIF: 117 45 0 0
EndChar
StartChar: r
Encoding: 114 114 83
Width: 579
Flags: W
HStem: 0 97<114 194 291 425> 329 94<221 242> 339 96<501 524>
DStem: 242 329 321 240 194 97 291 97
Fore
360 423 m 1xc0
 347 361 l 1
 441 420 477 435 524 435 c 0
 574 435 629 397 629 363 c 0
 629 334 600 304 570 304 c 0
 556 304 549 309 536 322 c 0
 524 334 515 339 501 339 c 0xa0
 470 339 425 313 321 240 c 1
 291 97 l 1
 425 97 l 2
 445 97 451 97 460 93 c 0
 472 89 480 74 480 57 c 0
 480 43 472 26 458 15 c 0
 445 4 433 0 404 0 c 2
 116 0 l 2
 78 0 62 11 62 39 c 0
 62 54 71 71 84 82 c 0
 98 95 107 97 136 97 c 2
 194 97 l 1
 242 329 l 1
 208 329 l 2
 170 329 154 339 154 365 c 0
 154 381 162 397 177 409 c 0
 189 419 205 423 228 423 c 2
 360 423 l 1xc0
EndSplineSet
KernsSLIF: 122 -29 0 0 121 11 0 0 120 2 0 0 119 25 0 0 118 28 0 0 117 19 0 0 116 19 0 0 59 -110 0 0 115 -30 0 0 114 -20 0 0 39 -55 0 0 113 -10 0 0 46 -157 0 0 112 30 0 0 249 -20 0 0 353 -20 0 0 250 19 0 0 351 -20 0 0 354 -20 0 0 352 -20 0 0 111 -20 0 0 110 6 0 0 109 40 0 0 108 -61 0 0 107 -41 0 0 106 -47 0 0 105 -37 0 0 45 -60 0 0 104 -28 0 0 103 -10 0 0 102 -24 0 0 336 -14 0 0 337 -14 0 0 335 -14 0 0 101 -14 0 0 100 -15 0 0 44 -139 0 0 58 -125 0 0 332 -21 0 0 99 -28 0 0 328 -28 0 0 324 -28 0 0 322 -28 0 0 325 -28 0 0 323 -28 0 0 97 -28 0 0
EndChar
StartChar: s
Encoding: 115 115 84
Width: 579
Flags: W
HStem: -16 97<288 320> 1 161<120 154> 273 163<500 538> 339 97<358 386>
VStem: 152 108<280 302> 430 109<127 146>
Fore
460 302 m 1x2c
 457 312 l 1
 435 330 404 339 364 339 c 0
 312 339 260 321 260 302 c 0
 260 295 270 287 282 282 c 0
 294 277 299 276 360 267 c 0
 430 257 466 247 491 232 c 1
 521 211 539 181 539 146 c 0
 539 55 431 -16 291 -16 c 0x9c
 236 -16 189 -6 154 12 c 1
 140 4 133 1 120 1 c 0
 97 1 81 16 81 38 c 0
 81 43 81 50 84 65 c 2
 90 97 l 1
 101 141 120 162 154 162 c 0x4c
 178 162 192 148 195 119 c 1
 218 94 257 81 308 81 c 0
 374 81 430 102 430 127 c 0
 430 139 420 150 404 156 c 1
 389 164 369 169 318 172 c 1
 200 186 152 218 152 280 c 0
 152 367 252 436 381 436 c 0x9c
 428 436 467 428 501 411 c 1
 513 430 522 436 538 436 c 0
 558 436 574 422 574 401 c 0
 574 394 573 386 570 371 c 1
 562 336 l 2
 556 310 554 301 543 291 c 0
 532 280 515 273 500 273 c 0
 480 273 468 281 460 302 c 1x2c
EndSplineSet
KernsSLIF: 116 -19 0 0 39 -77 0 0
EndChar
StartChar: t
Encoding: 116 116 85
Width: 579
Flags: W
HStem: -16 97<282 308> 326 97<144 180 298 473>
VStem: 133 101<89 113>
DStem: 180 326 277 326 136 119 236 136
Fore
277 326 m 1
 236 136 l 1
 234 128 234 119 234 113 c 0
 234 92 259 81 308 81 c 0
 360 81 409 92 457 115 c 0
 474 123 482 125 492 125 c 0
 515 125 530 109 530 86 c 0
 530 65 519 48 496 35 c 0
 443 7 349 -16 282 -16 c 0
 240 -16 197 -4 169 16 c 0
 146 31 133 57 133 89 c 0
 133 101 133 108 136 119 c 1
 180 326 l 1
 146 326 l 2
 107 326 90 337 90 365 c 0
 90 381 100 398 113 411 c 1
 128 420 136 423 167 423 c 2
 202 423 l 1
 219 508 l 2
 224 534 228 543 237 554 c 1
 249 565 265 573 281 573 c 0
 303 573 319 557 319 536 c 0
 319 528 319 527 316 508 c 1
 298 423 l 1
 473 423 l 2
 492 423 499 422 507 419 c 0
 519 415 528 401 528 384 c 0
 528 369 519 353 505 341 c 0
 492 329 480 326 453 326 c 2
 277 326 l 1
EndSplineSet
KernsSLIF: 59 -134 0 0 39 -127 0 0 351 -45 0 0 352 -45 0 0 111 -45 0 0 104 -10 0 0 335 -37 0 0 101 -37 0 0 58 -150 0 0 328 -25 0 0 241 5 0 0 322 -25 0 0 323 -25 0 0 97 -25 0 0 83 -50 0 0
EndChar
StartChar: u
Encoding: 117 117 86
Width: 579
Flags: W
HStem: -12 96<260 291> 0 97<488 515> 329 94<144 167 430 467>
VStem: 119 100<107 132>
DStem: 161 329 279 423 123 152 222 154 467 329 584 423 429 150 515 97
Fore
584 423 m 1xb0
 515 97 l 1
 549 97 565 84 565 59 c 0
 565 43 556 24 542 15 c 1
 529 2 516 0 488 0 c 2
 397 0 l 1x70
 407 47 l 1
 349 1 316 -12 260 -12 c 0
 177 -12 119 35 119 107 c 0
 119 123 120 136 123 152 c 1
 161 329 l 1
 146 329 l 2
 107 329 90 339 90 365 c 0
 90 381 100 398 113 411 c 1
 127 420 136 423 167 423 c 2
 279 423 l 1
 222 154 l 1
 220 146 219 140 219 132 c 0
 219 102 244 84 291 84 c 0
 340 84 368 98 429 150 c 1
 467 329 l 1
 433 329 l 2
 394 329 378 339 378 365 c 0
 378 381 387 398 400 411 c 1
 415 420 423 423 453 423 c 2
 584 423 l 1xb0
EndSplineSet
KernsSLIF: 39 -72 0 0
EndChar
StartChar: v
Encoding: 118 118 87
Width: 579
Flags: W
HStem: 0 21G<240 339> 326 97<131 154 154 282 454 477 477 608>
DStem: 146 326 257 326 240 0 316 119 466 326 570 326 316 119 339 0
Fore
316 119 m 1
 466 326 l 1
 456 326 l 2
 417 326 401 337 401 365 c 0
 401 381 411 397 423 409 c 1
 437 420 446 423 477 423 c 2
 606 423 l 2
 624 423 632 422 640 419 c 0
 653 415 662 401 662 386 c 0
 662 369 653 353 639 341 c 0
 626 329 615 326 587 326 c 2
 570 326 l 1
 339 0 l 1
 240 0 l 1
 146 326 l 1
 133 326 l 2
 94 326 78 337 78 365 c 0
 78 381 87 397 101 409 c 0
 115 420 125 423 154 423 c 2
 282 423 l 2
 299 423 307 422 315 419 c 0
 329 415 336 400 336 384 c 0
 336 369 329 353 314 341 c 0
 299 329 290 326 260 326 c 2
 257 326 l 1
 316 119 l 1
EndSplineSet
KernsSLIF: 59 -91 0 0 115 -19 0 0 46 -198 0 0 249 -11 0 0 353 -14 0 0 351 -14 0 0 352 -14 0 0 111 -14 0 0 108 -99 0 0 45 -34 0 0 103 -2 0 0 336 -7 0 0 337 -7 0 0 335 -7 0 0 101 -7 0 0 44 -175 0 0 58 -108 0 0 99 -20 0 0 327 -9 0 0 328 -9 0 0 324 -9 0 0 241 19 0 0 322 -9 0 0 325 -9 0 0 323 -9 0 0 97 -9 0 0
EndChar
StartChar: w
Encoding: 119 119 88
Width: 579
Flags: W
HStem: 0 21G<136 226 361 450> 329 94<155 246 496 610>
VStem: 81 217<365 386> 443 220<365 384>
DStem: 123 329 226 329 136 0 232 178 505 329 601 329 434 178 450 0
Fore
329 175 m 1
 226 0 l 1
 136 0 l 1
 123 329 l 1
 94 329 81 341 81 365 c 0
 81 381 88 398 102 409 c 0
 116 420 125 423 155 423 c 2
 244 423 l 2
 264 423 270 422 277 419 c 0
 290 415 298 401 298 386 c 0
 298 370 290 353 277 341 c 0
 264 330 255 329 226 329 c 1
 232 178 l 1
 322 332 l 1
 408 332 l 1
 434 178 l 1
 505 329 l 1
 499 329 l 2
 480 329 472 329 464 332 c 0
 451 335 443 349 443 365 c 0
 443 381 451 398 466 409 c 0
 479 420 488 423 518 423 c 2
 608 423 l 2
 627 423 634 422 640 419 c 0
 654 415 663 401 663 384 c 0
 663 371 657 357 646 347 c 1
 634 332 623 329 601 329 c 1
 450 0 l 1
 361 0 l 1
 329 175 l 1
EndSplineSet
KernsSLIF: 59 -91 0 0 115 -15 0 0 46 -139 0 0 353 -5 0 0 351 -5 0 0 352 -5 0 0 111 -5 0 0 108 -64 0 0 45 -1 0 0 103 2 0 0 44 -116 0 0 58 -108 0 0 99 -10 0 0 327 -7 0 0 328 -7 0 0 324 -7 0 0 241 28 0 0 322 -7 0 0 325 -7 0 0 323 -9 0 0 97 -7 0 0
EndChar
StartChar: x
Encoding: 120 120 89
Width: 579
Flags: W
HStem: 0 97<496 528>
VStem: 116 220<365 384> 401 220<364 386>
DStem: 260 221 322 156 93 97 239 97
Fore
408 220 m 1
 528 97 l 1
 557 97 572 84 572 57 c 0
 572 43 563 26 549 15 c 1
 536 2 524 0 496 0 c 2
 388 0 l 2
 348 0 332 11 332 39 c 0
 332 65 353 89 381 97 c 1
 322 156 l 1
 239 97 l 1
 260 86 267 78 267 60 c 0
 267 43 259 26 244 15 c 1
 232 2 219 0 191 0 c 2
 84 0 l 2
 45 0 29 11 29 39 c 0
 29 51 35 66 46 77 c 0
 57 90 70 95 93 97 c 1
 260 221 l 1
 158 326 l 1
 129 329 116 342 116 365 c 0
 116 381 125 398 139 409 c 0
 153 420 162 423 192 423 c 2
 282 423 l 2
 301 423 307 422 315 419 c 0
 329 415 336 401 336 384 c 0
 336 365 322 345 299 332 c 1
 349 283 l 1
 418 332 l 1
 406 343 401 352 401 364 c 0
 401 380 411 397 423 409 c 1
 437 420 448 423 477 423 c 2
 566 423 l 2
 585 423 591 422 600 419 c 0
 612 415 621 401 621 386 c 0
 621 353 596 330 558 326 c 1
 408 220 l 1
EndSplineSet
KernsSLIF: 113 -10 0 0 111 -15 0 0 335 -9 0 0 101 -9 0 0 99 -20 0 0 97 -1 0 0
EndChar
StartChar: y
Encoding: 121 121 90
Width: 579
Flags: W
HStem: -198 96<41 160 250 272> 326 97<469 497>
VStem: 99 217<365 386> 420 220<365 384>
DStem: 138 326 247 326 236 2 313 110 236 2 581 326 160 -102 265 -102 474 326 581 326 313 110 265 -102
Fore
236 2 m 1
 138 326 l 1
 112 330 99 342 99 365 c 0
 99 381 107 398 121 409 c 0
 136 420 144 423 174 423 c 2
 260 423 l 2
 281 423 287 422 294 419 c 0
 307 415 316 401 316 386 c 0
 316 350 288 329 247 326 c 1
 313 110 l 1
 474 326 l 1
 469 326 l 2
 437 326 420 340 420 365 c 0
 420 381 430 398 443 409 c 0
 457 420 467 423 497 423 c 2
 587 423 l 2
 605 423 612 422 620 419 c 0
 632 415 640 401 640 384 c 0
 640 353 616 330 581 326 c 1
 265 -102 l 1
 270 -102 l 2
 290 -102 296 -102 304 -105 c 0
 316 -109 326 -123 326 -140 c 0
 326 -156 316 -172 303 -185 c 1
 290 -195 277 -198 250 -198 c 2
 43 -198 l 2
 2 -198 -12 -188 -12 -160 c 0
 -12 -144 -4 -128 9 -116 c 1
 24 -105 33 -102 64 -102 c 2
 160 -102 l 1
 236 2 l 1
EndSplineSet
KernsSLIF: 59 -104 0 0 115 -29 0 0 46 -197 0 0 249 -24 0 0 353 -24 0 0 351 -24 0 0 352 -24 0 0 111 -24 0 0 108 -99 0 0 45 -28 0 0 103 -14 0 0 336 -19 0 0 337 -19 0 0 335 -19 0 0 101 -19 0 0 44 -171 0 0 58 -120 0 0 99 -30 0 0 327 -20 0 0 328 -20 0 0 324 -20 0 0 241 5 0 0 322 -20 0 0 325 -20 0 0 323 -21 0 0 97 -20 0 0
EndChar
StartChar: z
Encoding: 122 122 91
Width: 579
Flags: W
HStem: 0 97<257 503> 0 149<481 503> 326 97<185 404>
DStem: 404 326 565 345 100 81 257 97
Fore
257 97 m 1xa0
 427 97 l 1xa0
 437 131 457 149 487 149 c 0x60
 508 149 525 133 525 113 c 0
 525 107 524 100 521 86 c 2
 503 0 l 1xa0
 82 0 l 1x60
 100 81 l 1
 404 326 l 1
 260 326 l 1
 259 318 l 1
 253 291 250 283 240 274 c 1
 228 260 211 254 197 254 c 0
 174 254 158 270 158 290 c 0
 158 295 160 309 162 318 c 2
 185 423 l 1
 581 423 l 1
 565 345 l 1
 257 97 l 1xa0
EndSplineSet
EndChar
StartChar: braceleft
Encoding: 123 123 92
Width: 579
Flags: W
HStem: -148 98<334 361> 505 99<479 495>
VStem: 234 98<-47 -27>
DStem: 271 146 365 138 236 -22 334 -15 342 477 437 470 308 318 404 318
Fore
437 470 m 2
 404 318 l 1
 395 275 386 257 358 232 c 1
 369 215 374 202 374 188 c 0
 374 178 371 159 365 138 c 1
 334 -15 l 1
 332 -20 332 -26 332 -29 c 0
 332 -45 339 -50 361 -50 c 0
 386 -51 400 -67 400 -88 c 0
 400 -122 371 -148 334 -148 c 0
 277 -148 234 -105 234 -47 c 0
 234 -38 234 -31 236 -22 c 2
 271 146 l 1
 273 153 274 160 274 164 c 0
 274 175 267 181 248 183 c 0
 222 186 210 198 210 220 c 0
 210 254 232 277 270 281 c 0
 294 283 302 291 308 318 c 2
 342 477 l 1
 356 546 427 604 495 604 c 0
 522 604 539 589 539 565 c 0
 539 535 512 508 480 505 c 1
 453 505 443 497 437 470 c 2
EndSplineSet
EndChar
StartChar: bar
Encoding: 124 124 93
Width: 579
Flags: W
HStem: 584 20G<410.5 429.5>
DStem: 356 539 453 539 224 -84 321 -84
Fore
453 539 m 1
 321 -84 l 1
 316 -109 312 -119 302 -128 c 0
 290 -140 274 -148 259 -148 c 0
 236 -148 220 -133 220 -113 c 0
 220 -105 221 -97 224 -84 c 1
 356 539 l 2
 361 563 365 574 375 582 c 1
 387 595 403 604 418 604 c 0
 441 604 457 587 457 566 c 0
 457 560 456 552 453 539 c 1
EndSplineSet
EndChar
StartChar: braceright
Encoding: 125 125 94
Width: 579
Flags: W
HStem: -148 98<183 198> 505 99<316 345>
VStem: 304 100<267 291> 346 99<484 502>
DStem: 273 138 370 138 241 -15 336 -22 345 470 442 477 312 318 407 309
Fore
241 -15 m 1xe0
 273 138 l 1
 283 180 293 198 319 224 c 1
 309 240 304 253 304 267 c 0xe0
 304 277 307 296 312 318 c 2
 345 470 l 1
 345 477 346 482 346 484 c 0
 346 500 340 505 316 505 c 1
 293 508 277 522 277 544 c 0
 277 577 307 604 345 604 c 0
 401 604 445 560 445 502 c 0xd0
 445 492 443 485 442 477 c 1
 407 309 l 1
 404 302 404 295 404 291 c 0
 404 280 411 274 430 273 c 0
 456 270 468 257 468 236 c 0
 468 202 446 178 409 174 c 0
 384 171 376 164 370 138 c 1
 336 -22 l 1
 322 -90 252 -148 183 -148 c 0
 156 -148 140 -133 140 -109 c 0
 140 -81 166 -53 198 -50 c 1
 225 -50 234 -40 241 -15 c 1xe0
EndSplineSet
EndChar
StartChar: asciitilde
Encoding: 126 126 95
Width: 579
Flags: W
Fore
549 353 m 0
 570 353 587 336 587 314 c 0
 587 295 577 279 554 254 c 1
 490 191 460 172 415 172 c 0
 378 172 345 194 298 246 c 0
 282 264 270 273 263 273 c 0
 254 273 242 264 209 232 c 0
 177 202 169 195 152 195 c 0
 129 195 110 211 110 232 c 0
 110 257 123 275 164 312 c 0
 211 356 244 373 286 373 c 0
 326 373 349 358 403 298 c 0
 417 283 427 275 435 275 c 0
 446 275 462 288 492 319 c 0
 518 346 529 353 549 353 c 0
EndSplineSet
EndChar
StartChar: exclamdown
Encoding: 161 161 96
Width: 579
Flags: W
HStem: 285 127<358 372>
Fore
191 -110 m 1
 280 177 l 1
 290 208 312 225 339 225 c 0
 363 225 378 210 378 185 c 0
 378 183 378 180 376 177 c 1
 343 -110 l 1
 339 -153 332 -169 316 -186 c 1
 298 -208 270 -220 244 -220 c 0
 208 -220 180 -195 180 -162 c 0
 180 -149 183 -138 191 -110 c 1
370 412 m 2
 387 412 l 2
 418 412 439 391 439 361 c 0
 439 322 400 285 360 285 c 2
 342 285 l 2
 312 285 291 306 291 335 c 0
 291 375 329 412 370 412 c 2
EndSplineSet
EndChar
StartChar: cent
Encoding: 162 162 97
Width: 579
Flags: W
HStem: -43 234<282 340> 414 226<397 428>
VStem: 140 99<257 279>
Fore
361 97 m 1
 345 22 l 2
 339 -5 335 -12 326 -22 c 0
 314 -35 298 -43 282 -43 c 0
 260 -43 243 -26 243 -7 c 0
 243 1 243 2 247 22 c 1
 264 100 l 1
 185 120 140 177 140 257 c 0
 140 368 229 474 349 501 c 1
 365 574 l 2
 371 601 375 611 384 620 c 0
 397 634 412 640 428 640 c 0
 450 640 467 624 467 604 c 0
 467 598 467 595 462 574 c 1
 450 511 l 1
 477 507 499 499 515 487 c 1
 523 490 529 491 535 491 c 0
 558 491 574 477 574 453 c 0
 574 450 574 442 570 427 c 1
 562 387 l 1
 556 361 554 353 543 343 c 1
 532 330 515 322 500 322 c 0
 488 322 474 329 469 336 c 0
 463 343 463 345 462 371 c 0
 461 401 442 414 397 414 c 0
 312 414 239 352 239 279 c 0
 239 228 281 191 340 191 c 0
 376 191 412 202 450 226 c 0
 463 234 473 237 485 237 c 0
 507 237 524 220 524 198 c 0
 524 153 457 113 361 97 c 1
EndSplineSet
EndChar
StartChar: sterling
Encoding: 163 163 98
Width: 579
Flags: W
HStem: 0 97<259 448> 236 96<144 209 309 377> 482 98<391 412>
VStem: 205 101<367 396>
Fore
356 236 m 2
 310 236 l 1
 299 174 288 143 259 97 c 1
 456 97 l 1
 467 126 485 141 513 141 c 0
 536 141 554 127 554 105 c 0
 554 81 541 51 522 33 c 1
 499 9 472 0 428 0 c 2
 117 0 l 2
 78 0 62 11 62 39 c 0
 62 70 81 89 122 97 c 1
 164 101 198 152 211 236 c 1
 146 236 l 2
 128 236 120 236 112 240 c 0
 99 244 90 257 90 274 c 0
 90 290 99 307 113 318 c 0
 127 330 136 332 167 332 c 2
 209 332 l 1
 208 349 205 361 205 373 c 0
 205 488 296 580 412 580 c 0
 482 580 546 536 546 489 c 0
 546 460 515 430 485 430 c 0
 468 430 464 433 446 457 c 1
 435 474 417 482 391 482 c 0
 340 482 306 448 306 396 c 0
 306 387 306 365 308 345 c 1
 309 332 l 1
 375 332 l 2
 394 332 400 332 409 329 c 0
 420 324 430 310 430 294 c 0
 430 277 420 260 408 250 c 0
 394 239 384 236 356 236 c 2
EndSplineSet
EndChar
StartChar: fraction
Encoding: 164 8260 99
Width: 579
Flags: W
DStem: 573 468 608 386 98 198 133 115
Fore
608 386 m 2
 133 115 l 2
 113 104 99 99 88 99 c 0
 68 99 50 117 50 139 c 0
 50 164 61 177 98 198 c 2
 573 468 l 2
 596 482 604 484 617 484 c 0
 637 484 655 467 655 446 c 0
 655 420 643 406 608 386 c 2
EndSplineSet
EndChar
StartChar: yen
Encoding: 165 165 100
Width: 579
Flags: W
HStem: 0 97<193 264 361 404> 0 185<188 384> 131 54<178 270 379 466> 218 55<197 290 420 484> 466 96<181 205 528 618>
DStem: 183 466 299 466 276 273 363 337 482 466 598 466 363 337 420 273
Fore
363 337 m 1x58
 482 466 l 1
 462 472 453 484 453 503 c 0
 453 519 461 536 474 549 c 1
 489 560 499 562 528 562 c 2
 616 562 l 2
 637 562 640 562 650 558 c 0
 663 554 671 539 671 523 c 0
 671 508 663 491 649 480 c 0
 636 468 624 466 598 466 c 1
 598 466 l 1
 420 273 l 1
 491 273 l 2
 508 273 516 267 516 250 c 0
 516 232 501 218 480 218 c 2
 386 218 l 1
 379 185 l 1x58
 473 185 l 2
 491 185 499 178 499 164 c 0
 499 144 484 131 461 131 c 2
 367 131 l 1
 361 97 l 1
 404 97 l 2
 427 97 430 97 439 93 c 0
 451 88 460 74 460 59 c 0
 460 43 451 26 437 15 c 0
 425 4 412 0 384 0 c 2
 198 0 l 2
 158 0 143 11 143 39 c 0
 143 54 152 71 164 84 c 1
 178 95 188 97 218 97 c 2
 264 97 l 1
 270 131 l 1
 177 131 l 2xb8
 158 131 152 136 152 152 c 0
 152 171 166 185 188 185 c 2
 282 185 l 1
 290 218 l 1
 195 218 l 2
 177 218 170 224 170 240 c 0
 170 259 185 273 208 273 c 2
 276 273 l 1
 183 466 l 1
 175 466 l 2
 146 466 129 479 129 503 c 0
 129 519 138 536 152 549 c 1
 166 560 172 562 205 562 c 2
 294 562 l 2
 315 562 319 562 329 558 c 0
 340 554 349 539 349 524 c 0
 349 497 329 472 299 466 c 1
 363 337 l 1x58
EndSplineSet
EndChar
StartChar: florin
Encoding: 166 402 101
Width: 579
Flags: W
HStem: -119 97<146 167> 294 97<251 309 427 482> 521 97<525 549>
DStem: 309 294 406 294 260 64 356 64
Fore
427 391 m 1
 482 391 l 2
 503 391 508 391 515 388 c 0
 529 384 538 369 538 353 c 0
 538 337 529 319 515 309 c 0
 501 298 490 294 461 294 c 2
 406 294 l 1
 356 64 l 1
 334 -40 244 -119 146 -119 c 0
 82 -119 40 -99 40 -68 c 0
 40 -38 71 -8 101 -8 c 0
 105 -8 109 -9 121 -15 c 1
 136 -19 150 -22 167 -22 c 0
 210 -22 249 12 260 64 c 2
 309 294 l 1
 253 294 l 2
 213 294 198 306 198 332 c 0
 198 349 208 365 220 378 c 1
 234 389 243 391 274 391 c 2
 329 391 l 1
 341 445 l 1
 361 542 453 618 549 618 c 0
 611 618 651 598 651 569 c 0
 651 538 622 508 593 508 c 0
 587 508 581 508 570 512 c 0
 556 518 542 521 525 521 c 0
 485 521 446 485 437 442 c 1
 427 391 l 1
EndSplineSet
EndChar
StartChar: section
Encoding: 167 167 102
Width: 579
Flags: W
HStem: -164 83<147 288> -164 176<112.113 126> 388 177<404 544> 477 88<382 519>
VStem: 90 97<250 275> 215 84<402 419> 364 86<-20 2> 479 95<122 149>
Fore
519 477 m 1x1f
 380 477 l 2
 339 477 299 450 299 419 c 0
 299 397 329 367 384 332 c 2
 463 282 l 2
 551 226 574 198 574 149 c 0
 574 82 525 26 450 9 c 1
 450 2 l 2
 450 -22 443 -50 430 -71 c 0
 394 -133 337 -164 267 -164 c 2x9f
 43 -164 l 1
 70 -40 l 1
 78 -6 95 12 123 12 c 0x4f
 144 12 159 -2 159 -19 c 0
 159 -24 159 -26 155 -40 c 1
 147 -81 l 1
 288 -81 l 2
 326 -81 364 -50 364 -20 c 0
 364 2 334 33 282 67 c 2
 192 126 l 1
 119 172 90 208 90 250 c 0
 90 315 140 370 216 389 c 1
 215 395 215 398 215 402 c 0
 215 430 236 473 260 502 c 1
 301 546 347 565 404 565 c 2xaf
 623 565 l 1x1f
 598 442 l 1
 589 404 573 388 542 388 c 0x2f
 524 388 508 402 508 418 c 0
 508 423 508 435 512 442 c 1
 519 477 l 1x1f
253 316 m 1
 250 316 l 1
 240 316 l 2
 210 315 187 298 187 275 c 0
 187 252 208 229 254 198 c 1
 341 143 l 1
 386 110 398 100 412 86 c 1
 419 86 l 1
 429 86 l 2
 457 86 479 102 479 122 c 0
 479 146 451 175 404 208 c 1
 319 263 l 2
 291 281 282 288 253 316 c 1
EndSplineSet
EndChar
StartChar: currency
Encoding: 168 164 103
Width: 579
Flags: W
HStem: 94 97<310 332> 376 97<369 391>
VStem: 158 99<250 266> 445 98<301 316>
Fore
208 376 m 1
 182 407 l 2
 175 415 166 440 166 446 c 0
 166 474 198 503 226 503 c 0
 243 503 249 499 267 477 c 2
 291 448 l 1
 332 466 356 473 391 473 c 0
 427 473 448 467 480 446 c 1
 515 477 l 1
 542 497 550 501 567 501 c 0
 590 501 606 484 606 461 c 0
 606 442 598 430 570 407 c 2
 534 376 l 1
 541 352 543 330 543 316 c 0
 543 277 525 232 494 191 c 1
 518 156 l 1
 532 140 536 132 536 120 c 0
 536 92 503 62 473 62 c 0
 457 62 450 67 434 87 c 2
 408 119 l 1
 368 100 345 94 310 94 c 0
 276 94 254 100 222 119 c 1
 185 88 l 1
 156 66 150 62 133 62 c 0
 110 62 93 78 93 102 c 0
 93 121 101 133 129 156 c 2
 169 191 l 1
 161 214 158 236 158 250 c 0
 158 288 175 332 208 376 c 1
370 376 m 0
 312 376 257 322 257 264 c 0
 257 224 290 191 330 191 c 0
 388 191 445 246 445 303 c 0
 445 346 414 376 370 376 c 0
EndSplineSet
EndChar
StartChar: quotesingle
Encoding: 169 39 104
Width: 579
Flags: W
HStem: 563 20G<353 477>
Fore
353 583 m 1
 477 583 l 1
 394 337 l 1
 386 312 375 302 356 302 c 0
 342 302 332 312 332 325 c 2
 332 336 l 1
 353 583 l 1
EndSplineSet
EndChar
StartChar: quotedblleft
Encoding: 170 8220 105
Width: 579
Flags: W
HStem: 563 20G<219 347 412 541>
Fore
541 583 m 1
 565 381 l 1
 565 375 l 2
 565 353 549 337 528 337 c 0
 515 337 508 343 502 361 c 1
 412 583 l 1
 541 583 l 1
347 583 m 1
 371 381 l 1
 371 375 l 2
 371 353 356 337 334 337 c 0
 322 337 316 343 308 361 c 1
 219 583 l 1
 347 583 l 1
EndSplineSet
KernsSLIF: 89 -61 1 0 87 -19 1 0 86 -24 1 0 84 -34 1 0 262 -82 1 0 256 -82 1 0 257 -82 1 0 225 -80 1 0 65 -82 1 0
EndChar
StartChar: guillemotleft
Encoding: 171 171 106
Width: 579
Flags: W
Fore
215 211 m 1
 332 74 l 1
 339 68 343 57 343 53 c 0
 343 37 324 19 304 19 c 0
 295 19 291 22 280 32 c 2
 78 211 l 1
 356 389 l 1
 371 400 378 402 386 402 c 0
 401 402 412 392 412 379 c 0
 412 368 406 358 391 347 c 2
 215 211 l 1
437 211 m 1
 554 74 l 1
 561 67 565 59 565 51 c 0
 565 37 546 19 525 19 c 0
 518 19 513 22 502 32 c 2
 299 211 l 1
 577 389 l 2
 594 400 598 402 608 402 c 0
 623 402 634 392 634 379 c 0
 634 368 628 358 612 347 c 1
 437 211 l 1
EndSplineSet
EndChar
StartChar: guilsinglleft
Encoding: 172 8249 107
Width: 579
Flags: W
Fore
215 211 m 1
 332 74 l 1
 339 67 343 59 343 53 c 0
 343 37 324 19 304 19 c 0
 295 19 291 22 280 32 c 2
 78 211 l 1
 356 389 l 1
 371 400 378 402 386 402 c 0
 401 402 412 392 412 379 c 0
 412 368 406 358 391 347 c 2
 215 211 l 1
EndSplineSet
EndChar
StartChar: guilsinglright
Encoding: 173 8250 108
Width: 579
Flags: W
Fore
461 210 m 1
 345 347 l 2
 337 356 332 363 332 368 c 0
 332 384 353 402 371 402 c 0
 381 402 384 400 396 389 c 2
 598 210 l 1
 321 32 l 2
 304 22 299 19 291 19 c 0
 275 19 264 29 264 43 c 0
 264 53 270 64 286 74 c 1
 461 210 l 1
EndSplineSet
KernsSLIF: 89 -120 1 0 87 -43 1 0 86 -100 1 0 84 -100 1 0 262 -51 1 0 256 -51 1 0 257 -51 1 0 225 -49 1 0 65 -51 1 0
EndChar
StartChar: fi
Encoding: 174 64257 109
Width: 579
Flags: W
HStem: 0 97<49 113 210 241 363 425 522 541> 326 97<123 162 279 474> 503 101<517 575>
DStem: 162 326 259 326 113 97 210 97 474 326 591 423 425 97 522 97
Fore
604 566 m 1
 600 539 l 1
 595 512 589 503 562 503 c 2
 518 503 l 2
 490 503 482 512 485 538 c 1
 489 567 l 1
 492 591 503 604 529 604 c 2
 573 604 l 2
 604 604 611 594 604 566 c 1
591 423 m 1
 522 97 l 1
 557 97 l 2
 577 97 582 97 590 93 c 1
 604 89 611 74 611 59 c 0
 611 43 604 26 589 15 c 1
 577 4 563 0 536 0 c 2
 367 0 l 2
 329 0 312 12 312 39 c 0
 312 54 321 71 334 82 c 0
 349 95 357 97 388 97 c 2
 425 97 l 1
 474 326 l 1
 259 326 l 1
 210 97 l 1
 241 97 l 2
 260 97 267 97 275 93 c 0
 288 89 296 74 296 59 c 0
 296 43 288 26 274 15 c 0
 260 4 248 0 221 0 c 2
 51 0 l 2
 12 0 -4 12 -4 39 c 0
 -4 54 5 71 19 82 c 1
 33 95 40 97 71 97 c 2
 113 97 l 1
 162 326 l 1
 125 326 l 2
 107 326 99 329 90 330 c 1
 78 335 70 349 70 365 c 0
 70 381 78 398 92 411 c 1
 105 420 115 423 146 423 c 2
 182 423 l 1
 191 461 l 1
 208 542 279 604 356 604 c 0
 415 604 457 582 457 552 c 0
 457 521 428 492 398 492 c 0
 391 492 387 492 371 499 c 0
 356 505 345 508 335 508 c 0
 315 508 293 487 288 461 c 1
 279 423 l 1
 591 423 l 1
EndSplineSet
Ligature: 0 0 'liga' f i
EndChar
StartChar: fl
Encoding: 175 64258 110
Width: 579
Flags: W
HStem: 0 97<45 109 208 237 359 420 518 553> 326 97<119 158 275 309> 507 97<332 349 487 508>
DStem: 158 326 255 326 109 97 208 97 508 507 624 604 420 97 518 97
Fore
255 326 m 1
 208 97 l 1
 237 97 l 2
 257 97 264 97 271 93 c 1
 283 89 293 74 293 57 c 0
 293 43 283 26 270 15 c 0
 257 4 244 0 218 0 c 2
 47 0 l 2
 8 0 -8 11 -8 39 c 0
 -8 54 1 71 15 82 c 1
 29 95 37 97 68 97 c 2
 109 97 l 1
 158 326 l 1
 122 326 l 2
 104 326 97 329 88 330 c 1
 76 335 66 349 66 365 c 0
 66 381 74 398 89 409 c 0
 102 420 112 423 143 423 c 2
 178 423 l 1
 186 460 l 2
 203 541 275 604 349 604 c 0
 386 604 422 593 446 577 c 1
 460 598 474 604 499 604 c 2
 624 604 l 1
 518 97 l 1
 554 97 l 2
 574 97 580 97 587 93 c 1
 600 89 609 74 609 59 c 0
 609 43 601 26 587 15 c 0
 574 4 560 0 533 0 c 2
 363 0 l 2
 324 0 307 12 307 39 c 0
 307 54 316 71 329 82 c 0
 345 95 353 97 384 97 c 2
 420 97 l 1
 508 507 l 1
 474 507 l 2
 460 507 453 508 443 518 c 1
 428 501 414 492 397 492 c 0
 391 492 381 494 371 499 c 1
 349 505 342 507 332 507 c 0
 308 507 290 488 283 460 c 1
 275 423 l 1
 307 423 l 2
 326 423 332 422 341 419 c 0
 353 415 363 400 363 386 c 0
 363 369 353 353 340 341 c 0
 326 329 316 326 287 326 c 2
 255 326 l 1
EndSplineSet
Ligature: 0 0 'liga' f l
EndChar
StartChar: endash
Encoding: 177 8211 111
Width: 579
Flags: W
HStem: 222 97<151 546>
Fore
524 222 m 2
 153 222 l 2
 113 222 98 232 98 260 c 0
 98 276 107 293 120 304 c 0
 136 316 143 319 172 319 c 2
 544 319 l 2
 563 319 570 318 578 315 c 0
 590 312 600 295 600 281 c 0
 600 264 591 248 577 236 c 0
 565 225 552 222 524 222 c 2
EndSplineSet
EndChar
StartChar: dagger
Encoding: 178 8224 112
Width: 579
Flags: W
HStem: 326 97<222 312 429 517> 584 20G<410.5 429.5>
DStem: 312 326 408 326 236 -24 332 -24 356 539 453 539 332 423 429 423
Fore
408 326 m 1
 332 -24 l 1
 329 -51 325 -59 315 -70 c 1
 303 -81 287 -89 271 -89 c 0
 250 -89 232 -74 232 -53 c 0
 232 -47 234 -40 236 -24 c 1
 312 326 l 1
 224 326 l 2
 208 326 198 329 191 330 c 0
 178 334 170 349 170 365 c 0
 170 381 178 397 192 409 c 1
 208 420 215 423 244 423 c 2
 332 423 l 1
 356 539 l 1
 361 565 365 574 375 583 c 0
 388 595 403 604 418 604 c 0
 441 604 457 587 457 566 c 0
 457 558 456 554 453 539 c 2
 429 423 l 1
 515 423 l 2
 535 423 541 422 549 419 c 0
 562 415 570 400 570 384 c 0
 570 369 562 353 549 341 c 0
 534 329 524 326 494 326 c 2
 408 326 l 1
EndSplineSet
EndChar
StartChar: daggerdbl
Encoding: 179 8225 113
Width: 579
Flags: W
HStem: 90 97<170 260 379 468> 326 97<222 312 428 517> 584 20G<410.5 429.5>
DStem: 260 90 357 90 236 -24 332 -24 312 326 408 326 282 187 379 187 356 539 453 539 332 423 428 423
Fore
408 326 m 1
 379 187 l 1
 466 187 l 2
 482 187 491 186 499 183 c 0
 511 178 519 164 519 148 c 0
 519 133 512 115 499 104 c 0
 484 93 474 90 445 90 c 2
 357 90 l 1
 332 -24 l 1
 329 -51 325 -59 315 -70 c 1
 303 -81 287 -89 271 -89 c 0
 250 -89 232 -74 232 -53 c 0
 232 -47 234 -39 236 -24 c 1
 260 90 l 1
 172 90 l 2
 154 90 148 90 140 94 c 0
 128 98 119 113 119 129 c 0
 119 144 128 161 141 172 c 0
 155 185 166 187 194 187 c 2
 282 187 l 1
 312 326 l 1
 224 326 l 2
 208 326 198 329 191 330 c 0
 178 334 170 349 170 365 c 0
 170 381 178 397 192 409 c 0
 205 420 215 423 244 423 c 2
 332 423 l 1
 356 539 l 1
 361 565 365 574 375 583 c 0
 388 595 403 604 418 604 c 0
 441 604 457 587 457 566 c 0
 457 558 456 554 453 539 c 2
 428 423 l 1
 515 423 l 2
 535 423 541 422 549 419 c 0
 562 415 570 400 570 384 c 0
 570 369 562 353 549 341 c 0
 534 329 524 326 494 326 c 2
 408 326 l 1
EndSplineSet
EndChar
StartChar: periodcentered
Encoding: 180 183 114
Width: 579
Flags: W
Fore
343 208 m 2
 326 208 l 2
 295 208 274 228 274 259 c 0
 274 298 313 335 353 335 c 2
 370 335 l 2
 401 335 422 314 422 285 c 0
 422 244 384 208 343 208 c 2
EndSplineSet
EndChar
StartChar: paragraph
Encoding: 182 182 115
Width: 579
Flags: W
HStem: -169 76<147 242 433 474> 489 76<415 484 415 608>
VStem: 119 110<324 338>
DStem: 299 178 441 489 241 -93 316 -93 364 484 441 489 316 257 316 -93 484 489 557 489 360 -93 433 -93
Fore
557 489 m 1
 433 -93 l 1
 469 -93 l 2
 501 -93 512 -101 512 -123 c 0
 512 -139 503 -154 487 -162 c 1
 480 -169 472 -169 453 -169 c 2
 363 -169 l 2
 342 -169 334 -160 330 -136 c 1
 313 -164 306 -169 282 -169 c 2
 149 -169 l 2
 117 -169 105 -160 105 -139 c 0
 105 -123 115 -107 131 -99 c 0
 140 -94 146 -93 166 -93 c 2
 241 -93 l 1
 299 178 l 1
 191 191 119 248 119 324 c 0
 119 334 120 342 122 349 c 1
 131 394 l 1
 152 488 277 565 415 565 c 2
 606 565 l 2
 639 565 651 556 651 535 c 0
 651 519 640 503 624 495 c 1
 617 490 611 489 591 489 c 2
 557 489 l 1
316 257 m 1
 364 484 l 1
 299 473 249 435 240 392 c 1
 232 349 l 1
 231 345 229 340 229 336 c 0
 229 298 260 270 316 257 c 1
484 489 m 1
 441 489 l 1
 316 -93 l 1
 329 -99 332 -105 332 -120 c 1
 341 -105 348 -99 360 -93 c 1
 484 489 l 1
EndSplineSet
EndChar
StartChar: bullet
Encoding: 183 8226 116
Width: 579
Flags: W
HStem: 419 20G<336 417>
Fore
381 439 m 0
 453 439 501 391 501 324 c 0
 501 234 414 149 321 149 c 0
 253 149 205 198 205 264 c 0
 205 353 291 439 381 439 c 0
EndSplineSet
EndChar
StartChar: quotesinglbase
Encoding: 184 8218 117
Width: 579
Flags: W
Fore
239 129 m 1
 367 129 l 1
 175 -129 l 1
 164 -146 152 -153 140 -153 c 0
 126 -153 115 -143 115 -132 c 0
 115 -125 115 -121 122 -107 c 2
 239 129 l 1
EndSplineSet
EndChar
StartChar: quotedblbase
Encoding: 185 8222 118
Width: 579
Flags: W
Fore
180 129 m 1
 309 129 l 1
 125 -93 l 1
 110 -110 101 -116 88 -116 c 0
 76 -116 64 -107 64 -95 c 0
 64 -89 67 -81 71 -71 c 1
 180 129 l 1
375 129 m 1
 503 129 l 1
 319 -93 l 1
 304 -110 295 -116 282 -116 c 0
 270 -116 257 -107 257 -95 c 0
 257 -89 260 -81 265 -71 c 2
 375 129 l 1
EndSplineSet
KernsSLIF: 89 -100 1 0 87 -58 1 0 86 -135 1 0 84 -114 1 0 225 -14 1 0 65 -11 1 0
EndChar
StartChar: quotedblright
Encoding: 186 8221 119
Width: 579
Flags: W
HStem: 563 20G<277 406 472 600>
Fore
277 583 m 1
 406 583 l 1
 222 361 l 1
 208 343 198 337 185 337 c 0
 172 337 161 347 161 358 c 0
 161 364 164 374 169 381 c 1
 277 583 l 1
472 583 m 1
 600 583 l 1
 415 361 l 1
 401 343 392 337 379 337 c 0
 365 337 356 347 356 358 c 0
 356 364 357 374 363 381 c 1
 472 583 l 1
EndSplineSet
KernsSLIF: 89 -70 1 0 87 -37 1 0 86 -43 1 0 84 -55 1 0 262 -100 1 0 256 -100 1 0 257 -100 1 0 225 -99 1 0 65 -100 1 0
EndChar
StartChar: guillemotright
Encoding: 187 187 120
Width: 579
Flags: W
Fore
461 210 m 1
 345 347 l 1
 337 353 332 363 332 368 c 0
 332 384 353 402 371 402 c 0
 381 402 384 400 396 389 c 2
 598 210 l 1
 321 32 l 2
 304 22 299 19 291 19 c 0
 275 19 264 29 264 43 c 0
 264 53 270 64 286 74 c 1
 461 210 l 1
239 210 m 1
 121 347 l 1
 115 356 110 363 110 369 c 0
 110 384 129 402 149 402 c 0
 158 402 162 400 172 389 c 1
 375 210 l 1
 98 32 l 2
 81 22 77 19 68 19 c 0
 51 19 40 29 40 43 c 0
 40 53 47 64 64 74 c 1
 239 210 l 1
EndSplineSet
KernsSLIF: 89 -120 1 0 87 -43 1 0 86 -100 1 0 84 -100 1 0 262 -51 1 0 256 -51 1 0 257 -51 1 0 225 -49 1 0 65 -51 1 0
EndChar
StartChar: ellipsis
Encoding: 188 8230 121
Width: 579
Flags: W
HStem: -15 21G<86 102 279 295 473 489>
VStem: 33 148<37 64> 226 149<37 64> 420 149<37 64>
Fore
102 -15 m 2
 86 -15 l 2
 54 -15 33 7 33 37 c 0
 33 76 71 113 113 113 c 2
 129 113 l 2
 160 113 181 92 181 64 c 0
 181 23 143 -15 102 -15 c 2
295 -15 m 2
 279 -15 l 2
 248 -15 226 7 226 37 c 0
 226 76 265 113 306 113 c 2
 322 113 l 2
 353 113 375 92 375 64 c 0
 375 23 336 -15 295 -15 c 2
489 -15 m 2
 473 -15 l 2
 442 -15 420 7 420 37 c 0
 420 76 460 113 500 113 c 2
 516 113 l 2
 549 113 569 92 569 64 c 0
 569 23 530 -15 489 -15 c 2
EndSplineSet
Ligature: 0 1 'liga' period period period
EndChar
StartChar: perthousand
Encoding: 189 8240 122
Width: 579
Flags: W
HStem: 0 56<208 220 468 482> 169 56<239 255 500 516> 374 56<191 204> 542 56<226 240>
VStem: 101 57<463 476> 116 56<89 103> 273 57<495 508> 290 56<121 136> 378 57<89 103> 550 58<121 136>
DStem: 525 422 532 365 148 309 154 250
Fore
532 365 m 2xf0c0
 154 250 l 2
 141 247 140 247 133 247 c 0
 122 247 113 257 113 273 c 0
 113 291 123 301 148 309 c 2
 525 422 l 1
 538 427 539 427 546 427 c 0
 557 427 567 415 567 402 c 0
 567 384 556 373 532 365 c 2xf0c0
240 598 m 0
 293 598 330 562 330 508 c 0
 330 440 263 374 191 374 c 0
 139 374 101 412 101 463 c 0xfac0
 101 533 169 598 240 598 c 0
228 542 m 0
 192 542 158 508 158 474 c 0
 158 450 177 430 202 430 c 0
 240 430 273 463 273 499 c 0
 273 524 254 542 228 542 c 0
255 225 m 0
 308 225 346 188 346 136 c 0
 346 65 277 0 208 0 c 0
 154 0 116 38 116 89 c 0xf5c0
 116 159 185 225 255 225 c 0
243 169 m 0
 208 169 172 136 172 101 c 0
 172 76 193 56 218 56 c 0
 255 56 290 89 290 123 c 0
 290 150 270 169 243 169 c 0
516 225 m 0
 570 225 608 188 608 136 c 0
 608 65 539 0 468 0 c 0
 415 0 378 38 378 89 c 0
 378 159 446 225 516 225 c 0
505 169 m 0
 469 169 435 136 435 101 c 0
 435 76 453 56 480 56 c 0
 516 56 550 89 550 123 c 0
 550 150 532 169 505 169 c 0
EndSplineSet
EndChar
StartChar: questiondown
Encoding: 191 191 123
Width: 579
Flags: W
HStem: -220 97<234 261> 246 128<347 360>
VStem: 68 99<-77 -55> 280 148<296 322>
Fore
462 -86 m 1
 446 -162 l 1
 340 -208 298 -220 234 -220 c 0
 131 -220 68 -166 68 -77 c 0
 68 -24 90 27 127 60 c 0
 161 89 202 112 268 139 c 1
 280 172 299 191 329 191 c 0
 350 191 367 174 367 154 c 0
 367 146 367 146 363 127 c 2
 352 73 l 1
 208 22 167 -6 167 -55 c 0
 167 -98 198 -123 255 -123 c 0
 291 -123 329 -115 363 -100 c 1
 365 -86 l 1
 371 -59 374 -51 384 -40 c 1
 395 -31 412 -22 427 -22 c 0
 450 -22 466 -38 466 -57 c 0
 466 -65 466 -74 462 -86 c 1
358 374 m 2
 376 374 l 2
 407 374 428 353 428 322 c 0
 428 283 389 246 349 246 c 2
 332 246 l 2
 301 246 280 267 280 296 c 0
 280 336 318 374 358 374 c 2
EndSplineSet
EndChar
StartChar: grave
Encoding: 193 96 124
Width: 579
Flags: W
DStem: 271 604 329 659 378 496 434 551
Fore
329 659 m 1
 434 551 l 1
 445 542 450 532 450 523 c 0
 450 501 427 480 404 480 c 0
 396 480 389 484 378 496 c 2
 271 604 l 1
 260 613 257 624 257 632 c 0
 257 654 277 675 299 675 c 0
 310 675 316 671 329 659 c 1
EndSplineSet
EndChar
StartChar: acute
Encoding: 194 180 125
Width: 579
Flags: W
DStem: 534 659 567 604 381 551 414 496
Fore
567 604 m 1
 414 496 l 2
 396 484 389 480 380 480 c 0
 363 480 350 492 350 508 c 0
 350 524 361 536 381 551 c 2
 534 659 l 2
 551 671 557 675 567 675 c 0
 585 675 598 663 598 646 c 0
 598 632 588 620 567 604 c 1
EndSplineSet
Ligature: 0 1 'liga' space acutecomb
EndChar
StartChar: circumflex
Encoding: 195 710 126
Width: 579
Flags: W
DStem: 417 588 435 675 505 494 555 549 435 675 417 588 260 549 287 494
Fore
417 588 m 1
 287 494 l 2
 274 485 265 482 257 482 c 0
 241 482 229 492 229 508 c 0
 229 525 234 532 260 549 c 1
 435 675 l 1
 555 549 l 2
 570 534 572 533 572 523 c 0
 572 502 551 482 530 482 c 0
 521 482 513 485 505 494 c 2
 417 588 l 1
EndSplineSet
EndChar
StartChar: tilde
Encoding: 196 732 127
Width: 579
Flags: W
HStem: 616 20G<339.5 364 568 580.5>
Fore
574 636 m 0
 587 636 600 624 600 613 c 0
 600 601 591 587 572 566 c 0
 532 523 503 507 472 507 c 0
 450 507 420 521 384 549 c 0
 363 565 356 569 341 569 c 0
 324 569 315 562 277 524 c 1
 268 513 260 508 250 508 c 0
 236 508 226 519 226 532 c 0
 226 549 239 567 264 591 c 0
 294 620 326 636 353 636 c 0
 375 636 391 628 433 598 c 1
 461 580 473 574 484 574 c 0
 499 574 503 577 530 606 c 0
 549 626 562 636 574 636 c 0
EndSplineSet
Ligature: 0 1 'liga' space tildecomb
EndChar
StartChar: macron
Encoding: 197 175 128
Width: 579
Flags: W
HStem: 529 77<286 530>
Fore
301 606 m 2
 538 606 l 2
 570 606 581 598 581 574 c 0
 581 549 556 529 521 529 c 2
 285 529 l 2
 253 529 241 536 241 561 c 0
 241 588 265 606 301 606 c 2
EndSplineSet
Ligature: 0 1 'liga' space uni0304
EndChar
StartChar: breve
Encoding: 198 728 129
Width: 579
Flags: W
HStem: 487 67<392 414>
VStem: 253 66<611 629>
Fore
296 666 m 0
 314 666 321 656 319 629 c 1
 319 583 353 554 408 554 c 0
 461 554 508 582 527 627 c 0
 541 657 549 666 569 666 c 0
 585 666 595 656 595 639 c 0
 595 620 581 590 560 566 c 0
 518 516 456 487 394 487 c 0
 314 487 253 541 253 611 c 0
 253 643 270 666 296 666 c 0
EndSplineSet
Ligature: 0 1 'liga' space uni0306
EndChar
StartChar: dotaccent
Encoding: 199 729 130
Width: 579
Flags: W
HStem: 614 20G<406.5 439>
Fore
425 634 m 0
 453 634 473 613 473 587 c 0
 473 551 437 518 400 518 c 0
 374 518 353 538 353 565 c 0
 353 600 388 634 425 634 c 0
EndSplineSet
Ligature: 0 1 'liga' space uni0307
EndChar
StartChar: dieresis
Encoding: 200 168 131
Width: 579
Flags: W
HStem: 614 20G<307.5 339 507.5 539.5>
VStem: 253 118<565 587> 453 121<565 587>
Fore
325 634 m 0
 353 634 371 613 371 587 c 0
 371 551 337 518 299 518 c 0
 273 518 253 538 253 565 c 0
 253 598 290 634 325 634 c 0
525 634 m 0
 554 634 574 613 574 587 c 0
 574 551 539 518 501 518 c 0
 474 518 453 538 453 565 c 0
 453 598 490 634 525 634 c 0
EndSplineSet
Ligature: 0 1 'liga' space uni0308
EndChar
StartChar: ring
Encoding: 202 730 132
Width: 579
Flags: W
HStem: 470 53<389 403> 653 51<426 439>
VStem: 294 52<566 579> 484 52<596 609>
Fore
439 704 m 0
 496 704 536 666 536 609 c 0
 536 539 464 470 389 470 c 0
 334 470 294 511 294 566 c 0
 294 636 365 704 439 704 c 0
428 653 m 0
 388 653 346 615 346 577 c 0
 346 546 369 523 401 523 c 0
 443 523 484 561 484 598 c 0
 484 629 461 653 428 653 c 0
EndSplineSet
Ligature: 0 1 'liga' space uni030A
EndChar
StartChar: cedilla
Encoding: 203 184 133
Width: 579
Flags: W
HStem: -222 68<243 259> -20 20G<254 322>
VStem: 299 70<-123 -105>
Fore
254 0 m 1
 322 0 l 1
 313 -40 l 1
 353 -48 369 -66 369 -105 c 0
 369 -170 313 -222 243 -222 c 0
 218 -222 178 -211 159 -198 c 1
 146 -191 139 -181 139 -169 c 0
 139 -147 159 -127 181 -127 c 0
 189 -127 191 -128 208 -138 c 0
 222 -147 242 -154 259 -154 c 0
 283 -154 299 -143 299 -123 c 0
 299 -107 283 -97 255 -97 c 0
 249 -97 244 -97 232 -99 c 1
 254 0 l 1
EndSplineSet
Ligature: 0 1 'liga' space uni0327
EndChar
StartChar: hungarumlaut
Encoding: 205 733 134
Width: 579
Flags: W
DStem: 380 657 411 604 259 551 290 496 539 657 569 604 418 551 448 496
Fore
411 604 m 1
 290 496 l 1
 277 487 265 480 257 480 c 0
 242 480 229 494 229 508 c 0
 229 524 232 528 259 551 c 2
 380 657 l 2
 392 667 401 673 412 673 c 0
 427 673 437 660 437 644 c 0
 437 629 435 624 411 604 c 1
569 604 m 1
 448 496 l 2
 437 487 425 480 415 480 c 0
 401 480 388 494 388 508 c 0
 388 524 391 527 418 551 c 2
 539 657 l 1
 551 670 560 673 570 673 c 0
 585 673 598 660 598 644 c 0
 598 629 593 624 569 604 c 1
EndSplineSet
Ligature: 0 1 'liga' space uni030B
EndChar
StartChar: ogonek
Encoding: 206 731 135
Width: 579
Flags: W
HStem: -202 74<290 312> -20 20G<319 414>
VStem: 215 79<-138 -113>
Fore
319 0 m 1
 414 0 l 1
 349 -39 326 -55 308 -81 c 0
 298 -94 294 -105 294 -113 c 0
 294 -123 299 -128 312 -128 c 0
 325 -128 336 -123 365 -110 c 0
 378 -105 381 -105 389 -105 c 0
 407 -105 419 -116 419 -133 c 0
 419 -148 411 -164 396 -172 c 0
 369 -189 325 -202 290 -202 c 0
 243 -202 215 -177 215 -138 c 0
 215 -84 248 -40 319 0 c 1
EndSplineSet
Ligature: 0 1 'liga' space uni0328
EndChar
StartChar: caron
Encoding: 207 711 136
Width: 579
Flags: W
DStem: 273 605 322 660 394 482 412 567 541 660 567 605 412 567 394 482
Fore
412 567 m 1
 541 660 l 2
 554 670 562 675 570 675 c 0
 587 675 598 663 598 646 c 0
 598 634 591 623 577 612 c 2
 567 605 l 1
 394 482 l 1
 273 605 l 2
 257 622 257 623 257 632 c 0
 257 654 276 675 298 675 c 0
 307 675 312 671 322 660 c 2
 412 567 l 1
EndSplineSet
EndChar
StartChar: emdash
Encoding: 208 8212 137
Width: 579
Flags: W
HStem: 222 97<82 615>
Fore
593 222 m 2
 84 222 l 2
 45 222 29 232 29 260 c 0
 29 276 38 293 51 304 c 0
 66 316 74 319 105 319 c 2
 613 319 l 2
 629 319 639 318 646 315 c 0
 659 312 670 295 670 281 c 0
 670 264 660 248 646 236 c 0
 632 225 621 222 593 222 c 2
EndSplineSet
EndChar
StartChar: AE
Encoding: 225 198 138
Width: 579
Flags: W
HStem: 0 97<44 74 261 595> 0 183<575 595> 181 203<461 505> 468 97<246 270 270 577>
VStem: -9 214<39 64>
DStem: 263 468 356 456 73 97 250 250 356 456 456 468 312 250 427 332
Fore
73 97 m 1x98
 263 468 l 1
 249 468 l 2
 209 468 195 479 195 507 c 0
 195 522 203 539 218 551 c 0
 232 563 240 565 270 565 c 2
 694 565 l 1
 660 404 l 1
 655 379 653 371 642 361 c 0
 629 349 613 341 598 341 c 0
 577 341 560 357 560 378 c 0
 560 384 561 392 565 404 c 1
 577 468 l 1
 456 468 l 1
 427 332 l 1
 445 332 l 1
 453 365 477 384 505 384 c 0
 525 384 543 368 543 349 c 0
 543 341 543 340 539 321 c 2
 523 244 l 2
 518 219 515 211 505 202 c 0
 492 189 477 181 461 181 c 0
 439 181 422 198 422 218 c 0
 422 222 422 226 425 236 c 1
 406 236 l 1
 378 97 l 1
 518 97 l 1xb8
 523 119 l 2
 529 144 533 153 542 162 c 0
 554 175 570 183 585 183 c 0x58
 608 183 624 169 624 146 c 0
 624 139 624 138 620 119 c 2
 595 0 l 1x98
 257 0 l 2x58
 228 0 211 15 211 40 c 0
 211 70 240 97 271 97 c 2
 280 97 l 1
 291 153 l 1
 202 153 l 1
 172 97 l 1x98
 194 94 205 82 205 64 c 0
 205 26 177 0 136 0 c 2x58
 46 0 l 2
 6 0 -9 12 -9 39 c 0
 -9 54 -1 71 12 82 c 0
 27 95 35 97 66 97 c 2
 73 97 l 1x98
312 250 m 1
 356 456 l 1
 250 250 l 1
 312 250 l 1
EndSplineSet
EndChar
StartChar: ordfeminine
Encoding: 227 170 139
Width: 579
Flags: W
HStem: 177 73<206 473> 264 77<295 318> 275 75<484 497> 404 68<363 389> 501 76<385 409>
VStem: 189 90<343 358>
Fore
402 275 m 1xbc
 404 286 l 1
 363 270 332 264 295 264 c 0xdc
 234 264 189 298 189 343 c 0
 189 363 198 384 216 406 c 0
 253 450 310 472 384 472 c 0
 403 472 415 470 443 467 c 1
 445 474 l 1
 445 480 l 1
 443 495 429 501 394 501 c 0
 371 501 346 497 316 490 c 0
 303 487 294 485 287 485 c 0
 270 485 257 499 257 515 c 0
 257 532 267 549 283 554 c 1
 306 565 369 577 407 577 c 0
 479 577 522 549 522 499 c 0
 522 488 522 484 519 474 c 1
 492 350 l 1
 500 350 l 2
 532 350 542 343 542 321 c 0
 542 294 519 275 484 275 c 2
 402 275 l 1xbc
422 371 m 1
 428 397 l 1
 397 403 384 404 365 404 c 0
 322 404 279 381 279 358 c 0
 279 349 295 341 316 341 c 0
 348 341 391 353 422 371 c 1
456 177 m 2
 208 177 l 2
 172 177 164 180 164 198 c 0
 164 239 178 250 225 250 c 2
 470 250 l 2
 503 250 515 243 515 222 c 0
 515 209 508 197 497 187 c 0
 487 178 479 177 456 177 c 2
EndSplineSet
EndChar
StartChar: Lslash
Encoding: 232 321 140
Width: 579
Flags: W
HStem: 0 97<95 172 270 554> 468 97<192 249 218 425>
DStem: 193 197 298 236 172 97 270 97 250 468 348 468 218 308 322 348
Fore
348 468 m 1
 322 348 l 1
 418 398 l 1
 440 411 450 412 461 412 c 0
 480 412 497 395 497 376 c 0
 497 349 485 334 448 315 c 2
 298 236 l 1
 270 97 l 1
 477 97 l 1
 496 185 l 2
 505 228 525 250 558 250 c 0
 581 250 598 234 598 213 c 0
 598 208 596 202 593 185 c 1
 554 0 l 1
 97 0 l 2
 57 0 40 11 40 39 c 0
 40 54 50 71 64 82 c 1
 78 95 86 97 117 97 c 2
 172 97 l 1
 193 197 l 1
 136 166 l 2
 116 156 102 152 90 152 c 0
 71 152 54 169 54 189 c 0
 54 216 66 231 104 250 c 2
 218 308 l 1
 250 468 l 1
 195 468 l 2
 156 468 140 479 140 507 c 0
 140 522 149 539 162 551 c 0
 177 563 186 565 218 565 c 2
 423 565 l 2
 443 565 450 565 457 561 c 1
 470 557 479 542 479 525 c 0
 479 511 470 492 456 482 c 1
 442 470 431 468 402 468 c 2
 348 468 l 1
EndSplineSet
EndChar
StartChar: Oslash
Encoding: 233 216 141
Width: 579
Flags: W
HStem: -15 99<290 311> 482 96<391 414>
VStem: 73 99<213 238> 529 100<330 355>
DStem: 105 89 160 27 34 19 94 -39 472 456 521 388 185 169 236 104
Fore
160 27 m 1
 94 -39 l 2
 70 -64 61 -68 43 -68 c 0
 20 -68 4 -51 4 -32 c 0
 4 -16 9 -5 34 19 c 2
 105 89 l 1
 82 128 73 166 73 213 c 0
 73 400 240 578 414 578 c 0
 466 578 508 563 549 532 c 1
 604 588 l 1
 629 612 639 618 657 618 c 0
 678 618 694 604 694 581 c 0
 694 565 689 555 666 532 c 2
 601 468 l 1
 620 435 629 396 629 353 c 0
 629 260 591 169 525 99 c 0
 458 29 369 -15 290 -15 c 0
 240 -15 197 0 160 27 c 1
521 388 m 1
 236 104 l 1
 259 90 283 84 309 84 c 0
 420 84 529 205 529 332 c 0
 529 353 527 368 521 388 c 1
185 169 m 1
 472 456 l 1
 450 473 422 482 392 482 c 0
 281 482 172 360 172 236 c 0
 172 210 177 191 185 169 c 1
EndSplineSet
KernsSLIF: 65 -15 0 0
EndChar
StartChar: OE
Encoding: 234 338 142
Width: 579
Flags: W
HStem: 0 97<248 277 375 593> 0 182<575 593> 181 203<458 503> 341 224<371 600> 468 97<352 371 371 577>
VStem: 33 100<213 240>
DStem: 357 468 453 468 277 97 425 332 357 468 404 236 277 97 375 97
Fore
404 236 m 1x2c
 375 97 l 1
 518 97 l 1xac
 522 119 l 1
 527 143 532 153 541 162 c 0
 552 174 569 182 584 182 c 0x44
 605 182 622 167 622 146 c 0
 622 140 621 133 618 119 c 2
 593 0 l 1
 250 0 l 2
 119 0 33 84 33 213 c 0
 33 403 188 565 371 565 c 2x94
 694 565 l 1x0c
 660 404 l 1
 655 379 651 370 642 361 c 0
 629 349 613 341 598 341 c 0x14
 577 341 560 357 560 378 c 0
 560 384 562 394 565 404 c 1
 577 468 l 1
 453 468 l 1
 425 332 l 1
 443 332 l 1
 453 365 474 384 503 384 c 0
 525 384 542 369 542 348 c 0
 542 341 542 339 536 321 c 1
 521 244 l 1
 515 220 512 211 503 202 c 0
 490 189 474 181 458 181 c 0
 437 181 420 198 420 218 c 0
 420 222 420 228 422 236 c 1
 404 236 l 1x2c
277 97 m 1
 357 468 l 1
 298 467 257 453 220 420 c 0
 167 374 133 304 133 240 c 0
 133 177 161 128 208 108 c 0
 226 100 243 97 277 97 c 1
EndSplineSet
EndChar
StartChar: ordmasculine
Encoding: 235 186 143
Width: 579
Flags: W
HStem: 177 73<203 473> 264 76<348 365> 501 76<396 414>
VStem: 211 80<388 405> 470 79<431 450>
Fore
414 577 m 0
 492 577 549 523 549 450 c 0
 549 352 453 264 348 264 c 0
 270 264 211 316 211 388 c 0
 211 482 312 577 414 577 c 0
398 501 m 0
 345 501 291 451 291 403 c 0
 291 368 324 340 363 340 c 0
 418 340 470 384 470 431 c 0
 470 472 440 501 398 501 c 0
453 177 m 2
 205 177 l 2
 175 177 162 185 162 208 c 0
 162 218 170 232 180 240 c 0
 192 249 198 250 222 250 c 2
 469 250 l 2
 500 250 512 243 512 222 c 0
 512 209 505 197 494 187 c 0
 484 178 474 177 453 177 c 2
EndSplineSet
EndChar
StartChar: ae
Encoding: 241 230 144
Width: 579
Flags: W
HStem: -16 97<152 173 423 445> 167 83<404 627> 191 86<232 250> 339 97<273 293 491 515>
VStem: 15 98<102 126> 541 103<269 283>
Fore
627 167 m 1xdc
 384 167 l 1xdc
 388 105 404 81 445 81 c 0
 466 81 484 86 515 98 c 0
 544 109 561 115 574 115 c 0
 594 115 608 99 608 78 c 0
 608 56 598 38 581 24 c 1
 549 4 474 -16 423 -16 c 0
 387 -16 365 -8 335 16 c 1
 324 5 310 -1 295 -1 c 0
 281 -1 271 5 264 16 c 1
 224 -7 192 -16 152 -16 c 0
 65 -16 15 29 15 102 c 0
 15 152 31 189 62 214 c 0
 108 250 188 277 248 277 c 0xbc
 263 277 280 275 306 273 c 1
 309 291 l 1
 310 295 310 299 310 304 c 0
 309 326 294 339 273 339 c 0
 257 339 248 337 181 319 c 0
 172 316 164 315 158 315 c 0
 136 315 121 332 121 353 c 0
 121 379 138 400 164 411 c 1
 195 420 267 436 293 436 c 0
 339 436 368 419 394 381 c 1
 437 419 473 436 515 436 c 0
 590 436 644 371 644 281 c 0
 644 259 640 236 636 211 c 1
 627 167 l 1xdc
274 126 m 1
 286 183 l 1
 264 189 250 191 234 191 c 0xbc
 192 191 143 177 126 159 c 1
 119 150 113 139 113 126 c 0
 113 98 136 81 171 81 c 0
 202 81 226 93 274 126 c 1
404 250 m 1xdc
 539 250 l 1
 541 260 541 267 541 271 c 0
 541 313 522 339 491 339 c 0
 468 339 443 322 427 298 c 0
 418 286 412 273 404 250 c 1xdc
EndSplineSet
KernsSLIF: 121 15 0 0 119 40 0 0 118 29 0 0
EndChar
StartChar: dotlessi
Encoding: 245 305 145
Width: 579
Flags: W
HStem: 0 97<123 265 361 477> 326 97<234 311>
DStem: 312 326 429 423 264 97 361 97
Fore
429 423 m 1
 361 97 l 1
 477 97 l 2
 497 97 503 97 512 93 c 0
 524 89 533 74 533 57 c 0
 533 43 524 26 511 15 c 0
 497 4 484 0 457 0 c 2
 125 0 l 2
 86 0 70 11 70 39 c 0
 70 54 78 71 92 82 c 0
 107 95 115 97 146 97 c 2
 264 97 l 1
 312 326 l 1
 236 326 l 2
 195 326 180 337 180 365 c 0
 180 381 189 398 202 409 c 1
 218 420 226 423 257 423 c 2
 429 423 l 1
EndSplineSet
EndChar
StartChar: lslash
Encoding: 248 322 146
Width: 579
Flags: W
HStem: 0 97<123 265 360 477> 508 96<275 350>
DStem: 293 236 397 274 264 97 360 97 350 508 468 604 316 348 420 387
Fore
468 604 m 1
 420 387 l 1
 460 406 l 1
 482 419 489 420 503 420 c 0
 522 420 539 404 539 381 c 0
 539 356 527 340 490 322 c 2
 397 274 l 1
 360 97 l 1
 477 97 l 2
 497 97 503 97 512 93 c 0
 524 89 533 74 533 59 c 0
 533 43 524 26 511 15 c 0
 497 4 484 0 457 0 c 2
 125 0 l 2
 86 0 70 12 70 39 c 0
 70 54 78 71 92 82 c 0
 107 95 115 97 146 97 c 2
 264 97 l 1
 293 236 l 1
 257 216 l 1
 236 208 225 202 213 202 c 0
 193 202 177 220 177 241 c 0
 177 267 191 283 226 302 c 2
 316 348 l 1
 350 508 l 1
 277 508 l 2
 237 508 222 518 222 546 c 0
 222 562 231 580 244 591 c 1
 259 601 267 604 298 604 c 2
 468 604 l 1
EndSplineSet
EndChar
StartChar: oslash
Encoding: 249 248 147
Width: 579
Flags: W
HStem: -16 97<288 308> 339 97<361 382>
VStem: 81 97<169 188> 491 99<232 252>
DStem: 417 332 480 277 191 140 257 88
Fore
613 389 m 2
 565 348 l 1
 581 319 590 288 590 252 c 0
 590 113 446 -16 288 -16 c 0
 243 -16 205 -6 169 15 c 1
 102 -43 l 1
 81 -64 70 -68 54 -68 c 0
 32 -68 16 -51 16 -31 c 0
 16 -12 24 -1 50 22 c 2
 107 70 l 1
 89 100 81 132 81 169 c 0
 81 307 225 436 380 436 c 0
 423 436 477 423 505 406 c 1
 562 453 l 1
 585 474 595 479 611 479 c 0
 632 479 648 463 648 442 c 0
 648 423 640 411 613 389 c 2
480 277 m 1
 257 88 l 1
 274 84 288 81 306 81 c 0
 404 81 491 152 491 234 c 0
 491 250 488 263 480 277 c 1
191 140 m 1
 417 332 l 1
 397 336 381 339 363 339 c 0
 265 339 178 267 178 186 c 0
 178 171 183 156 191 140 c 1
EndSplineSet
EndChar
StartChar: oe
Encoding: 250 339 148
Width: 579
Flags: W
HStem: -16 97<164 185 420 446> 166 83<404 628> 339 97<240 260 492 515>
VStem: 27 100<147 170> 542 103<255 282>
Fore
628 166 m 1
 384 166 l 1
 384 109 406 81 446 81 c 0
 474 81 487 84 546 108 c 0
 554 112 563 113 572 113 c 0
 591 113 608 97 608 74 c 0
 608 51 596 32 574 20 c 0
 539 1 467 -16 420 -16 c 0
 365 -16 329 8 306 56 c 1
 260 9 211 -16 164 -16 c 0
 84 -16 27 51 27 147 c 0
 27 211 51 282 94 339 c 0
 139 401 198 436 260 436 c 0
 307 436 345 411 370 358 c 1
 415 411 463 436 515 436 c 0
 591 436 645 371 645 282 c 0
 645 259 642 234 637 209 c 2
 628 166 l 1
240 339 m 0
 183 339 127 253 127 170 c 0
 127 115 148 81 185 81 c 0
 240 81 296 167 296 250 c 0
 296 306 275 339 240 339 c 0
542 249 m 1
 542 255 l 2
 542 310 525 339 492 339 c 0
 470 339 446 322 429 296 c 1
 420 285 415 273 404 249 c 1
 542 249 l 1
EndSplineSet
EndChar
StartChar: germandbls
Encoding: 251 223 149
Width: 579
Flags: W
HStem: -16 168<329 358> 0 97<74 113> 507 97<366 388>
VStem: 264 99<71 109> 430 99<454 474> 453 98<185 208>
DStem: 191 463 283 446 113 97 209 97
Fore
113 97 m 1x78
 191 463 l 1
 208 546 290 604 388 604 c 0
 473 604 529 552 529 474 c 0x78
 529 427 513 392 474 353 c 1
 525 318 551 270 551 208 c 0
 551 153 530 95 495 51 c 1
 458 7 414 -16 358 -16 c 0
 299 -16 264 17 264 71 c 0
 264 117 291 152 329 152 c 0
 348 152 363 139 363 121 c 2
 363 109 l 2
 363 90 371 81 387 81 c 0
 420 81 453 133 453 185 c 0xb4
 453 220 435 253 404 273 c 0
 389 283 363 290 332 294 c 0
 299 298 287 308 287 332 c 0
 287 363 312 386 349 389 c 1
 381 394 394 398 411 412 c 1
 422 425 430 440 430 456 c 0
 430 487 407 507 368 507 c 0
 321 507 291 487 283 446 c 1
 209 97 l 1
 232 93 242 81 242 61 c 0
 242 40 229 19 209 7 c 0
 202 2 187 0 166 0 c 2
 76 0 l 2
 37 0 22 11 22 39 c 0
 22 54 31 71 43 82 c 0
 57 94 67 97 97 97 c 2
 113 97 l 1x78
EndSplineSet
EndChar
StartChar: Adieresis
Encoding: 256 196 150
Width: 579
Flags: W
HStem: 0 97<43 66 170 195 401 446 538 559> 153 97<264 436> 468 97<232 294> 657 118<313 337 515 539>
VStem: 267 117<704 728> 468 119<704 728>
DStem: 294 468 380 436 66 97 264 250 380 436 463 565 417 250 557 97
Fore
436 153 m 1
 205 153 l 1
 170 97 l 1
 193 97 l 2
 213 97 219 97 226 93 c 1
 240 89 248 74 248 57 c 0
 248 43 240 26 226 15 c 0
 211 2 202 0 172 0 c 2
 45 0 l 2
 5 0 -11 11 -11 39 c 0
 -11 54 -2 71 12 82 c 0
 26 94 35 97 66 97 c 1
 294 468 l 1
 234 468 l 2
 194 468 178 479 178 507 c 0
 178 522 187 539 202 551 c 0
 215 563 224 565 254 565 c 2
 463 565 l 1
 557 97 l 1
 577 97 583 97 591 93 c 0
 604 88 613 74 613 57 c 0
 613 43 604 24 591 15 c 1
 577 2 565 0 538 0 c 2
 403 0 l 2
 364 0 349 11 349 39 c 0
 349 54 357 71 371 82 c 0
 386 95 394 97 425 97 c 2
 446 97 l 1
 436 153 l 1
417 250 m 1
 380 436 l 1
 264 250 l 1
 417 250 l 1
337 775 m 0
 364 775 384 755 384 728 c 0
 384 691 349 657 313 657 c 0
 290 657 267 679 267 704 c 0
 267 739 302 775 337 775 c 0
539 775 m 0
 566 775 587 755 587 728 c 0
 587 691 551 657 515 657 c 0
 490 657 468 679 468 704 c 0
 468 739 503 775 539 775 c 0
EndSplineSet
KernsSLIF: 121 -51 0 0 119 -19 0 0 118 -51 0 0 117 -21 0 0 116 -30 0 0 39 -145 0 0 186 -110 0 0 113 -11 0 0 46 -83 0 0 111 -14 0 0 45 -28 0 0 172 -55 0 0 171 -55 0 0 103 -6 0 0 100 -5 0 0 44 -64 0 0 99 -15 0 0 98 49 0 0 97 10 0 0 89 -42 0 0 87 -25 0 0 86 -78 0 0 85 -41 0 0 84 -43 0 0 81 -30 0 0 79 -30 0 0 71 -24 0 0 67 -29 0 0
Ligature: 0 0 'liga' A uni0308
EndChar
StartChar: Aacute
Encoding: 257 193 151
Width: 579
Flags: W
HStem: 0 97<43 66 170 195 401 446 538 559> 153 97<264 436> 468 97<232 294>
DStem: 294 468 380 436 66 97 264 250 380 436 463 565 417 250 557 97 522 798 555 743 370 690 403 636
Fore
436 153 m 1
 205 153 l 1
 170 97 l 1
 193 97 l 2
 213 97 219 97 226 93 c 1
 240 89 248 74 248 57 c 0
 248 43 240 26 226 15 c 0
 211 2 202 0 172 0 c 2
 45 0 l 2
 5 0 -11 11 -11 39 c 0
 -11 54 -2 71 12 82 c 0
 26 94 35 97 66 97 c 1
 294 468 l 1
 234 468 l 2
 194 468 178 479 178 507 c 0
 178 522 187 539 202 551 c 0
 215 563 224 565 254 565 c 2
 463 565 l 1
 557 97 l 1
 577 97 583 97 591 93 c 0
 604 88 613 74 613 57 c 0
 613 43 604 24 591 15 c 1
 577 2 565 0 538 0 c 2
 403 0 l 2
 364 0 349 11 349 39 c 0
 349 54 357 71 371 82 c 0
 386 95 394 97 425 97 c 2
 446 97 l 1
 436 153 l 1
417 250 m 1
 380 436 l 1
 264 250 l 1
 417 250 l 1
555 743 m 2
 403 636 l 1
 388 624 378 620 369 620 c 0
 353 620 340 632 340 648 c 0
 340 663 349 676 370 690 c 2
 522 798 l 2
 538 809 546 813 557 813 c 0
 574 813 587 800 587 784 c 0
 587 769 578 760 555 743 c 2
EndSplineSet
KernsSLIF: 121 -51 0 0 119 -19 0 0 118 -51 0 0 117 -21 0 0 116 -30 0 0 39 -145 0 0 113 -11 0 0 46 -83 0 0 111 -14 0 0 45 -28 0 0 172 -55 0 0 171 -55 0 0 103 -6 0 0 101 -6 0 0 100 -5 0 0 44 -64 0 0 99 -15 0 0 98 49 0 0 97 10 0 0 89 -42 0 0 87 -25 0 0 86 -78 0 0 85 -41 0 0 84 -43 0 0 81 -30 0 0 79 -30 0 0 71 -24 0 0 67 -29 0 0
Ligature: 0 0 'liga' A acutecomb
EndChar
StartChar: Agrave
Encoding: 258 192 152
Width: 579
Flags: W
HStem: 0 97<43 66 170 195 401 446 538 559> 153 97<264 436> 468 97<232 294>
DStem: 294 468 380 436 66 97 264 250 316 743 373 798 423 636 480 690 380 436 463 565 417 250 557 97
Fore
436 153 m 1
 205 153 l 1
 170 97 l 1
 193 97 l 2
 213 97 219 97 226 93 c 1
 240 89 248 74 248 57 c 0
 248 43 240 26 226 15 c 0
 211 2 202 0 172 0 c 2
 45 0 l 2
 5 0 -11 11 -11 39 c 0
 -11 54 -2 71 12 82 c 0
 26 94 35 97 66 97 c 1
 294 468 l 1
 234 468 l 2
 194 468 178 479 178 507 c 0
 178 522 187 539 202 551 c 0
 215 563 224 565 254 565 c 2
 463 565 l 1
 557 97 l 1
 577 97 583 97 591 93 c 0
 604 88 613 74 613 57 c 0
 613 43 604 24 591 15 c 1
 577 2 565 0 538 0 c 2
 403 0 l 2
 364 0 349 11 349 39 c 0
 349 54 357 71 371 82 c 0
 386 95 394 97 425 97 c 2
 446 97 l 1
 436 153 l 1
417 250 m 1
 380 436 l 1
 264 250 l 1
 417 250 l 1
373 798 m 2
 480 690 l 2
 490 679 495 670 495 662 c 0
 495 640 473 620 450 620 c 0
 442 620 433 624 423 636 c 1
 316 743 l 2
 306 753 301 761 301 769 c 0
 301 792 322 813 345 813 c 0
 356 813 361 810 373 798 c 2
EndSplineSet
KernsSLIF: 46 -83 0 0 44 -64 0 0 89 -42 0 0 87 -25 0 0 86 -78 0 0 85 -41 0 0 84 -43 0 0 81 -30 0 0 79 -30 0 0 71 -24 0 0 67 -29 0 0
Ligature: 0 0 'liga' A gravecomb
EndChar
StartChar: Acircumflex
Encoding: 259 194 153
Width: 579
Flags: W
HStem: 0 97<43 66 170 195 401 446 538 559> 153 97<264 436> 468 97<232 294>
DStem: 294 468 380 436 66 97 264 250 380 436 463 565 417 250 557 97 430 727 450 813 518 632 567 689 450 813 430 727 274 689 299 632
Fore
436 153 m 1
 205 153 l 1
 170 97 l 1
 193 97 l 2
 213 97 219 97 226 93 c 1
 240 89 248 74 248 57 c 0
 248 43 240 26 226 15 c 0
 211 2 202 0 172 0 c 2
 45 0 l 2
 5 0 -11 11 -11 39 c 0
 -11 54 -2 71 12 82 c 0
 26 94 35 97 66 97 c 1
 294 468 l 1
 234 468 l 2
 194 468 178 479 178 507 c 0
 178 522 187 539 202 551 c 0
 215 563 224 565 254 565 c 2
 463 565 l 1
 557 97 l 1
 577 97 583 97 591 93 c 0
 604 88 613 74 613 57 c 0
 613 43 604 24 591 15 c 1
 577 2 565 0 538 0 c 2
 403 0 l 2
 364 0 349 11 349 39 c 0
 349 54 357 71 371 82 c 0
 386 95 394 97 425 97 c 2
 446 97 l 1
 436 153 l 1
417 250 m 1
 380 436 l 1
 264 250 l 1
 417 250 l 1
430 727 m 1
 299 632 l 2
 287 623 279 620 270 620 c 0
 255 620 243 632 243 646 c 0
 243 663 248 670 274 689 c 2
 450 813 l 1
 567 689 l 1
 573 684 l 2
 583 675 585 670 585 662 c 0
 585 640 565 620 543 620 c 0
 535 620 527 624 518 632 c 1
 430 727 l 1
EndSplineSet
KernsSLIF: 46 -83 0 0 44 -64 0 0 89 -42 0 0 87 -25 0 0 86 -78 0 0 85 -41 0 0 84 -43 0 0 81 -30 0 0 79 -30 0 0 71 -24 0 0 67 -29 0 0
Ligature: 0 0 'liga' A uni0302
EndChar
StartChar: Abreve
Encoding: 260 258 154
Width: 579
Flags: W
HStem: 0 97<43 66 170 195 401 446 538 559> 153 97<264 436> 468 97<232 294> 627 64<381 403>
DStem: 294 468 380 436 66 97 264 250 380 436 463 565 417 250 557 97
Fore
436 153 m 1
 205 153 l 1
 170 97 l 1
 193 97 l 2
 213 97 219 97 226 93 c 1
 240 89 248 74 248 57 c 0
 248 43 240 26 226 15 c 0
 211 2 202 0 172 0 c 2
 45 0 l 2
 5 0 -11 11 -11 39 c 0
 -11 54 -2 71 12 82 c 0
 26 94 35 97 66 97 c 1
 294 468 l 1
 234 468 l 2
 194 468 178 479 178 507 c 0
 178 522 187 539 202 551 c 0
 215 563 224 565 254 565 c 2
 463 565 l 1
 557 97 l 1
 577 97 583 97 591 93 c 0
 604 88 613 74 613 57 c 0
 613 43 604 24 591 15 c 1
 577 2 565 0 538 0 c 2
 403 0 l 2
 364 0 349 11 349 39 c 0
 349 54 357 71 371 82 c 0
 386 95 394 97 425 97 c 2
 446 97 l 1
 436 153 l 1
417 250 m 1
 380 436 l 1
 264 250 l 1
 417 250 l 1
280 805 m 0
 299 805 304 798 307 766 c 0
 310 735 314 728 330 715 c 0
 349 699 371 691 396 691 c 0
 450 691 497 722 512 766 c 0
 523 797 534 805 554 805 c 0
 569 805 578 794 578 778 c 0
 578 706 477 627 384 627 c 0
 303 627 239 683 239 753 c 0
 239 783 257 805 280 805 c 0
EndSplineSet
Ligature: 0 0 'liga' A uni0306
EndChar
StartChar: Atilde
Encoding: 261 195 155
Width: 579
Flags: W
HStem: 0 97<43 66 170 195 401 446 538 559> 153 97<264 436> 468 97<232 294> 646 66<485 499> 708 66<354 367>
DStem: 294 468 380 436 66 97 264 250 380 436 463 565 417 250 557 97
Fore
436 153 m 1xe0
 205 153 l 1
 170 97 l 1
 193 97 l 2
 213 97 219 97 226 93 c 1
 240 89 248 74 248 57 c 0
 248 43 240 26 226 15 c 0
 211 2 202 0 172 0 c 2
 45 0 l 2
 5 0 -11 11 -11 39 c 0
 -11 54 -2 71 12 82 c 0
 26 94 35 97 66 97 c 1
 294 468 l 1
 234 468 l 2
 194 468 178 479 178 507 c 0
 178 522 187 539 202 551 c 0
 215 563 224 565 254 565 c 2
 463 565 l 1
 557 97 l 1
 577 97 583 97 591 93 c 0
 604 88 613 74 613 57 c 0
 613 43 604 24 591 15 c 1
 577 2 565 0 538 0 c 2
 403 0 l 2
 364 0 349 11 349 39 c 0
 349 54 357 71 371 82 c 0
 386 95 394 97 425 97 c 2
 446 97 l 1
 436 153 l 1xe0
417 250 m 1
 380 436 l 1
 264 250 l 1
 417 250 l 1
587 774 m 0xe8
 601 774 613 763 613 751 c 0
 613 741 604 727 585 705 c 0
 546 663 518 646 485 646 c 0xf0
 464 646 436 660 398 687 c 0
 376 704 368 708 356 708 c 0
 337 708 329 702 290 660 c 1
 282 653 273 649 264 649 c 0
 250 649 240 659 240 671 c 0
 240 686 250 704 274 728 c 0
 306 758 337 774 367 774 c 0xe8
 388 774 404 767 446 738 c 0
 474 720 487 712 497 712 c 0xf0
 512 712 518 717 549 751 c 0
 560 763 577 774 587 774 c 0xe8
EndSplineSet
KernsSLIF: 46 -83 0 0 44 -64 0 0 89 -42 0 0 87 -25 0 0 86 -78 0 0 85 -41 0 0 84 -43 0 0 81 -30 0 0 79 -30 0 0 71 -24 0 0 67 -29 0 0
Ligature: 0 0 'liga' A tildecomb
EndChar
StartChar: Aring
Encoding: 262 197 156
Width: 579
Flags: W
HStem: 0 97<43 66 170 195 401 446 538 559> 153 97<264 436> 468 97<232 294> 611 52<403 419> 791 53<437 455>
VStem: 308 53<704 717> 497 52<735 751>
DStem: 294 468 380 436 66 97 264 250 380 436 463 565 417 250 557 97
Fore
436 153 m 1
 205 153 l 1
 170 97 l 1
 193 97 l 2
 213 97 219 97 226 93 c 1
 240 89 248 74 248 57 c 0
 248 43 240 26 226 15 c 0
 211 2 202 0 172 0 c 2
 45 0 l 2
 5 0 -11 11 -11 39 c 0
 -11 54 -2 71 12 82 c 0
 26 94 35 97 66 97 c 1
 294 468 l 1
 234 468 l 2
 194 468 178 479 178 507 c 0
 178 522 187 539 202 551 c 0
 215 563 224 565 254 565 c 2
 463 565 l 1
 557 97 l 1
 577 97 583 97 591 93 c 0
 604 88 613 74 613 57 c 0
 613 43 604 24 591 15 c 1
 577 2 565 0 538 0 c 2
 403 0 l 2
 364 0 349 11 349 39 c 0
 349 54 357 71 371 82 c 0
 386 95 394 97 425 97 c 2
 446 97 l 1
 436 153 l 1
417 250 m 1
 380 436 l 1
 264 250 l 1
 417 250 l 1
453 844 m 0
 508 844 549 805 549 751 c 0
 549 715 538 688 512 660 c 1
 480 629 442 611 403 611 c 0
 349 611 308 651 308 704 c 0
 308 774 381 844 453 844 c 0
442 791 m 0
 400 791 361 753 361 715 c 0
 361 686 384 663 415 663 c 0
 456 663 497 701 497 738 c 0
 497 771 477 791 442 791 c 0
EndSplineSet
KernsSLIF: 121 -51 0 0 119 -19 0 0 118 -51 0 0 117 -21 0 0 116 -30 0 0 39 -145 0 0 186 -110 0 0 113 -11 0 0 46 -83 0 0 111 -14 0 0 45 -28 0 0 172 -55 0 0 171 -55 0 0 103 -6 0 0 101 -6 0 0 100 -5 0 0 44 -64 0 0 99 -15 0 0 98 49 0 0 97 10 0 0 89 -42 0 0 87 -25 0 0 86 -78 0 0 85 -41 0 0 84 -43 0 0 81 -30 0 0 79 -30 0 0 71 -24 0 0 67 -29 0 0
Ligature: 0 0 'liga' A uni030A
EndChar
StartChar: Aogonek
Encoding: 263 260 157
Width: 579
Flags: W
HStem: -202 76<450 470> 0 97<43 66 170 195 401 446> 153 97<264 436> 468 97<232 294>
VStem: 375 199<-139 -126>
DStem: 294 468 380 436 66 97 264 250 380 436 463 565 417 250 557 97
Fore
463 565 m 1
 557 97 l 1
 577 97 583 97 591 93 c 0
 604 88 613 74 613 57 c 0
 613 32 598 16 560 -2 c 0
 499 -29 453 -76 453 -110 c 0
 453 -121 460 -126 470 -126 c 0
 482 -126 489 -123 522 -110 c 0
 532 -105 538 -105 544 -105 c 0
 563 -105 574 -117 574 -136 c 0
 574 -149 566 -164 552 -172 c 0
 527 -189 482 -202 450 -202 c 0
 403 -202 375 -174 375 -131 c 0
 375 -90 395 -54 433 -31 c 1
 448 -20 458 -15 484 0 c 1
 403 0 l 2
 364 0 349 11 349 39 c 0
 349 54 357 71 371 82 c 0
 386 95 394 97 425 97 c 2
 446 97 l 1
 436 153 l 1
 205 153 l 1
 170 97 l 1
 193 97 l 2
 213 97 219 97 226 93 c 1
 240 89 248 74 248 57 c 0
 248 43 240 26 226 15 c 0
 211 2 202 0 172 0 c 2
 45 0 l 2
 5 0 -11 11 -11 39 c 0
 -11 54 -2 71 12 82 c 0
 26 94 35 97 66 97 c 1
 294 468 l 1
 234 468 l 2
 194 468 178 479 178 507 c 0
 178 522 187 539 202 551 c 0
 215 563 224 565 254 565 c 2
 463 565 l 1
417 250 m 1
 380 436 l 1
 264 250 l 1
 417 250 l 1
EndSplineSet
Ligature: 0 0 'liga' A uni0328
EndChar
StartChar: Ccedilla
Encoding: 264 199 158
Width: 579
Flags: W
HStem: -222 68<250 266> -97 181<264 336> 356 209<558 604> 482 96<397 420>
VStem: 78 99<189 208> 304 70<-123 -105>
Fore
324 -15 m 1xdc
 318 -40 l 1
 358 -48 374 -67 374 -105 c 0
 374 -169 318 -222 250 -222 c 0
 195 -222 143 -197 143 -169 c 0
 143 -147 164 -127 186 -127 c 0
 194 -127 195 -128 211 -138 c 0
 226 -148 247 -154 264 -154 c 0
 290 -154 304 -143 304 -123 c 0
 304 -107 290 -97 264 -97 c 0
 259 -97 255 -97 239 -99 c 1
 257 -8 l 1
 224 -2 208 4 185 15 c 0
 117 46 78 112 78 189 c 0
 78 208 81 224 84 241 c 1
 97 306 l 1
 129 460 268 578 418 578 c 0xdc
 469 578 501 570 549 546 c 2
 558 542 l 1
 574 558 587 565 604 565 c 0
 626 565 642 549 642 528 c 0
 642 521 642 518 639 501 c 1
 621 419 l 1
 615 394 611 386 604 376 c 1
 591 363 574 356 558 356 c 0xec
 536 356 519 371 521 394 c 1
 522 412 l 2
 524 450 468 482 402 482 c 0
 303 482 215 407 194 306 c 1
 180 243 l 1
 177 231 177 218 177 208 c 0
 177 131 237 84 336 84 c 0
 381 84 422 92 450 105 c 1
 492 139 l 2
 505 149 518 154 530 154 c 0
 552 154 570 136 570 115 c 0
 570 90 546 62 502 35 c 0
 456 5 402 -8 324 -15 c 1xdc
EndSplineSet
KernsSLIF: 65 -6 0 0
Ligature: 0 0 'liga' C uni0327
EndChar
StartChar: Cacute
Encoding: 265 262 159
Width: 579
Flags: W
HStem: -15 99<312 338> 356 209<558 604> 482 96<397 420>
VStem: 78 99<189 208>
DStem: 557 798 590 743 411 690 445 636
Fore
549 546 m 2xb0
 558 542 l 1
 574 558 587 565 604 565 c 0
 626 565 642 549 642 528 c 0
 642 521 642 518 639 501 c 1
 621 419 l 1
 615 394 612 386 604 376 c 1
 591 363 574 356 558 356 c 0xd0
 536 356 519 371 521 394 c 1
 522 412 l 2
 524 450 467 482 402 482 c 0
 303 482 215 407 194 306 c 1
 180 243 l 1
 177 231 177 218 177 208 c 0
 177 131 237 84 336 84 c 0
 381 84 422 92 450 105 c 1
 492 139 l 2
 505 149 518 154 530 154 c 0
 552 154 570 136 570 115 c 0
 570 97 558 78 533 57 c 0
 477 11 401 -15 314 -15 c 0
 170 -15 78 67 78 189 c 0
 78 208 81 224 84 241 c 1
 97 306 l 1
 129 460 268 578 418 578 c 0
 469 578 501 570 549 546 c 2xb0
590 743 m 1
 445 636 l 1
 419 620 419 620 411 620 c 0
 394 620 381 632 381 648 c 0
 381 663 389 675 411 690 c 1
 557 798 l 2
 572 809 581 813 590 813 c 0
 608 813 620 800 620 784 c 0
 620 771 612 759 598 748 c 2
 590 743 l 1
EndSplineSet
Ligature: 0 0 'liga' C acutecomb
EndChar
StartChar: Ccaron
Encoding: 266 268 160
Width: 579
Flags: W
HStem: -15 99<312 338> 356 209<558 604> 482 96<397 420>
VStem: 78 99<189 208>
DStem: 294 744 345 800 418 620 437 706 560 800 587 744 437 706 418 620
Fore
549 546 m 2xb0
 558 542 l 1
 574 558 587 565 604 565 c 0
 626 565 642 549 642 528 c 0
 642 521 642 518 639 501 c 1
 621 419 l 1
 615 394 612 386 604 376 c 1
 591 363 574 356 558 356 c 0xd0
 536 356 519 371 521 394 c 1
 522 412 l 2
 524 450 467 482 402 482 c 0
 303 482 215 407 194 306 c 1
 180 243 l 1
 177 231 177 218 177 208 c 0
 177 131 237 84 336 84 c 0
 381 84 422 92 450 105 c 1
 492 139 l 2
 505 149 518 154 530 154 c 0
 552 154 570 136 570 115 c 0
 570 97 558 78 533 57 c 0
 477 11 401 -15 314 -15 c 0
 170 -15 78 67 78 189 c 0
 78 208 81 224 84 241 c 1
 97 306 l 1
 129 460 268 578 418 578 c 0
 469 578 501 570 549 546 c 2xb0
437 706 m 1
 560 800 l 2
 570 808 581 813 590 813 c 0
 604 813 617 799 617 786 c 0
 617 771 611 760 593 749 c 1
 587 744 l 1
 418 620 l 1
 294 744 l 2
 281 758 277 761 277 772 c 0
 277 790 301 813 321 813 c 0
 329 813 335 809 345 800 c 1
 437 706 l 1
EndSplineSet
Ligature: 0 0 'liga' C uni030C
EndChar
StartChar: Dcaron
Encoding: 267 270 161
Width: 579
Flags: W
HStem: 0 97<76 93 191 306> 468 97<198 391>
VStem: 503 101<337 357>
DStem: 171 468 268 468 93 97 191 97 257 744 306 800 380 620 398 706 521 800 549 744 398 706 380 620
Fore
93 97 m 1
 171 468 l 1
 138 468 122 480 122 507 c 0
 122 522 131 539 144 551 c 0
 159 563 167 565 198 565 c 2
 404 565 l 2
 522 565 604 482 604 357 c 0
 604 337 601 316 596 295 c 1
 587 250 l 1
 572 178 536 119 482 73 c 0
 423 22 360 0 276 0 c 2
 78 0 l 2
 38 0 22 12 22 39 c 0
 22 54 31 71 45 82 c 1
 57 94 70 97 93 97 c 1
191 97 m 1
 296 97 l 2
 356 97 388 108 427 140 c 1
 460 169 480 203 490 253 c 1
 500 298 l 2
 503 312 503 325 503 339 c 0
 503 380 487 420 460 443 c 1
 442 460 411 468 375 468 c 2
 268 468 l 1
 191 97 l 1
398 706 m 1
 521 800 l 2
 532 808 542 813 551 813 c 0
 565 813 578 799 578 786 c 0
 578 771 572 760 554 749 c 1
 549 744 l 1
 380 620 l 1
 257 744 l 1
 242 758 240 761 240 772 c 0
 240 790 263 813 282 813 c 0
 290 813 296 809 306 800 c 1
 398 706 l 1
EndSplineSet
Ligature: 0 0 'liga' D uni030C
EndChar
StartChar: Edieresis
Encoding: 268 203 162
Width: 579
Flags: W
HStem: 0 97<76 113 209 533> 0 211<520 533> 164 239<353 404> 356 209<198 548> 468 97<175 198 198 515> 657 118<321 345 522 546>
VStem: 274 118<704 728> 477 117<704 728>
DStem: 191 468 288 468 113 97 259 332 191 468 239 236 113 97 209 97
Fore
239 236 m 1x2f
 209 97 l 1
 456 97 l 1xaf
 468 147 l 1
 473 174 477 182 487 192 c 0
 499 205 515 211 529 211 c 0x47
 551 211 569 197 569 177 c 0
 569 169 567 164 565 147 c 1
 533 0 l 1
 78 0 l 2
 39 0 22 12 22 39 c 0
 22 54 31 71 45 82 c 1
 59 95 68 97 98 97 c 2
 113 97 l 1
 191 468 l 1
 177 468 l 2x8f
 136 468 121 479 121 507 c 0
 121 522 129 539 144 551 c 0
 158 563 167 565 198 565 c 2x17
 632 565 l 1x0f
 601 419 l 1
 595 392 591 384 582 375 c 0
 570 363 554 356 539 356 c 0x17
 518 356 500 370 500 391 c 0
 500 397 501 407 503 419 c 1
 515 468 l 1
 288 468 l 1
 259 332 l 1
 341 332 l 1
 342 339 l 1
 348 365 350 373 361 381 c 1
 373 395 389 403 404 403 c 0
 427 403 443 388 443 365 c 0
 443 358 443 357 439 339 c 2
 415 228 l 1
 409 202 406 195 396 185 c 0
 384 172 368 164 353 164 c 0
 332 164 315 180 315 202 c 0
 315 208 316 215 319 228 c 2
 321 236 l 1
 239 236 l 1x2f
345 775 m 0
 371 775 392 755 392 728 c 0
 392 691 357 657 321 657 c 0
 296 657 274 679 274 704 c 0
 274 739 310 775 345 775 c 0
546 775 m 0
 574 775 594 755 594 728 c 0
 594 691 558 657 522 657 c 0
 499 657 477 679 477 704 c 0
 477 739 512 775 546 775 c 0
EndSplineSet
Ligature: 0 0 'liga' E uni0308
EndChar
StartChar: Eacute
Encoding: 269 201 163
Width: 579
Flags: W
HStem: 0 97<76 113 209 533> 0 211<518.88 534> 164 239<353 404> 356 209<198 541> 468 97<175 198 198 515>
DStem: 191 468 288 468 113 97 259 332 191 468 239 236 113 97 209 97 530 798 563 743 378 690 411 636
Fore
239 236 m 1x28
 209 97 l 1
 456 97 l 1xa8
 468 147 l 1
 473 174 477 182 487 192 c 0
 499 205 515 211 529 211 c 0x40
 551 211 569 197 569 177 c 0
 569 169 567 164 565 147 c 1
 533 0 l 1
 78 0 l 2
 39 0 22 12 22 39 c 0
 22 54 31 71 45 82 c 1
 59 95 68 97 98 97 c 2
 113 97 l 1
 191 468 l 1
 177 468 l 2x88
 136 468 121 479 121 507 c 0
 121 522 129 539 144 551 c 0
 158 563 167 565 198 565 c 2x10
 632 565 l 1x08
 601 419 l 1
 595 392 591 384 582 375 c 0
 570 363 554 356 539 356 c 0x10
 518 356 500 370 500 391 c 0
 500 397 501 407 503 419 c 1
 515 468 l 1
 288 468 l 1
 259 332 l 1
 341 332 l 1
 342 339 l 1
 348 365 350 373 361 381 c 1
 373 395 389 403 404 403 c 0
 427 403 443 388 443 365 c 0
 443 358 443 357 439 339 c 2
 415 228 l 1
 409 202 406 195 396 185 c 0
 384 172 368 164 353 164 c 0
 332 164 315 180 315 202 c 0
 315 208 316 215 319 228 c 2
 321 236 l 1
 239 236 l 1x28
563 743 m 2
 411 636 l 1
 396 624 386 620 376 620 c 0
 360 620 347 632 347 648 c 0
 347 663 356 675 378 690 c 2
 530 798 l 2
 546 810 554 813 565 813 c 0
 581 813 593 800 593 784 c 0
 593 770 584 758 563 743 c 2
EndSplineSet
Ligature: 0 0 'liga' E acutecomb
EndChar
StartChar: Egrave
Encoding: 270 200 164
Width: 579
Flags: W
HStem: 0 97<76 113 209 533> 0 211<518.88 534> 164 239<353 404> 356 209<198 541> 468 97<175 198 198 515>
DStem: 191 468 288 468 113 97 259 332 191 468 239 236 113 97 209 97 318 743 374 798 425 636 480 690
Fore
239 236 m 1x28
 209 97 l 1
 456 97 l 1xa8
 468 147 l 1
 473 174 477 182 487 192 c 0
 499 205 515 211 529 211 c 0x40
 551 211 569 197 569 177 c 0
 569 170 567 164 565 147 c 1
 533 0 l 1
 78 0 l 2
 38 0 22 12 22 39 c 0
 22 54 31 71 45 82 c 1
 59 95 68 97 98 97 c 2
 113 97 l 1
 191 468 l 1
 177 468 l 2x88
 136 468 121 479 121 507 c 0
 121 522 129 539 144 551 c 0
 158 563 167 565 198 565 c 2x10
 632 565 l 1x08
 601 419 l 1
 595 392 591 384 582 375 c 0
 570 363 554 356 539 356 c 0x10
 518 356 500 370 500 391 c 0
 500 397 501 407 503 419 c 1
 515 468 l 1
 288 468 l 1
 259 332 l 1
 341 332 l 1
 342 339 l 1
 348 365 350 373 361 381 c 1
 373 395 389 403 404 403 c 0
 427 403 443 388 443 367 c 0
 443 360 442 356 439 339 c 1
 415 228 l 1
 409 202 406 195 396 185 c 0
 384 172 368 164 353 164 c 0
 332 164 315 180 315 202 c 0
 315 208 316 215 319 228 c 2
 321 236 l 1
 239 236 l 1x28
374 798 m 2
 480 690 l 2
 491 679 496 670 496 662 c 0
 496 640 474 620 451 620 c 0
 443 620 435 624 425 636 c 1
 318 743 l 2
 307 753 302 761 302 770 c 0
 302 792 324 813 347 813 c 0
 356 813 363 809 374 798 c 2
EndSplineSet
Ligature: 0 0 'liga' E gravecomb
EndChar
StartChar: Ecircumflex
Encoding: 271 202 165
Width: 579
Flags: W
HStem: 0 97<76 113 209 533> 0 211<523 533> 164 239<353 404> 356 209<198 541> 468 97<175 198 198 515>
DStem: 191 468 288 468 113 97 259 332 191 468 239 236 113 97 209 97 437 727 456 813 525 632 574 689 456 813 437 727 282 689 308 632
Fore
239 236 m 1x28
 209 97 l 1
 456 97 l 1xa8
 468 147 l 1
 473 174 477 182 487 192 c 0
 499 205 515 211 529 211 c 0x40
 551 211 569 197 569 177 c 0
 569 170 567 164 565 147 c 1
 533 0 l 1
 78 0 l 2
 38 0 22 12 22 39 c 0
 22 54 31 71 45 82 c 1
 59 95 68 97 98 97 c 2
 113 97 l 1
 191 468 l 1
 177 468 l 2x88
 136 468 121 479 121 507 c 0
 121 522 129 539 144 551 c 0
 158 563 167 565 198 565 c 2x10
 632 565 l 1x08
 601 419 l 1
 595 392 591 384 582 375 c 0
 570 363 554 356 539 356 c 0x10
 518 356 500 370 500 391 c 0
 500 397 501 407 503 419 c 1
 515 468 l 1
 288 468 l 1
 259 332 l 1
 341 332 l 1
 342 339 l 1
 348 365 350 373 361 381 c 1
 373 395 389 403 404 403 c 0
 427 403 443 388 443 367 c 0
 443 360 442 356 439 339 c 1
 415 228 l 1
 409 202 406 195 396 185 c 0
 384 172 368 164 353 164 c 0
 332 164 315 180 315 202 c 0
 315 208 316 215 319 228 c 2
 321 236 l 1
 239 236 l 1x28
437 727 m 1
 308 632 l 1
 294 624 287 620 277 620 c 0
 263 620 250 632 250 648 c 0
 250 663 257 670 282 689 c 1
 456 813 l 1
 574 689 l 1
 577 687 581 684 583 682 c 0
 591 675 593 670 593 662 c 0
 593 640 572 620 551 620 c 0
 542 620 535 624 525 632 c 1
 437 727 l 1
EndSplineSet
Ligature: 0 0 'liga' E uni0302
EndChar
StartChar: Ecaron
Encoding: 272 282 166
Width: 579
Flags: W
HStem: 0 97<76 113 209 533> 0 211<518.88 534> 164 239<353 404> 356 209<198 543> 468 97<175 198 198 515>
DStem: 191 468 288 468 113 97 259 332 191 468 239 236 113 97 209 97 275 744 325 800 398 620 418 706 541 800 567 744 418 706 398 620
Fore
239 236 m 1x28
 209 97 l 1
 456 97 l 1xa8
 468 147 l 1
 473 174 477 182 487 192 c 0
 499 205 515 211 529 211 c 0x40
 551 211 569 197 569 177 c 0
 569 169 567 164 565 147 c 1
 533 0 l 1
 78 0 l 2
 39 0 22 12 22 39 c 0
 22 54 31 71 45 82 c 1
 59 95 68 97 98 97 c 2
 113 97 l 1
 191 468 l 1
 177 468 l 2x88
 136 468 121 479 121 507 c 0
 121 522 129 539 144 551 c 0
 158 563 167 565 198 565 c 2x10
 632 565 l 1x08
 601 419 l 1
 595 392 591 384 582 375 c 0
 570 363 554 356 539 356 c 0x10
 518 356 500 370 500 391 c 0
 500 397 501 407 503 419 c 1
 515 468 l 1
 288 468 l 1
 259 332 l 1
 341 332 l 1
 342 339 l 1
 348 365 350 373 361 381 c 1
 373 395 389 403 404 403 c 0
 427 403 443 388 443 365 c 0
 443 358 443 357 439 339 c 2
 415 228 l 1
 409 202 406 195 396 185 c 0
 384 172 368 164 353 164 c 0
 332 164 315 180 315 202 c 0
 315 208 316 215 319 228 c 2
 321 236 l 1
 239 236 l 1x28
418 706 m 1
 541 800 l 2
 551 808 562 813 570 813 c 0
 584 813 598 799 598 786 c 0
 598 771 591 760 574 749 c 2
 567 744 l 1
 398 620 l 1
 275 744 l 1
 260 758 259 761 259 772 c 0
 259 790 282 813 301 813 c 0
 309 813 316 809 325 800 c 2
 418 706 l 1
EndSplineSet
Ligature: 0 0 'liga' E uni030C
EndChar
StartChar: Edotaccent
Encoding: 273 278 167
Width: 579
Flags: W
HStem: 0 97<76 113 209 533> 0 211<518.88 534> 164 239<353 404> 356 209<198 541> 468 97<175 198 198 515> 650 117<406 430>
VStem: 360 117<698 721>
DStem: 191 468 288 468 113 97 259 332 191 468 239 236 113 97 209 97
Fore
239 236 m 1x2e
 209 97 l 1
 456 97 l 1xae
 468 147 l 1
 473 174 477 182 487 192 c 0
 499 205 515 211 529 211 c 0x46
 551 211 569 197 569 177 c 0
 569 169 567 164 565 147 c 1
 533 0 l 1
 78 0 l 2
 39 0 22 12 22 39 c 0
 22 54 31 71 45 82 c 1
 59 95 68 97 98 97 c 2
 113 97 l 1
 191 468 l 1
 177 468 l 2x8e
 136 468 121 479 121 507 c 0
 121 522 129 539 144 551 c 0
 158 563 167 565 198 565 c 2x16
 632 565 l 1x0e
 601 419 l 1
 595 392 591 384 582 375 c 0
 570 363 554 356 539 356 c 0x16
 518 356 500 370 500 391 c 0
 500 397 501 407 503 419 c 1
 515 468 l 1
 288 468 l 1
 259 332 l 1
 341 332 l 1
 342 339 l 1
 348 365 350 373 361 381 c 1
 373 395 389 403 404 403 c 0
 427 403 443 388 443 365 c 0
 443 358 443 357 439 339 c 2
 415 228 l 1
 409 202 406 195 396 185 c 0
 384 172 368 164 353 164 c 0
 332 164 315 180 315 202 c 0
 315 208 316 215 319 228 c 2
 321 236 l 1
 239 236 l 1x2e
430 767 m 0
 457 767 477 748 477 721 c 0
 477 684 443 650 406 650 c 0
 381 650 360 673 360 698 c 0
 360 732 395 767 430 767 c 0
EndSplineSet
Ligature: 0 0 'liga' E uni0307
EndChar
StartChar: Eogonek
Encoding: 274 280 168
Width: 579
Flags: W
HStem: -202 76<415 436> 0 97<76 113 209 450> 164 239<353 404> 356 209<198 541> 468 97<175 198 198 515>
VStem: 340 199<-139 -126>
DStem: 191 468 288 468 113 97 259 332 191 468 239 236 113 97 209 97
Fore
239 236 m 1xec
 209 97 l 1
 456 97 l 1
 468 147 l 1
 473 174 477 182 487 192 c 0
 499 205 515 211 529 211 c 0
 551 211 569 197 569 177 c 0
 569 169 567 164 565 147 c 1
 533 0 l 1
 492 -17 484 -23 460 -45 c 0
 431 -70 419 -89 419 -110 c 0
 419 -121 425 -126 436 -126 c 0
 448 -126 453 -123 487 -110 c 0
 497 -105 503 -105 508 -105 c 0
 528 -105 539 -117 539 -136 c 0
 539 -149 532 -164 518 -172 c 0
 492 -189 446 -202 415 -202 c 0
 368 -202 340 -174 340 -131 c 0
 340 -90 361 -54 397 -31 c 1
 412 -20 423 -15 450 0 c 1
 78 0 l 2
 39 0 22 12 22 39 c 0
 22 54 31 71 45 82 c 1
 59 95 68 97 98 97 c 2
 113 97 l 1
 191 468 l 1
 177 468 l 2xec
 136 468 121 479 121 507 c 0
 121 522 129 539 144 551 c 0
 158 563 167 565 198 565 c 2xd4
 632 565 l 1xcc
 601 419 l 1
 595 392 591 384 582 375 c 0
 570 363 554 356 539 356 c 0xd4
 518 356 500 370 500 391 c 0
 500 397 501 407 503 419 c 1
 515 468 l 1
 288 468 l 1
 259 332 l 1
 341 332 l 1
 342 339 l 1
 348 365 350 373 361 381 c 1
 373 395 389 403 404 403 c 0
 427 403 443 388 443 365 c 0
 443 358 443 357 439 339 c 2
 415 228 l 1
 409 202 406 195 396 185 c 0
 384 172 368 164 353 164 c 0
 332 164 315 180 315 202 c 0
 315 208 316 215 319 228 c 2
 321 236 l 1
 239 236 l 1xec
EndSplineSet
Ligature: 0 0 'liga' E uni0328
EndChar
StartChar: Gbreve
Encoding: 275 286 169
Width: 579
Flags: W
HStem: -15 99<314 349> 174 97<370 473> 482 96<409 435> 627 64<420 437>
VStem: 77 98<177 195>
Fore
570 174 m 1
 542 47 l 1
 446 0 394 -15 316 -15 c 0
 249 -15 187 2 144 31 c 0
 100 61 77 112 77 178 c 0
 77 198 78 218 84 239 c 1
 98 307 l 2
 113 381 158 453 221 503 c 0
 283 554 350 578 430 578 c 0
 482 578 527 569 565 549 c 1
 581 570 591 578 611 578 c 0
 632 578 646 565 646 542 c 0
 646 535 646 533 642 515 c 2
 626 439 l 1
 620 412 617 404 608 395 c 0
 596 381 580 375 565 375 c 0
 551 375 539 381 534 389 c 0
 529 396 529 396 527 427 c 0
 525 460 480 482 411 482 c 0
 303 482 216 412 195 307 c 1
 181 244 l 2
 177 226 175 210 175 193 c 0
 175 123 232 84 332 84 c 0
 379 84 418 90 460 107 c 1
 473 174 l 1
 378 174 l 2
 337 174 322 185 322 213 c 0
 322 228 330 246 345 257 c 1
 358 270 367 271 397 271 c 2
 567 271 l 2
 587 271 591 270 601 267 c 0
 613 264 622 249 622 234 c 0
 622 205 601 183 570 174 c 1
319 805 m 0
 339 805 343 798 346 766 c 0
 349 735 353 728 369 715 c 0
 388 699 411 691 435 691 c 0
 487 691 536 722 551 766 c 0
 562 797 573 805 593 805 c 0
 608 805 617 794 617 778 c 0
 617 706 515 627 422 627 c 0
 342 627 277 683 277 753 c 0
 277 783 294 805 319 805 c 0
EndSplineSet
Ligature: 0 0 'liga' G uni0306
EndChar
StartChar: Idieresis
Encoding: 276 207 170
Width: 579
Flags: W
HStem: 0 97<144 264 361 459> 468 97<242 342 265 559> 657 118<329 353 532 555>
VStem: 283 118<704 728> 484 120<704 728>
DStem: 342 468 439 468 264 97 361 97
Fore
439 468 m 1
 361 97 l 1
 457 97 l 2
 477 97 484 97 491 93 c 1
 503 89 512 74 512 59 c 0
 512 43 503 26 490 15 c 1
 477 2 466 0 437 0 c 2
 146 0 l 2
 105 0 90 11 90 39 c 0
 90 54 99 71 113 82 c 1
 127 95 136 97 166 97 c 2
 264 97 l 1
 342 468 l 1
 244 468 l 2
 205 468 191 479 191 507 c 0
 191 522 198 539 211 550 c 0
 226 563 234 565 265 565 c 2
 557 565 l 2
 577 565 583 565 591 561 c 0
 604 557 612 542 612 527 c 0
 612 511 604 492 590 482 c 0
 574 470 566 468 536 468 c 2
 439 468 l 1
353 775 m 0
 381 775 401 755 401 728 c 0
 401 691 365 657 329 657 c 0
 306 657 283 679 283 704 c 0
 283 739 319 775 353 775 c 0
555 775 m 0
 582 775 604 755 604 728 c 0
 604 691 567 657 532 657 c 0
 507 657 484 679 484 704 c 0
 484 739 519 775 555 775 c 0
EndSplineSet
Ligature: 0 0 'liga' I uni0308
EndChar
StartChar: Iacute
Encoding: 277 205 171
Width: 579
Flags: W
HStem: 0 97<144 264 361 459> 468 97<242 342 265 561>
DStem: 342 468 439 468 264 97 361 97 518 798 551 743 371 690 406 636
Fore
439 468 m 1
 361 97 l 1
 457 97 l 2
 477 97 484 97 491 93 c 1
 503 89 512 74 512 59 c 0
 512 43 503 26 490 15 c 1
 477 2 466 0 437 0 c 2
 146 0 l 2
 105 0 90 11 90 39 c 0
 90 54 99 71 113 82 c 1
 127 95 136 97 166 97 c 2
 264 97 l 1
 342 468 l 1
 244 468 l 2
 205 468 191 479 191 507 c 0
 191 522 198 539 211 550 c 0
 226 563 234 565 265 565 c 2
 557 565 l 2
 577 565 583 565 591 561 c 0
 604 557 612 542 612 527 c 0
 612 511 604 492 590 482 c 0
 574 470 566 468 536 468 c 2
 439 468 l 1
551 743 m 1
 406 636 l 1
 381 620 381 620 371 620 c 0
 356 620 343 632 343 648 c 0
 343 663 350 675 371 690 c 2
 518 798 l 2
 533 809 542 813 551 813 c 0
 569 813 581 800 581 784 c 0
 581 771 574 759 558 748 c 2
 551 743 l 1
EndSplineSet
Ligature: 0 0 'liga' I acutecomb
EndChar
StartChar: Igrave
Encoding: 278 204 172
Width: 579
Flags: W
HStem: 0 97<144 264 361 461> 468 97<242 342 265 559>
DStem: 326 743 381 798 433 636 489 690 342 468 439 468 264 97 361 97
Fore
439 468 m 1
 361 97 l 1
 457 97 l 2
 477 97 484 97 491 93 c 1
 503 89 512 74 512 59 c 0
 512 43 503 26 490 15 c 1
 477 2 466 0 437 0 c 2
 146 0 l 2
 105 0 90 11 90 39 c 0
 90 54 99 71 113 82 c 1
 127 95 136 97 166 97 c 2
 264 97 l 1
 342 468 l 1
 244 468 l 2
 205 468 191 479 191 507 c 0
 191 522 198 539 211 550 c 0
 226 563 234 565 265 565 c 2
 557 565 l 2
 577 565 583 565 591 561 c 0
 604 557 612 542 612 527 c 0
 612 511 604 492 590 482 c 0
 574 470 566 468 536 468 c 2
 439 468 l 1
381 798 m 1
 489 690 l 2
 500 679 505 670 505 662 c 0
 505 640 482 620 460 620 c 0
 453 620 443 624 433 636 c 1
 326 743 l 2
 316 753 312 761 312 770 c 0
 312 792 332 813 356 813 c 0
 365 813 371 810 381 798 c 1
EndSplineSet
Ligature: 0 0 'liga' I gravecomb
EndChar
StartChar: Icircumflex
Encoding: 279 206 173
Width: 579
Flags: W
HStem: 0 97<144 264 361 459> 468 97<242 342 265 561>
DStem: 342 468 439 468 264 97 361 97 446 727 466 813 535 632 584 689 466 813 446 727 291 689 316 632
Fore
439 468 m 1
 361 97 l 1
 457 97 l 2
 477 97 484 97 491 93 c 1
 503 89 512 74 512 59 c 0
 512 43 503 26 490 15 c 1
 477 2 466 0 437 0 c 2
 146 0 l 2
 105 0 90 11 90 39 c 0
 90 54 99 71 113 82 c 1
 127 95 136 97 166 97 c 2
 264 97 l 1
 342 468 l 1
 244 468 l 2
 205 468 191 479 191 507 c 0
 191 522 198 539 211 550 c 0
 226 563 234 565 265 565 c 2
 557 565 l 2
 577 565 583 565 591 561 c 0
 604 557 612 542 612 527 c 0
 612 511 604 492 590 482 c 0
 574 470 566 468 536 468 c 2
 439 468 l 1
446 727 m 1
 316 632 l 1
 303 624 295 620 287 620 c 0
 271 620 260 632 260 646 c 0
 260 663 265 670 291 689 c 2
 466 813 l 1
 584 689 l 2
 600 673 601 671 601 662 c 0
 601 640 581 620 558 620 c 0
 551 620 543 624 535 632 c 2
 446 727 l 1
EndSplineSet
Ligature: 0 0 'liga' I uni0302
EndChar
StartChar: Idotaccent
Encoding: 280 304 174
Width: 579
Flags: W
HStem: 0 97<144 264 361 459> 468 97<242 342 265 559> 650 117<425 450>
VStem: 379 118<698 721>
DStem: 342 468 439 468 264 97 361 97
Fore
439 468 m 1
 361 97 l 1
 457 97 l 2
 477 97 484 97 491 93 c 1
 503 89 512 74 512 59 c 0
 512 43 503 26 490 15 c 1
 477 2 466 0 437 0 c 2
 146 0 l 2
 105 0 90 11 90 39 c 0
 90 54 99 71 113 82 c 1
 127 95 136 97 166 97 c 2
 264 97 l 1
 342 468 l 1
 244 468 l 2
 205 468 191 479 191 507 c 0
 191 522 198 539 211 550 c 0
 226 563 234 565 265 565 c 2
 557 565 l 2
 577 565 583 565 591 561 c 0
 604 557 612 542 612 527 c 0
 612 511 604 492 590 482 c 0
 574 470 566 468 536 468 c 2
 439 468 l 1
450 767 m 0
 477 767 497 748 497 721 c 0
 497 684 462 650 425 650 c 0
 401 650 379 673 379 698 c 0
 379 732 415 767 450 767 c 0
EndSplineSet
Ligature: 0 0 'liga' I uni0307
EndChar
StartChar: Lacute
Encoding: 281 313 175
Width: 579
Flags: W
HStem: 0 97<95 171 268 554> 0 250<551 558> 468 97<193 249 216 424>
DStem: 250 468 347 468 171 97 268 97 480 798 512 743 332 690 367 636
Fore
347 468 m 1xa0
 268 97 l 1
 477 97 l 1xa0
 496 186 l 1
 501 211 505 221 515 231 c 0
 527 244 542 250 558 250 c 0x60
 581 250 598 236 598 214 c 0
 598 208 596 202 593 186 c 1
 554 0 l 1
 97 0 l 2
 56 0 40 12 40 39 c 0
 40 54 50 71 64 82 c 1
 78 95 86 97 116 97 c 2
 171 97 l 1
 250 468 l 1
 195 468 l 2
 156 468 140 479 140 507 c 0
 140 522 149 539 162 551 c 0
 177 563 185 565 216 565 c 2
 422 565 l 2
 442 565 450 565 456 561 c 1
 469 557 477 542 477 525 c 0
 477 511 469 492 456 482 c 0
 441 470 431 468 402 468 c 2
 347 468 l 1xa0
512 743 m 1
 367 636 l 1
 342 620 342 620 332 620 c 0
 316 620 304 632 304 648 c 0
 304 663 312 675 332 690 c 2
 480 798 l 2
 494 809 503 813 512 813 c 0
 530 813 542 800 542 784 c 0
 542 771 535 759 519 748 c 2
 512 743 l 1
EndSplineSet
Ligature: 0 0 'liga' L acutecomb
EndChar
StartChar: Lcaron
Encoding: 282 317 176
Width: 579
Flags: W
HStem: 0 97<95 171 268 554> 468 97<193 249 216 424>
DStem: 250 468 347 468 171 97 268 97 590 556 639 515 489 433 539 391
Fore
347 468 m 1
 268 97 l 1
 477 97 l 1
 496 186 l 1
 501 211 505 221 515 231 c 0
 527 244 542 250 558 250 c 0
 581 250 598 236 598 214 c 0
 598 208 596 202 593 186 c 1
 554 0 l 1
 97 0 l 2
 56 0 40 12 40 39 c 0
 40 54 50 71 64 82 c 1
 78 95 86 97 116 97 c 2
 171 97 l 1
 250 468 l 1
 195 468 l 2
 156 468 140 479 140 507 c 0
 140 522 149 539 162 551 c 0
 177 563 185 565 216 565 c 2
 422 565 l 2
 442 565 450 565 456 561 c 1
 469 557 477 542 477 525 c 0
 477 511 469 492 456 482 c 0
 441 470 431 468 402 468 c 2
 347 468 l 1
639 515 m 1
 539 391 l 1
 525 375 512 367 497 367 c 0
 482 367 470 380 470 394 c 0
 470 406 474 415 489 433 c 2
 590 556 l 2
 604 573 616 580 629 580 c 0
 646 580 659 567 659 552 c 0
 659 539 655 532 644 519 c 1
 639 515 l 1
EndSplineSet
Ligature: 0 0 'liga' L uni030C
EndChar
StartChar: Nacute
Encoding: 283 323 177
Width: 579
Flags: W
HStem: 0 97<74 90 188 222> 468 97<153 177 480 631>
VStem: 20 256<39 59> 428 256<507 525>
DStem: 170 468 248 381 90 97 188 97 248 381 287 565 418 0 456 185 516 468 613 468 456 185 513 0 518 798 551 743 371 690 406 636
Fore
248 381 m 1
 188 97 l 1
 222 97 l 2
 241 97 247 97 255 93 c 0
 267 89 276 74 276 59 c 0
 276 43 267 26 254 15 c 0
 241 4 228 0 202 0 c 2
 76 0 l 2
 35 0 20 11 20 39 c 0
 20 54 29 71 43 82 c 0
 56 94 66 97 90 97 c 1
 170 468 l 1
 155 468 l 2
 115 468 101 479 101 507 c 0
 101 522 109 539 123 550 c 0
 136 562 146 565 177 565 c 2
 287 565 l 1
 456 185 l 1
 516 468 l 1
 482 468 l 2
 443 468 428 479 428 507 c 0
 428 522 437 539 450 551 c 1
 466 563 473 565 503 565 c 2
 629 565 l 2
 648 565 655 565 663 561 c 0
 675 557 684 542 684 525 c 0
 684 511 675 494 662 482 c 0
 648 470 637 468 613 468 c 1
 513 0 l 1
 418 0 l 1
 248 381 l 1
551 743 m 1
 406 636 l 1
 381 620 381 620 371 620 c 0
 356 620 343 632 343 648 c 0
 343 663 350 675 371 690 c 2
 518 798 l 2
 533 809 542 813 551 813 c 0
 569 813 581 800 581 784 c 0
 581 771 574 759 558 748 c 0
 555 745 551 743 551 743 c 1
EndSplineSet
Ligature: 0 0 'liga' N acutecomb
EndChar
StartChar: Ncaron
Encoding: 284 327 178
Width: 579
Flags: W
HStem: 0 97<74 90 188 222> 468 97<153 177 480 631>
VStem: 20 256<39 59> 428 256<507 525>
DStem: 170 468 248 381 90 97 188 97 248 381 287 565 418 0 456 185 275 744 325 800 398 620 418 706 516 468 613 468 456 185 513 0 541 800 567 744 418 706 398 620
Fore
248 381 m 1
 188 97 l 1
 222 97 l 2
 241 97 247 97 255 93 c 0
 267 89 276 74 276 59 c 0
 276 43 267 26 254 15 c 0
 241 4 228 0 202 0 c 2
 76 0 l 2
 35 0 20 11 20 39 c 0
 20 54 29 71 43 82 c 0
 56 94 66 97 90 97 c 1
 170 468 l 1
 155 468 l 2
 115 468 101 479 101 507 c 0
 101 522 109 539 123 550 c 0
 136 562 146 565 177 565 c 2
 287 565 l 1
 456 185 l 1
 516 468 l 1
 482 468 l 2
 443 468 428 479 428 507 c 0
 428 522 437 539 450 551 c 1
 466 563 473 565 503 565 c 2
 629 565 l 2
 648 565 655 565 663 561 c 0
 675 557 684 542 684 525 c 0
 684 511 675 494 662 482 c 0
 648 470 637 468 613 468 c 1
 513 0 l 1
 418 0 l 1
 248 381 l 1
418 706 m 1
 541 800 l 2
 551 808 562 813 570 813 c 0
 584 813 598 799 598 786 c 0
 598 771 591 760 574 749 c 2
 567 744 l 1
 398 620 l 1
 275 744 l 1
 260 758 259 761 259 772 c 0
 259 790 282 813 301 813 c 0
 309 813 316 809 325 800 c 2
 418 706 l 1
EndSplineSet
Ligature: 0 0 'liga' N uni030C
EndChar
StartChar: Ntilde
Encoding: 285 209 179
Width: 579
Flags: W
HStem: 0 97<74 90 188 222> 468 97<153 177 480 631> 646 66<500 514> 708 66<367 381>
VStem: 20 256<39 59> 428 256<507 525>
DStem: 170 468 248 381 90 97 188 97 248 381 287 565 418 0 456 185 516 468 613 468 456 185 513 0
Fore
368 708 m 0xdc
 350 708 342 702 304 663 c 0
 295 653 287 649 277 649 c 0
 264 649 253 659 253 671 c 0
 253 686 264 705 290 728 c 1
 321 759 352 774 381 774 c 0xdc
 403 774 418 767 461 738 c 0
 488 719 501 712 512 712 c 0xec
 525 712 532 716 558 745 c 0
 574 763 591 774 601 774 c 0xdc
 615 774 628 763 628 751 c 0
 628 741 620 725 600 705 c 0
 561 663 532 646 500 646 c 0xec
 479 646 448 660 412 687 c 0
 391 704 381 708 368 708 c 0xdc
248 381 m 1
 188 97 l 1
 222 97 l 2
 241 97 247 97 255 93 c 0
 267 89 276 74 276 59 c 0
 276 43 267 26 254 15 c 0
 241 4 228 0 202 0 c 2
 76 0 l 2
 35 0 20 11 20 39 c 0
 20 54 29 71 43 82 c 0
 56 94 66 97 90 97 c 1
 170 468 l 1
 155 468 l 2
 115 468 101 479 101 507 c 0
 101 522 109 539 123 550 c 0
 136 562 146 565 177 565 c 2
 287 565 l 1
 456 185 l 1
 516 468 l 1
 482 468 l 2
 443 468 428 479 428 507 c 0
 428 522 437 539 450 551 c 1
 466 563 473 565 503 565 c 2
 629 565 l 2
 648 565 655 565 663 561 c 0
 675 557 684 542 684 525 c 0
 684 511 675 494 662 482 c 0
 648 470 637 468 613 468 c 1
 513 0 l 1
 418 0 l 1
 248 381 l 1
EndSplineSet
Ligature: 0 0 'liga' N tildecomb
EndChar
StartChar: Odieresis
Encoding: 286 214 180
Width: 579
Flags: W
HStem: -15 99<288 309> 482 96<390 412> 657 118<329 353 530 554>
VStem: 73 99<213 238> 282 118<704 728> 484 117<704 728> 529 100<330 356>
Fore
412 578 m 0xfa
 536 578 629 482 629 356 c 0
 629 260 591 169 524 99 c 0
 457 29 368 -15 288 -15 c 0
 164 -15 73 84 73 213 c 0
 73 302 113 398 177 466 c 0
 242 535 334 578 412 578 c 0xfa
392 482 m 0
 281 482 172 360 172 236 c 0
 172 148 229 84 307 84 c 0
 420 84 529 205 529 332 c 0
 529 418 470 482 392 482 c 0
353 775 m 0
 380 775 400 755 400 728 c 0
 400 691 365 657 329 657 c 0
 304 657 282 679 282 704 c 0
 282 739 318 775 353 775 c 0
554 775 m 0
 581 775 601 755 601 728 c 0
 601 691 567 657 530 657 c 0
 505 657 484 679 484 704 c 0xfc
 484 739 519 775 554 775 c 0
EndSplineSet
KernsSLIF: 89 -64 0 0 88 -34 0 0 87 -5 0 0 86 -40 0 0 84 -28 0 0 65 -25 0 0
Ligature: 0 0 'liga' O uni0308
EndChar
StartChar: Oacute
Encoding: 287 211 181
Width: 579
Flags: W
HStem: -15 99<288 309> 482 96<390 412>
VStem: 73 99<213 238> 529 100<330 356>
DStem: 535 798 569 743 381 690 415 636
Fore
412 578 m 0
 536 578 629 482 629 356 c 0
 629 260 591 169 524 99 c 0
 457 29 368 -15 288 -15 c 0
 164 -15 73 84 73 213 c 0
 73 302 113 398 177 466 c 0
 242 535 334 578 412 578 c 0
392 482 m 0
 281 482 172 360 172 236 c 0
 172 148 229 84 307 84 c 0
 420 84 529 205 529 332 c 0
 529 418 470 482 392 482 c 0
569 743 m 2
 415 636 l 1
 400 624 391 620 381 620 c 0
 364 620 353 632 353 649 c 0
 353 663 363 676 381 690 c 1
 535 798 l 2
 551 809 558 813 570 813 c 0
 587 813 598 800 598 784 c 0
 598 770 591 759 569 743 c 2
EndSplineSet
KernsSLIF: 89 -64 0 0 87 -5 0 0 86 -40 0 0 84 -28 0 0 65 -25 0 0
Ligature: 0 0 'liga' O acutecomb
EndChar
StartChar: Ograve
Encoding: 288 210 182
Width: 579
Flags: W
HStem: -15 99<288 309> 482 96<390 412>
VStem: 73 99<213 238> 529 100<330 356>
DStem: 329 743 386 798 436 636 492 690
Fore
412 578 m 0
 536 578 629 482 629 356 c 0
 629 260 591 169 524 99 c 0
 457 29 368 -15 288 -15 c 0
 164 -15 73 84 73 213 c 0
 73 302 113 398 177 466 c 0
 242 535 334 578 412 578 c 0
392 482 m 0
 281 482 172 360 172 236 c 0
 172 148 229 84 307 84 c 0
 420 84 529 205 529 332 c 0
 529 418 470 482 392 482 c 0
386 798 m 2
 492 690 l 2
 503 679 508 670 508 662 c 0
 508 640 485 620 463 620 c 0
 453 620 446 624 436 636 c 1
 329 743 l 2
 319 753 314 761 314 770 c 0
 314 792 335 813 358 813 c 0
 368 813 374 810 386 798 c 2
EndSplineSet
KernsSLIF: 89 -64 0 0 86 -40 0 0 84 -28 0 0
Ligature: 0 0 'liga' O gravecomb
EndChar
StartChar: Ocircumflex
Encoding: 289 212 183
Width: 579
Flags: W
HStem: -15 99<288 309> 482 96<390 412>
VStem: 73 99<213 238> 529 100<330 356>
DStem: 446 727 464 813 535 632 584 689 464 813 446 727 290 689 316 632
Fore
412 578 m 0
 536 578 629 482 629 356 c 0
 629 260 591 169 524 99 c 0
 457 29 368 -15 288 -15 c 0
 164 -15 73 84 73 213 c 0
 73 302 113 398 177 466 c 0
 242 535 334 578 412 578 c 0
392 482 m 0
 281 482 172 360 172 236 c 0
 172 148 229 84 307 84 c 0
 420 84 529 205 529 332 c 0
 529 418 470 482 392 482 c 0
446 727 m 1
 316 632 l 1
 303 624 294 620 286 620 c 0
 270 620 259 632 259 646 c 0
 259 663 263 670 290 689 c 2
 464 813 l 1
 584 689 l 2
 601 671 601 671 601 662 c 0
 601 640 581 620 558 620 c 0
 550 620 543 624 535 632 c 2
 446 727 l 1
EndSplineSet
KernsSLIF: 89 -64 0 0 86 -40 0 0 84 -28 0 0
Ligature: 0 0 'liga' O uni0302
EndChar
StartChar: Otilde
Encoding: 290 213 184
Width: 579
Flags: W
HStem: -15 99<288 309> 482 96<390 412> 646 66<508 521> 708 66<375 388>
VStem: 73 99<213 238> 529 100<330 356>
Fore
412 578 m 0xcc
 536 578 629 482 629 356 c 0
 629 260 591 169 524 99 c 0
 457 29 368 -15 288 -15 c 0
 164 -15 73 82 73 213 c 0
 73 302 113 398 177 466 c 0
 242 535 334 578 412 578 c 0xcc
392 482 m 0
 281 482 172 360 172 236 c 0
 172 148 229 84 307 84 c 0
 420 84 529 205 529 332 c 0
 529 418 470 482 392 482 c 0
609 774 m 0xdc
 623 774 636 763 636 751 c 0
 636 741 627 727 608 705 c 1
 567 663 539 646 508 646 c 0xec
 487 646 457 660 420 687 c 0
 397 704 389 708 376 708 c 0
 358 708 349 702 310 660 c 1
 303 654 294 649 285 649 c 0
 271 649 260 659 260 671 c 0
 260 687 273 706 299 730 c 1
 329 760 361 774 388 774 c 0xdc
 411 774 427 766 469 738 c 0
 496 719 508 712 519 712 c 0xec
 534 712 539 717 566 745 c 0
 583 764 598 774 609 774 c 0xdc
EndSplineSet
KernsSLIF: 89 -64 0 0 86 -40 0 0 84 -28 0 0
Ligature: 0 0 'liga' O tildecomb
EndChar
StartChar: Ohungarumlaut
Encoding: 291 336 185
Width: 579
Flags: W
HStem: -15 99<288 309> 482 96<390 412>
VStem: 73 99<213 238> 529 100<330 356>
DStem: 441 794 474 739 329 693 363 636 598 794 629 739 484 693 518 636
Fore
412 578 m 0
 536 578 629 482 629 356 c 0
 629 260 591 169 524 99 c 0
 457 29 368 -15 288 -15 c 0
 164 -15 73 84 73 213 c 0
 73 302 113 398 177 466 c 0
 242 535 334 578 412 578 c 0
392 482 m 0
 281 482 172 360 172 236 c 0
 172 148 229 84 307 84 c 0
 420 84 529 205 529 332 c 0
 529 418 470 482 392 482 c 0
474 739 m 2
 363 636 l 1
 353 629 336 620 329 620 c 0
 312 620 299 634 299 653 c 0
 299 665 303 670 329 693 c 2
 441 794 l 2
 456 808 462 811 474 811 c 0
 490 811 503 799 503 783 c 0
 503 769 496 758 480 745 c 1
 480 744 477 742 474 739 c 2
629 739 m 1
 518 636 l 1
 508 629 492 620 485 620 c 0
 468 620 456 634 456 653 c 0
 456 665 460 670 484 693 c 1
 598 794 l 1
 611 808 618 811 629 811 c 0
 646 811 659 799 659 783 c 0
 659 769 653 758 636 745 c 1
 636 744 634 742 629 739 c 1
EndSplineSet
Ligature: 0 0 'liga' O uni030B
EndChar
StartChar: Racute
Encoding: 292 340 186
Width: 579
Flags: W
HStem: 0 97<76 113 209 236 536 556> 468 97<175 198 198 414>
VStem: 488 105<406 425>
DStem: 191 468 288 468 113 97 255 312 191 468 234 215 113 97 209 97 518 798 551 743 371 690 406 636
Fore
234 215 m 1
 209 97 l 1
 243 97 l 2
 260 97 268 97 276 93 c 1
 290 89 298 74 298 57 c 0
 298 43 290 26 275 15 c 1
 263 4 249 0 222 0 c 2
 78 0 l 2
 38 0 22 11 22 39 c 0
 22 54 31 71 45 82 c 0
 59 94 68 97 98 97 c 2
 113 97 l 1
 191 468 l 1
 177 468 l 2
 136 468 122 479 122 507 c 0
 122 522 131 539 144 551 c 0
 159 563 167 565 198 565 c 2
 414 565 l 2
 525 565 593 512 593 425 c 0
 593 350 546 291 453 246 c 1
 490 208 518 161 543 97 c 1
 556 97 l 2
 598 97 611 87 611 57 c 0
 611 43 604 26 589 15 c 1
 577 4 563 0 536 0 c 2
 460 0 l 1
 430 95 365 202 329 215 c 1
 234 215 l 1
255 312 m 1
 329 312 l 2
 417 312 488 356 488 407 c 0
 488 443 451 468 396 468 c 2
 288 468 l 1
 255 312 l 1
551 743 m 1
 406 636 l 1
 381 620 381 620 371 620 c 0
 356 620 343 632 343 648 c 0
 343 663 350 675 371 690 c 2
 518 798 l 2
 533 809 542 813 551 813 c 0
 569 813 581 800 581 784 c 0
 581 771 574 759 558 748 c 0
 555 745 551 743 551 743 c 1
EndSplineSet
Ligature: 0 0 'liga' R acutecomb
EndChar
StartChar: Rcaron
Encoding: 293 344 187
Width: 579
Flags: W
HStem: 0 97<76 113 209 242 536 555> 468 97<175 198 198 414>
VStem: 488 105<406 425>
DStem: 191 468 288 468 113 97 255 312 191 468 234 215 113 97 209 97 257 744 306 800 380 620 398 706 521 800 549 744 398 706 380 620
Fore
234 215 m 1
 209 97 l 1
 243 97 l 2
 260 97 268 97 276 93 c 1
 290 89 298 74 298 57 c 0
 298 43 290 26 275 15 c 1
 263 4 249 0 222 0 c 2
 78 0 l 2
 38 0 22 11 22 39 c 0
 22 54 31 71 45 82 c 0
 59 94 68 97 98 97 c 2
 113 97 l 1
 191 468 l 1
 177 468 l 2
 136 468 122 479 122 507 c 0
 122 522 131 539 144 551 c 0
 159 563 167 565 198 565 c 2
 414 565 l 2
 525 565 593 512 593 425 c 0
 593 350 546 291 453 246 c 1
 490 208 518 161 543 97 c 1
 556 97 l 2
 598 97 611 87 611 57 c 0
 611 43 604 26 589 15 c 1
 577 4 563 0 536 0 c 2
 460 0 l 1
 430 95 365 202 329 215 c 1
 234 215 l 1
255 312 m 1
 329 312 l 2
 417 312 488 356 488 407 c 0
 488 443 451 468 396 468 c 2
 288 468 l 1
 255 312 l 1
398 706 m 1
 521 800 l 2
 532 808 542 813 551 813 c 0
 565 813 578 799 578 786 c 0
 578 771 572 760 554 749 c 1
 549 744 l 1
 380 620 l 1
 257 744 l 1
 242 758 240 761 240 772 c 0
 240 790 263 813 282 813 c 0
 290 813 296 809 306 800 c 1
 398 706 l 1
EndSplineSet
Ligature: 0 0 'liga' R uni030C
EndChar
StartChar: Sacute
Encoding: 294 346 188
Width: 579
Flags: W
HStem: -15 99<293 311> 1 192<108 150> 482 96<389 412>
VStem: 162 102<373 398> 456 102<169 193>
DStem: 518 798 551 743 371 690 406 636
Fore
611 515 m 1xb8
 591 429 l 1
 587 402 582 394 574 384 c 1
 561 371 544 364 530 364 c 0
 518 364 505 370 499 379 c 1
 492 386 492 386 492 417 c 0
 492 456 451 482 391 482 c 0
 324 482 264 443 264 398 c 0
 264 384 273 368 283 358 c 1
 298 347 308 345 381 329 c 1
 436 319 463 312 488 299 c 1
 532 279 558 240 558 193 c 0x78
 558 74 446 -15 296 -15 c 0xb8
 244 -15 195 -1 153 24 c 1
 133 6 123 1 108 1 c 0
 86 1 70 16 70 37 c 0
 70 43 71 53 74 65 c 1
 87 129 l 1
 97 172 116 193 150 193 c 0x78
 162 193 174 188 181 178 c 0
 186 172 186 172 188 146 c 0
 191 112 246 84 309 84 c 0
 389 84 456 121 456 169 c 0
 456 181 450 194 436 203 c 1
 420 216 401 222 334 234 c 0
 273 244 243 255 216 273 c 0
 183 294 162 332 162 373 c 0
 162 485 275 578 412 578 c 0
 461 578 502 567 532 546 c 1
 546 570 557 578 574 578 c 0
 598 578 613 565 613 543 c 0
 613 536 613 532 611 515 c 1xb8
551 743 m 1
 406 636 l 1
 381 620 381 620 371 620 c 0
 356 620 343 632 343 648 c 0
 343 663 350 675 371 690 c 2
 518 798 l 2
 533 809 542 813 551 813 c 0
 569 813 581 800 581 784 c 0
 581 771 574 759 558 748 c 2
 551 743 l 1
EndSplineSet
Ligature: 0 0 'liga' S acutecomb
EndChar
StartChar: Scaron
Encoding: 295 352 189
Width: 579
Flags: W
HStem: -15 99<293 316> 1 192<108 150> 482 96<389 412>
VStem: 162 102<373 398> 456 102<169 193>
DStem: 314 744 363 800 437 620 456 706 580 800 605 744 456 706 437 620
Fore
611 515 m 1xb8
 591 429 l 1
 587 402 582 394 574 384 c 1
 561 371 544 364 530 364 c 0
 518 364 505 370 499 379 c 1
 492 386 492 386 492 417 c 0
 492 456 451 482 391 482 c 0
 324 482 264 443 264 398 c 0
 264 384 273 368 283 358 c 1
 298 347 308 345 381 329 c 1
 436 319 463 312 488 299 c 1
 532 279 558 240 558 193 c 0x78
 558 74 446 -15 296 -15 c 0xb8
 244 -15 195 -1 153 24 c 1
 133 6 123 1 108 1 c 0
 86 1 70 16 70 37 c 0
 70 43 71 53 74 65 c 1
 87 129 l 1
 97 172 116 193 150 193 c 0x78
 162 193 174 188 181 178 c 0
 186 172 186 172 188 146 c 0
 191 112 246 84 309 84 c 0
 389 84 456 121 456 169 c 0
 456 181 450 194 436 203 c 1
 420 216 401 222 334 234 c 0
 273 244 243 255 216 273 c 0
 183 294 162 332 162 373 c 0
 162 485 275 578 412 578 c 0
 461 578 502 567 532 546 c 1
 546 570 557 578 574 578 c 0
 598 578 613 565 613 543 c 0
 613 536 613 532 611 515 c 1xb8
456 706 m 1
 580 800 l 2
 590 808 601 813 609 813 c 0
 623 813 636 799 636 786 c 0
 636 771 629 760 612 749 c 2
 605 744 l 1
 437 620 l 1
 314 744 l 1
 299 758 298 761 298 772 c 0
 298 790 321 813 340 813 c 0
 348 813 356 809 363 800 c 1
 456 706 l 1
EndSplineSet
Ligature: 0 0 'liga' S uni030C
EndChar
StartChar: Scedilla
Encoding: 296 350 190
Width: 579
Flags: W
HStem: -222 64<257 273> 1 192<108 150> 482 96<389 412>
VStem: 162 102<373 398> 304 70<-133 -112> 456 102<169 193>
Fore
325 -12 m 1
 319 -45 l 1
 357 -54 374 -74 374 -112 c 0
 374 -177 326 -222 257 -222 c 0
 197 -222 148 -198 148 -169 c 0
 148 -144 164 -129 185 -129 c 0
 195 -129 198 -129 215 -140 c 0
 231 -152 254 -158 271 -158 c 0
 291 -158 304 -148 304 -133 c 0
 304 -113 288 -102 260 -102 c 0
 254 -102 248 -104 236 -105 c 1
 257 -12 l 1
 224 -8 182 7 153 24 c 1
 133 6 123 1 108 1 c 0
 86 1 70 16 70 37 c 0
 70 43 71 53 74 65 c 1
 87 129 l 1
 97 172 116 193 150 193 c 0
 162 193 174 188 181 178 c 0
 186 172 186 172 188 146 c 0
 191 112 246 84 309 84 c 0
 389 84 456 121 456 169 c 0
 456 181 450 194 436 203 c 1
 420 216 401 222 334 234 c 0
 273 244 243 255 216 273 c 0
 183 294 162 332 162 373 c 0
 162 485 275 578 412 578 c 0
 461 578 502 567 532 546 c 1
 546 570 557 578 574 578 c 0
 598 578 613 565 613 543 c 0
 613 536 613 532 611 515 c 1
 591 429 l 1
 587 402 582 394 574 384 c 1
 561 371 544 364 530 364 c 0
 518 364 505 370 499 379 c 1
 492 386 492 386 492 417 c 0
 492 456 451 482 391 482 c 0
 324 482 264 443 264 398 c 0
 264 384 273 368 283 358 c 1
 298 347 308 345 381 329 c 1
 436 319 463 312 488 299 c 1
 532 279 558 240 558 193 c 0
 558 82 464 0 325 -12 c 1
EndSplineSet
Ligature: 0 0 'liga' S uni0327
EndChar
StartChar: Tcaron
Encoding: 297 356 191
Width: 579
Flags: W
HStem: 0 97<176 260 358 422> 468 97<161 341 161 543>
DStem: 285 744 334 800 409 620 427 706 341 468 437 468 260 97 358 97 550 800 577 744 427 706 409 620
Fore
437 468 m 1
 358 97 l 1
 422 97 l 2
 442 97 448 97 456 93 c 0
 469 89 477 74 477 59 c 0
 477 43 469 26 456 15 c 0
 442 4 428 0 402 0 c 2
 178 0 l 2
 140 0 123 12 123 39 c 0
 123 54 133 71 146 82 c 0
 161 95 169 97 200 97 c 2
 260 97 l 1
 341 468 l 1
 237 468 l 1
 218 378 l 1
 211 352 209 345 200 334 c 1
 187 322 170 314 156 314 c 0
 136 314 117 330 117 349 c 0
 117 356 119 365 121 378 c 1
 161 565 l 1
 660 565 l 1
 621 378 l 2
 615 350 612 345 604 334 c 1
 591 322 574 314 558 314 c 0
 536 314 519 329 519 349 c 0
 519 356 521 365 524 378 c 1
 543 468 l 1
 437 468 l 1
427 706 m 1
 550 800 l 2
 561 808 572 813 581 813 c 0
 594 813 608 799 608 786 c 0
 608 771 601 760 583 749 c 1
 577 744 l 1
 409 620 l 1
 285 744 l 2
 271 758 268 761 268 772 c 0
 268 790 291 813 312 813 c 0
 319 813 326 809 334 800 c 2
 427 706 l 1
EndSplineSet
Ligature: 0 0 'liga' T uni030C
EndChar
StartChar: Udieresis
Encoding: 298 220 192
Width: 579
Flags: W
HStem: -15 99<290 311> 468 97<195 323 480 630> 657 118<329 353 532 555>
VStem: 107 98<153 172> 283 118<704 728> 484 120<704 728>
DStem: 169 468 265 468 112 198 208 191 515 468 612 468 456 191 555 198
Fore
612 468 m 1
 555 198 l 1
 530 78 414 -15 290 -15 c 0
 183 -15 107 57 107 153 c 0
 107 169 108 182 112 198 c 1
 169 468 l 1
 133 468 119 480 119 507 c 0
 119 522 128 539 141 551 c 0
 156 563 164 565 195 565 c 2
 321 565 l 2
 342 565 346 565 353 561 c 1
 365 557 375 542 375 527 c 0
 375 511 365 492 353 482 c 0
 339 470 329 468 299 468 c 2
 265 468 l 1
 208 191 l 1
 205 183 205 177 205 170 c 0
 205 120 249 84 309 84 c 0
 378 84 443 131 456 191 c 2
 515 468 l 1
 482 468 l 2
 442 468 427 479 427 507 c 0
 427 522 436 539 450 551 c 0
 464 563 472 565 503 565 c 2
 628 565 l 2
 646 565 654 565 662 561 c 0
 675 557 683 542 683 527 c 0
 683 511 675 492 660 482 c 0
 646 472 636 468 612 468 c 1
353 775 m 0
 381 775 401 755 401 728 c 0
 401 691 365 657 329 657 c 0
 306 657 283 679 283 704 c 0
 283 739 319 775 353 775 c 0
555 775 m 0
 582 775 604 755 604 728 c 0
 604 691 567 657 532 657 c 0
 507 657 484 679 484 704 c 0
 484 739 519 775 555 775 c 0
EndSplineSet
KernsSLIF: 114 -45 0 0 46 -148 0 0 112 -2 0 0 110 -11 0 0 109 19 0 0 44 -122 0 0 98 24 0 0 65 -28 0 0
Ligature: 0 0 'liga' U uni0308
EndChar
StartChar: Uacute
Encoding: 299 218 193
Width: 579
Flags: W
HStem: -15 99<290 311> 468 97<195 323 480 630>
VStem: 107 98<153 172>
DStem: 169 468 265 468 112 198 208 191 515 468 612 468 456 191 555 198 536 798 569 743 381 690 415 636
Fore
612 468 m 1
 555 198 l 1
 530 78 414 -15 290 -15 c 0
 183 -15 107 57 107 153 c 0
 107 169 108 182 112 198 c 1
 169 468 l 1
 133 468 119 480 119 507 c 0
 119 522 128 539 141 551 c 0
 156 563 164 565 195 565 c 2
 321 565 l 2
 342 565 346 565 353 561 c 1
 365 557 375 542 375 527 c 0
 375 511 365 492 353 482 c 0
 339 470 329 468 299 468 c 2
 265 468 l 1
 208 191 l 1
 205 183 205 177 205 170 c 0
 205 120 249 84 309 84 c 0
 378 84 443 131 456 191 c 2
 515 468 l 1
 482 468 l 2
 442 468 427 479 427 507 c 0
 427 522 436 539 450 551 c 0
 464 563 472 565 503 565 c 2
 628 565 l 2
 646 565 654 565 662 561 c 0
 675 557 683 542 683 527 c 0
 683 511 675 492 660 482 c 0
 646 472 636 468 612 468 c 1
569 743 m 2
 415 636 l 1
 401 624 391 620 381 620 c 0
 365 620 353 632 353 649 c 0
 353 663 363 676 381 690 c 1
 536 798 l 2
 551 809 560 813 570 813 c 0
 587 813 600 800 600 784 c 0
 600 769 593 760 569 743 c 2
EndSplineSet
KernsSLIF: 114 -45 0 0 46 -148 0 0 112 -2 0 0 110 -11 0 0 109 19 0 0 44 -122 0 0 65 -28 0 0
Ligature: 0 0 'liga' U acutecomb
EndChar
StartChar: Ugrave
Encoding: 300 217 194
Width: 579
Flags: W
HStem: -15 99<290 311> 468 97<195 323 480 630>
VStem: 107 98<153 172>
DStem: 169 468 265 468 112 198 208 191 329 743 387 798 437 636 492 690 515 468 612 468 456 191 555 198
Fore
612 468 m 1
 555 198 l 1
 530 78 414 -15 290 -15 c 0
 183 -15 107 57 107 153 c 0
 107 169 108 182 112 198 c 1
 169 468 l 1
 133 468 119 480 119 507 c 0
 119 522 128 539 141 551 c 0
 156 563 164 565 195 565 c 2
 321 565 l 2
 342 565 346 565 353 561 c 1
 365 557 375 542 375 527 c 0
 375 511 365 492 353 482 c 0
 339 470 329 468 299 468 c 2
 265 468 l 1
 208 191 l 1
 205 183 205 177 205 170 c 0
 205 120 249 84 309 84 c 0
 378 84 443 131 456 191 c 2
 515 468 l 1
 482 468 l 2
 442 468 427 479 427 507 c 0
 427 522 436 539 450 551 c 0
 464 563 472 565 503 565 c 2
 628 565 l 2
 646 565 654 565 662 561 c 0
 675 557 683 542 683 527 c 0
 683 511 675 492 660 482 c 0
 646 472 636 468 612 468 c 1
387 798 m 2
 492 690 l 2
 503 679 508 670 508 662 c 0
 508 640 487 620 464 620 c 0
 456 620 446 624 437 636 c 1
 329 743 l 2
 319 753 315 761 315 770 c 0
 315 792 336 813 358 813 c 0
 369 813 375 810 387 798 c 2
EndSplineSet
KernsSLIF: 65 -28 0 0
Ligature: 0 0 'liga' U gravecomb
EndChar
StartChar: Ucircumflex
Encoding: 301 219 195
Width: 579
Flags: W
HStem: -15 99<290 311> 468 97<195 323 480 630>
VStem: 107 98<153 172>
DStem: 169 468 265 468 112 198 208 191 446 727 466 813 535 632 584 689 466 813 446 727 291 689 316 632 515 468 612 468 456 191 555 198
Fore
612 468 m 1
 555 198 l 1
 530 78 414 -15 290 -15 c 0
 183 -15 107 57 107 153 c 0
 107 169 108 182 112 198 c 1
 169 468 l 1
 133 468 119 480 119 507 c 0
 119 522 128 539 141 551 c 0
 156 563 164 565 195 565 c 2
 321 565 l 2
 342 565 346 565 353 561 c 1
 365 557 375 542 375 527 c 0
 375 511 365 492 353 482 c 0
 339 470 329 468 299 468 c 2
 265 468 l 1
 208 191 l 1
 205 183 205 177 205 170 c 0
 205 120 249 84 309 84 c 0
 378 84 443 131 456 191 c 2
 515 468 l 1
 482 468 l 2
 442 468 427 479 427 507 c 0
 427 522 436 539 450 551 c 0
 464 563 472 565 503 565 c 2
 628 565 l 2
 646 565 654 565 662 561 c 0
 675 557 683 542 683 527 c 0
 683 511 675 492 660 482 c 0
 646 472 636 468 612 468 c 1
446 727 m 1
 316 632 l 2
 303 623 295 620 287 620 c 0
 271 620 260 632 260 648 c 0
 260 663 264 670 291 689 c 2
 466 813 l 1
 584 689 l 2
 587 686 590 684 591 681 c 1
 600 675 601 670 601 662 c 0
 601 640 581 620 560 620 c 0
 551 620 543 624 535 632 c 2
 446 727 l 1
EndSplineSet
KernsSLIF: 65 -28 0 0
Ligature: 0 0 'liga' U uni0302
EndChar
StartChar: Uring
Encoding: 302 366 196
Width: 579
Flags: W
HStem: -15 99<290 311> 468 97<195 323 480 630> 611 52<420 435> 791 53<457 473>
VStem: 107 98<153 172> 326 53<704 717> 515 52<736 751>
DStem: 169 468 265 468 112 198 208 191 515 468 612 468 456 191 555 198
Fore
612 468 m 1
 555 198 l 1
 530 78 414 -15 290 -15 c 0
 183 -15 107 57 107 153 c 0
 107 169 108 182 112 198 c 1
 169 468 l 1
 133 468 119 480 119 507 c 0
 119 522 128 539 141 551 c 0
 156 563 164 565 195 565 c 2
 321 565 l 2
 342 565 346 565 353 561 c 1
 365 557 375 542 375 527 c 0
 375 511 365 492 353 482 c 0
 339 470 329 468 299 468 c 2
 265 468 l 1
 208 191 l 1
 205 183 205 177 205 170 c 0
 205 120 249 84 309 84 c 0
 378 84 443 131 456 191 c 2
 515 468 l 1
 482 468 l 2
 442 468 427 479 427 507 c 0
 427 522 436 539 450 551 c 0
 464 563 472 565 503 565 c 2
 628 565 l 2
 646 565 654 565 662 561 c 0
 675 557 683 542 683 527 c 0
 683 511 675 492 660 482 c 0
 646 472 636 468 612 468 c 1
473 844 m 0
 527 844 567 805 567 751 c 0
 567 715 556 688 530 660 c 1
 499 629 460 611 420 611 c 0
 368 611 326 651 326 704 c 0
 326 774 398 844 473 844 c 0
460 791 m 0
 418 791 379 753 379 715 c 0
 379 686 402 663 433 663 c 0
 474 663 515 701 515 738 c 0
 515 771 494 791 460 791 c 0
EndSplineSet
Ligature: 0 0 'liga' U uni030A
EndChar
StartChar: Uhungarumlaut
Encoding: 303 368 197
Width: 579
Flags: W
HStem: -15 99<290 311> 468 97<195 323 478 630>
VStem: 107 98<153 172>
DStem: 169 468 265 468 112 198 208 191 441 794 474 739 329 693 363 636 515 468 612 468 456 191 555 198 598 794 629 739 484 693 518 636
Fore
612 468 m 1
 555 198 l 1
 530 78 414 -15 290 -15 c 0
 183 -15 107 57 107 153 c 0
 107 169 108 182 112 198 c 1
 169 468 l 1
 133 468 119 480 119 507 c 0
 119 522 128 539 141 551 c 0
 156 563 164 565 195 565 c 2
 321 565 l 2
 342 565 346 565 353 561 c 1
 365 557 375 542 375 527 c 0
 375 511 365 492 353 482 c 0
 339 470 329 468 299 468 c 2
 265 468 l 1
 208 191 l 1
 205 183 205 177 205 170 c 0
 205 120 249 84 309 84 c 0
 378 84 443 131 456 191 c 2
 515 468 l 1
 482 468 l 2
 442 468 427 479 427 507 c 0
 427 522 436 539 450 551 c 0
 464 563 472 565 503 565 c 2
 628 565 l 2
 646 565 654 565 662 561 c 0
 675 557 683 542 683 527 c 0
 683 511 675 492 660 482 c 0
 646 472 636 468 612 468 c 1
474 739 m 2
 363 636 l 1
 353 629 336 620 329 620 c 0
 312 620 299 634 299 653 c 0
 299 665 303 670 329 693 c 2
 441 794 l 2
 456 808 462 811 474 811 c 0
 490 811 503 799 503 783 c 0
 503 769 496 758 480 745 c 1
 480 744 477 742 474 739 c 2
629 739 m 1
 518 636 l 1
 508 629 492 620 485 620 c 0
 468 620 456 634 456 653 c 0
 456 665 460 670 484 693 c 1
 598 794 l 1
 611 808 618 811 629 811 c 0
 646 811 659 799 659 783 c 0
 659 769 653 758 636 745 c 1
 636 744 634 742 629 739 c 1
EndSplineSet
Ligature: 0 0 'liga' U uni030B
EndChar
StartChar: Yacute
Encoding: 304 221 198
Width: 579
Flags: W
HStem: 0 97<176 264 361 423> 468 97<181 205 528 620>
VStem: 129 218<507 527> 453 220<507 527>
DStem: 182 468 298 468 293 237 363 337 293 237 389 237 264 97 361 97 482 468 598 468 363 337 389 237 539 798 572 743 386 690 419 636
Fore
572 743 m 2
 419 636 l 1
 404 624 394 620 386 620 c 0
 368 620 356 632 356 648 c 0
 356 663 365 676 386 690 c 2
 539 798 l 2
 554 809 563 813 574 813 c 0
 590 813 604 800 604 784 c 0
 604 769 595 760 572 743 c 2
389 237 m 1
 361 97 l 1
 423 97 l 2
 443 97 450 97 457 93 c 1
 470 89 479 74 479 59 c 0
 479 43 470 24 456 15 c 1
 443 4 430 0 403 0 c 2
 178 0 l 2
 140 0 123 12 123 39 c 0
 123 54 133 71 146 82 c 0
 161 95 170 97 200 97 c 2
 264 97 l 1
 293 237 l 1
 182 468 l 1
 177 468 l 2
 146 468 129 482 129 507 c 0
 129 522 139 539 152 550 c 0
 167 563 175 565 205 565 c 2
 293 565 l 2
 312 565 318 565 326 561 c 0
 339 557 347 542 347 527 c 0
 347 501 330 480 298 468 c 1
 363 337 l 1
 482 468 l 1
 460 477 453 487 453 507 c 0
 453 522 461 539 474 551 c 0
 488 562 499 565 528 565 c 2
 618 565 l 2
 637 565 643 565 651 561 c 0
 663 557 673 542 673 527 c 0
 673 511 663 494 650 482 c 0
 636 470 624 468 601 468 c 2
 598 468 l 1
 389 237 l 1
EndSplineSet
MinimumDistance: x21,40 
Ligature: 0 0 'liga' Y acutecomb
EndChar
StartChar: Zacute
Encoding: 305 377 199
Width: 579
Flags: W
HStem: 0 97<215 511> 0 231<502 512> 468 97<213 462>
DStem: 462 468 588 470 90 97 215 97 538 798 570 743 391 690 425 636
Fore
215 97 m 1xa0
 434 97 l 1xa0
 450 167 l 1
 453 192 460 202 468 211 c 0
 480 224 496 231 512 231 c 0x60
 534 231 550 215 550 194 c 0
 550 186 550 185 546 167 c 2
 511 0 l 1xa0
 71 0 l 1x60
 90 97 l 1
 462 468 l 1
 290 468 l 1
 275 400 l 1
 270 375 265 365 257 356 c 1
 244 345 228 336 211 336 c 0
 191 336 172 353 172 371 c 0
 172 380 172 381 178 400 c 1
 213 565 l 1
 608 565 l 1
 588 470 l 1
 215 97 l 1xa0
570 743 m 1
 425 636 l 1
 400 620 400 620 391 620 c 0
 375 620 363 632 363 648 c 0
 363 663 370 675 391 690 c 2
 538 798 l 2
 552 809 561 813 570 813 c 0
 588 813 601 800 601 784 c 0
 601 771 593 759 577 748 c 2
 570 743 l 1
EndSplineSet
Ligature: 0 0 'liga' Z acutecomb
EndChar
StartChar: Zcaron
Encoding: 306 381 200
Width: 579
Flags: W
HStem: 0 97<215 511> 0 231<502 512> 468 97<213 462>
DStem: 301 744 350 800 425 620 443 706 462 468 588 470 90 97 215 97 567 800 593 744 443 706 425 620
Fore
215 97 m 1xa0
 434 97 l 1xa0
 450 167 l 1
 453 192 460 202 468 211 c 0
 480 224 496 231 512 231 c 0x60
 534 231 550 215 550 194 c 0
 550 186 550 185 546 167 c 2
 511 0 l 1xa0
 71 0 l 1x60
 90 97 l 1
 462 468 l 1
 290 468 l 1
 275 400 l 1
 270 375 265 365 257 356 c 1
 244 345 228 336 211 336 c 0
 191 336 172 353 172 371 c 0
 172 380 172 381 178 400 c 1
 213 565 l 1
 608 565 l 1
 588 470 l 1
 215 97 l 1xa0
443 706 m 1
 567 800 l 2
 577 808 588 813 598 813 c 0
 611 813 624 799 624 786 c 0
 624 771 617 760 600 749 c 2
 593 744 l 1
 425 620 l 1
 301 744 l 2
 288 758 285 761 285 772 c 0
 285 790 308 813 329 813 c 0
 335 813 342 809 350 800 c 2
 443 706 l 1
EndSplineSet
Ligature: 0 0 'liga' Z uni030C
EndChar
StartChar: Zdotaccent
Encoding: 307 379 201
Width: 579
Flags: W
HStem: 0 97<215 511> 0 231<502 512> 468 97<213 462> 650 117<415 440>
VStem: 369 118<698 721>
DStem: 462 468 588 470 90 97 215 97
Fore
215 97 m 1xb8
 434 97 l 1xb8
 450 167 l 1
 453 192 460 202 468 211 c 0
 480 224 496 231 512 231 c 0x78
 534 231 550 215 550 194 c 0
 550 186 550 185 546 167 c 2
 511 0 l 1xb8
 71 0 l 1x78
 90 97 l 1
 462 468 l 1
 290 468 l 1
 275 400 l 1
 270 375 265 365 257 356 c 1
 244 345 228 336 211 336 c 0
 191 336 172 353 172 371 c 0
 172 380 172 381 178 400 c 1
 213 565 l 1
 608 565 l 1
 588 470 l 1
 215 97 l 1xb8
440 767 m 0
 467 767 487 748 487 721 c 0
 487 684 453 650 415 650 c 0
 391 650 369 673 369 698 c 0
 369 732 404 767 440 767 c 0
EndSplineSet
Ligature: 0 0 'liga' Z uni0307
EndChar
StartChar: Amacron
Encoding: 308 256 202
Width: 579
Flags: W
HStem: 0 97<43 66 170 195 401 446 538 559> 153 97<264 436> 468 97<232 294> 675 76<276 518>
DStem: 294 468 380 436 66 97 264 250 380 436 463 565 417 250 557 97
Fore
436 153 m 1
 205 153 l 1
 170 97 l 1
 193 97 l 2
 213 97 219 97 226 93 c 1
 240 89 248 74 248 57 c 0
 248 43 240 26 226 15 c 0
 211 2 202 0 172 0 c 2
 45 0 l 2
 5 0 -11 11 -11 39 c 0
 -11 54 -2 71 12 82 c 0
 26 94 35 97 66 97 c 1
 294 468 l 1
 234 468 l 2
 194 468 178 479 178 507 c 0
 178 522 187 539 202 551 c 0
 215 563 224 565 254 565 c 2
 463 565 l 1
 557 97 l 1
 577 97 583 97 591 93 c 0
 604 88 613 74 613 57 c 0
 613 43 604 24 591 15 c 1
 577 2 565 0 538 0 c 2
 403 0 l 2
 364 0 349 11 349 39 c 0
 349 54 357 71 371 82 c 0
 386 95 394 97 425 97 c 2
 446 97 l 1
 436 153 l 1
417 250 m 1
 380 436 l 1
 264 250 l 1
 417 250 l 1
287 751 m 2
 523 751 l 2
 555 751 567 743 567 720 c 0
 567 694 542 675 507 675 c 2
 270 675 l 2
 239 675 226 682 226 706 c 0
 226 733 250 751 287 751 c 2
EndSplineSet
Ligature: 0 0 'liga' A uni0304
EndChar
StartChar: Tcommaaccent
Encoding: 309 354 203
Width: 579
Flags: W
HStem: 0 97<176 260 358 422> 468 97<161 341 161 543>
DStem: 263 -81 312 -122 162 -205 211 -244 341 468 437 468 260 97 358 97
Fore
437 468 m 1
 358 97 l 1
 422 97 l 2
 442 97 448 97 456 93 c 0
 469 89 477 74 477 59 c 0
 477 43 469 26 456 15 c 0
 442 4 428 0 402 0 c 2
 178 0 l 2
 140 0 123 12 123 39 c 0
 123 54 133 71 146 82 c 0
 161 95 169 97 200 97 c 2
 260 97 l 1
 341 468 l 1
 237 468 l 1
 218 378 l 1
 211 352 209 345 200 334 c 1
 187 322 170 314 156 314 c 0
 136 314 117 330 117 349 c 0
 117 356 119 365 121 378 c 1
 161 565 l 1
 660 565 l 1
 621 378 l 2
 615 350 612 345 604 334 c 1
 591 322 574 314 558 314 c 0
 536 314 519 329 519 349 c 0
 519 356 521 365 524 378 c 1
 543 468 l 1
 437 468 l 1
312 -122 m 1
 211 -244 l 2
 198 -260 185 -270 170 -270 c 0
 155 -270 143 -257 143 -242 c 0
 143 -231 146 -222 162 -205 c 1
 263 -81 l 1
 275 -65 290 -57 303 -57 c 0
 319 -57 332 -70 332 -84 c 0
 332 -97 329 -105 316 -116 c 1
 312 -122 l 1
EndSplineSet
Ligature: 0 0 'liga' T uni0327
EndChar
StartChar: Ydieresis
Encoding: 310 376 204
Width: 579
Flags: W
HStem: 0 97<176 264 361 423> 468 97<181 205 528 620> 657 118<329 353 532 555>
VStem: 129 218<507 527> 283 118<704 728> 453 220<507 527> 484 120<704 728>
DStem: 182 468 298 468 293 237 363 337 293 237 389 237 264 97 361 97 482 468 598 468 363 337 389 237
Fore
389 237 m 1xf4
 361 97 l 1
 423 97 l 2
 443 97 450 97 457 93 c 1
 470 89 479 74 479 59 c 0
 479 43 470 24 456 15 c 1
 443 4 430 0 403 0 c 2
 178 0 l 2
 140 0 123 12 123 39 c 0
 123 54 133 71 146 82 c 0
 161 95 170 97 200 97 c 2
 264 97 l 1
 293 237 l 1
 182 468 l 1
 177 468 l 2
 146 468 129 482 129 507 c 0
 129 522 139 539 152 550 c 0
 167 563 175 565 205 565 c 2
 293 565 l 2
 312 565 318 565 326 561 c 0
 339 557 347 542 347 527 c 0
 347 501 330 480 298 468 c 1
 363 337 l 1
 482 468 l 1
 460 477 453 487 453 507 c 0
 453 522 461 539 474 551 c 0
 488 562 499 565 528 565 c 2
 618 565 l 2
 637 565 643 565 651 561 c 0
 663 557 673 542 673 527 c 0
 673 511 663 494 650 482 c 0
 636 470 624 468 601 468 c 2
 598 468 l 1
 389 237 l 1xf4
353 775 m 0
 381 775 401 755 401 728 c 0
 401 691 365 657 329 657 c 0
 306 657 283 679 283 704 c 0xe8
 283 739 319 775 353 775 c 0
555 775 m 0
 582 775 604 755 604 728 c 0
 604 691 567 657 532 657 c 0
 507 657 484 679 484 704 c 0xe2
 484 739 519 775 555 775 c 0
EndSplineSet
MinimumDistance: x13,32 
Ligature: 0 0 'liga' Y uni0308
EndChar
StartChar: Emacron
Encoding: 311 274 205
Width: 579
Flags: W
HStem: 0 97<76 113 209 533> 0 211<523 533> 164 239<353 404> 356 209<198 545> 468 97<175 198 198 515> 675 76<291 539>
DStem: 191 468 288 468 113 97 259 332 191 468 239 236 113 97 209 97
Fore
239 236 m 1x2c
 209 97 l 1
 456 97 l 1xac
 468 147 l 1
 473 174 477 182 487 192 c 0
 499 205 515 211 529 211 c 0x44
 551 211 569 197 569 177 c 0
 569 169 567 164 565 147 c 1
 533 0 l 1
 78 0 l 2
 39 0 22 12 22 39 c 0
 22 54 31 71 45 82 c 1
 59 95 68 97 98 97 c 2
 113 97 l 1
 191 468 l 1
 177 468 l 2x8c
 136 468 121 479 121 507 c 0
 121 522 129 539 144 551 c 0
 158 563 167 565 198 565 c 2x14
 632 565 l 1x0c
 601 419 l 1
 595 392 591 384 582 375 c 0
 570 363 554 356 539 356 c 0x14
 518 356 500 370 500 391 c 0
 500 397 501 407 503 419 c 1
 515 468 l 1
 288 468 l 1
 259 332 l 1
 341 332 l 1
 342 339 l 1
 348 365 350 373 361 381 c 1
 373 395 389 403 404 403 c 0
 427 403 443 388 443 365 c 0
 443 358 443 357 439 339 c 2
 415 228 l 1
 409 202 406 195 396 185 c 0
 384 172 368 164 353 164 c 0
 332 164 315 180 315 202 c 0
 315 208 316 215 319 228 c 2
 321 236 l 1
 239 236 l 1x2c
306 751 m 2
 542 751 l 2
 574 751 587 743 587 720 c 0
 587 694 561 675 525 675 c 2
 290 675 l 2
 257 675 246 682 246 706 c 0
 246 733 270 751 306 751 c 2
EndSplineSet
Ligature: 0 0 'liga' E uni0304
EndChar
StartChar: Imacron
Encoding: 312 298 206
Width: 579
Flags: W
HStem: 0 97<144 264 361 459> 468 97<242 342 265 559> 675 76<313 559>
DStem: 342 468 439 468 264 97 361 97
Fore
439 468 m 1
 361 97 l 1
 457 97 l 2
 477 97 484 97 491 93 c 1
 503 89 512 74 512 59 c 0
 512 43 503 26 490 15 c 1
 477 2 466 0 437 0 c 2
 146 0 l 2
 105 0 90 11 90 39 c 0
 90 54 99 71 113 82 c 1
 127 95 136 97 166 97 c 2
 264 97 l 1
 342 468 l 1
 244 468 l 2
 205 468 191 479 191 507 c 0
 191 522 198 539 211 550 c 0
 226 563 234 565 265 565 c 2
 557 565 l 2
 577 565 583 565 591 561 c 0
 604 557 612 542 612 527 c 0
 612 511 604 492 590 482 c 0
 574 470 566 468 536 468 c 2
 439 468 l 1
326 751 m 2
 562 751 l 2
 594 751 605 743 605 720 c 0
 605 694 581 675 546 675 c 2
 309 675 l 2
 277 675 265 682 265 706 c 0
 265 733 290 751 326 751 c 2
EndSplineSet
Ligature: 0 0 'liga' I uni0304
EndChar
StartChar: Iogonek
Encoding: 313 302 207
Width: 579
Flags: W
HStem: -202 76<347 368> 0 97<144 264 361 381> 468 97<242 342 265 559>
VStem: 273 199<-139 -126>
DStem: 342 468 439 468 264 97 361 97
Fore
439 468 m 1
 361 97 l 1
 457 97 l 2
 477 97 484 97 491 93 c 1
 503 89 512 74 512 59 c 0
 512 32 499 16 460 -1 c 0
 398 -26 352 -74 352 -110 c 0
 352 -121 356 -126 368 -126 c 0
 380 -126 387 -123 419 -110 c 0
 429 -105 435 -105 442 -105 c 0
 460 -105 472 -117 472 -136 c 0
 472 -149 463 -164 450 -172 c 0
 425 -189 379 -202 347 -202 c 0
 299 -202 273 -174 273 -131 c 0
 273 -90 293 -55 329 -31 c 0
 345 -20 356 -15 381 0 c 1
 146 0 l 2
 105 0 90 11 90 39 c 0
 90 54 99 71 113 82 c 1
 127 95 136 97 166 97 c 2
 264 97 l 1
 342 468 l 1
 244 468 l 2
 205 468 191 479 191 507 c 0
 191 522 198 539 211 550 c 0
 226 563 234 565 265 565 c 2
 557 565 l 2
 577 565 583 565 591 561 c 0
 604 557 612 542 612 527 c 0
 612 511 604 492 590 482 c 0
 574 470 566 468 536 468 c 2
 439 468 l 1
EndSplineSet
Ligature: 0 0 'liga' I uni0328
EndChar
StartChar: Kcommaaccent
Encoding: 314 310 208
Width: 579
Flags: W
HStem: 0 97<75 112 208 233 507 539> 468 97<173 197 197 343 513 615>
VStem: 437 229<503 527>
DStem: 191 468 287 468 112 97 257 324 191 468 231 202 112 97 208 97 263 -81 312 -122 162 -205 211 -244 460 472 594 468 257 324 391 319
Fore
231 202 m 1
 208 97 l 1
 242 97 l 2
 260 97 267 97 275 93 c 0
 288 89 296 74 296 57 c 0
 296 43 288 26 274 15 c 0
 260 4 248 0 221 0 c 2
 77 0 l 2
 37 0 22 12 22 39 c 0
 22 54 31 71 43 82 c 0
 57 95 66 97 97 97 c 2
 112 97 l 1
 191 468 l 1
 175 468 l 2
 136 468 121 479 121 507 c 0
 121 522 129 539 143 551 c 0
 158 563 166 565 197 565 c 2
 341 565 l 2
 361 565 367 565 375 561 c 0
 388 557 396 542 396 525 c 0
 396 511 388 492 374 482 c 1
 361 470 349 468 321 468 c 2
 287 468 l 1
 257 324 l 1
 460 472 l 1
 445 477 437 487 437 503 c 0
 437 521 446 539 461 550 c 1
 474 563 484 565 513 565 c 2
 611 565 l 2
 629 565 636 565 644 561 c 0
 657 557 666 542 666 527 c 0
 666 511 657 494 643 482 c 0
 629 470 620 468 594 468 c 1
 391 319 l 1
 445 290 487 208 508 97 c 1
 539 97 l 2
 558 97 565 97 574 93 c 0
 585 89 595 74 595 59 c 0
 595 43 587 24 573 15 c 0
 558 4 546 0 518 0 c 2
 412 0 l 1
 396 139 353 232 298 250 c 1
 231 202 l 1
312 -122 m 1
 211 -244 l 2
 198 -260 185 -270 170 -270 c 0
 155 -270 143 -257 143 -242 c 0
 143 -231 146 -222 162 -205 c 1
 263 -81 l 1
 275 -65 290 -57 303 -57 c 0
 319 -57 332 -70 332 -84 c 0
 332 -97 329 -105 316 -116 c 1
 312 -122 l 1
EndSplineSet
Ligature: 0 0 'liga' K uni0327
EndChar
StartChar: Lcommaaccent
Encoding: 315 315 209
Width: 579
Flags: W
HStem: 0 97<95 171 268 554> 0 250<551 558> 468 97<193 249 216 424>
DStem: 250 468 347 468 171 97 268 97 263 -81 312 -122 162 -205 211 -244
Fore
347 468 m 1xa0
 268 97 l 1
 477 97 l 1xa0
 496 186 l 1
 501 211 505 221 515 231 c 0
 527 244 542 250 558 250 c 0x60
 581 250 598 236 598 214 c 0
 598 208 596 202 593 186 c 1
 554 0 l 1
 97 0 l 2
 56 0 40 12 40 39 c 0
 40 54 50 71 64 82 c 1
 78 95 86 97 116 97 c 2
 171 97 l 1
 250 468 l 1
 195 468 l 2
 156 468 140 479 140 507 c 0
 140 522 149 539 162 551 c 0
 177 563 185 565 216 565 c 2
 422 565 l 2
 442 565 450 565 456 561 c 1
 469 557 477 542 477 525 c 0
 477 511 469 492 456 482 c 0
 441 470 431 468 402 468 c 2
 347 468 l 1xa0
312 -122 m 1
 211 -244 l 2
 198 -260 185 -270 170 -270 c 0
 155 -270 143 -257 143 -242 c 0
 143 -231 146 -222 162 -205 c 1
 263 -81 l 1
 275 -65 290 -57 303 -57 c 0
 319 -57 332 -70 332 -84 c 0
 332 -97 329 -105 316 -116 c 1
 312 -122 l 1
EndSplineSet
Ligature: 0 0 'liga' L uni0327
EndChar
StartChar: Ncommaaccent
Encoding: 316 325 210
Width: 579
Flags: W
HStem: 0 97<74 90 188 222> 468 97<153 177 480 631>
VStem: 20 256<39 59> 428 256<507 525>
DStem: 170 468 248 381 90 97 188 97 248 381 287 565 418 0 456 185 263 -81 312 -122 162 -205 211 -244 516 468 613 468 456 185 513 0
Fore
248 381 m 1
 188 97 l 1
 222 97 l 2
 241 97 247 97 255 93 c 0
 267 89 276 74 276 59 c 0
 276 43 267 26 254 15 c 0
 241 4 228 0 202 0 c 2
 76 0 l 2
 35 0 20 11 20 39 c 0
 20 54 29 71 43 82 c 0
 56 94 66 97 90 97 c 1
 170 468 l 1
 155 468 l 2
 115 468 101 479 101 507 c 0
 101 522 109 539 123 550 c 0
 136 562 146 565 177 565 c 2
 287 565 l 1
 456 185 l 1
 516 468 l 1
 482 468 l 2
 443 468 428 479 428 507 c 0
 428 522 437 539 450 551 c 1
 466 563 473 565 503 565 c 2
 629 565 l 2
 648 565 655 565 663 561 c 0
 675 557 684 542 684 525 c 0
 684 511 675 494 662 482 c 0
 648 470 637 468 613 468 c 1
 513 0 l 1
 418 0 l 1
 248 381 l 1
312 -122 m 1
 211 -244 l 2
 198 -260 185 -270 170 -270 c 0
 155 -270 143 -257 143 -242 c 0
 143 -231 146 -222 162 -205 c 1
 263 -81 l 1
 275 -65 290 -57 303 -57 c 0
 319 -57 332 -70 332 -84 c 0
 332 -97 329 -105 316 -116 c 1
 312 -122 l 1
EndSplineSet
Ligature: 0 0 'liga' N uni0327
EndChar
StartChar: Omacron
Encoding: 317 332 211
Width: 579
Flags: W
HStem: -15 99<288 309> 482 96<390 412> 675 76<312 554>
VStem: 73 99<213 238> 529 100<330 356>
Fore
412 578 m 0
 536 578 629 482 629 356 c 0
 629 260 591 169 524 99 c 0
 457 29 368 -15 288 -15 c 0
 164 -15 73 84 73 213 c 0
 73 302 113 398 177 466 c 0
 242 535 334 578 412 578 c 0
392 482 m 0
 281 482 172 360 172 236 c 0
 172 148 229 84 307 84 c 0
 420 84 529 205 529 332 c 0
 529 418 470 482 392 482 c 0
326 751 m 2
 562 751 l 2
 594 751 605 743 605 720 c 0
 605 694 581 675 546 675 c 2
 309 675 l 2
 277 675 265 682 265 706 c 0
 265 733 290 751 326 751 c 2
EndSplineSet
Ligature: 0 0 'liga' O uni0304
EndChar
StartChar: Rcommaaccent
Encoding: 318 342 212
Width: 579
Flags: W
HStem: 0 97<76 113 209 236 536 556> 468 97<175 198 198 414>
VStem: 488 105<406 425>
DStem: 191 468 288 468 113 97 255 312 191 468 234 215 113 97 209 97 263 -81 312 -122 162 -205 211 -244
Fore
234 215 m 1
 209 97 l 1
 243 97 l 2
 260 97 268 97 276 93 c 1
 290 89 298 74 298 57 c 0
 298 43 290 26 275 15 c 1
 263 4 249 0 222 0 c 2
 78 0 l 2
 38 0 22 11 22 39 c 0
 22 54 31 71 45 82 c 0
 59 94 68 97 98 97 c 2
 113 97 l 1
 191 468 l 1
 177 468 l 2
 136 468 122 479 122 507 c 0
 122 522 131 539 144 551 c 0
 159 563 167 565 198 565 c 2
 414 565 l 2
 525 565 593 512 593 425 c 0
 593 350 546 291 453 246 c 1
 490 208 518 161 543 97 c 1
 556 97 l 2
 598 97 611 87 611 57 c 0
 611 43 604 26 589 15 c 1
 577 4 563 0 536 0 c 2
 460 0 l 1
 430 95 365 202 329 215 c 1
 234 215 l 1
255 312 m 1
 329 312 l 2
 417 312 488 356 488 407 c 0
 488 443 451 468 396 468 c 2
 288 468 l 1
 255 312 l 1
312 -122 m 1
 211 -244 l 2
 198 -260 185 -270 170 -270 c 0
 155 -270 143 -257 143 -242 c 0
 143 -231 146 -222 162 -205 c 1
 263 -81 l 1
 275 -65 290 -57 303 -57 c 0
 319 -57 332 -70 332 -84 c 0
 332 -97 329 -105 316 -116 c 1
 312 -122 l 1
EndSplineSet
Ligature: 0 0 'liga' R uni0327
EndChar
StartChar: Gcommaaccent
Encoding: 319 290 213
Width: 579
Flags: W
HStem: -15 99<310 347> 174 97<376 473> 482 96<409 432>
VStem: 77 98<177 195>
DStem: 263 -81 312 -122 162 -205 211 -244
Fore
570 174 m 1
 542 47 l 1
 446 0 394 -15 316 -15 c 0
 249 -15 187 2 144 31 c 0
 100 61 77 112 77 178 c 0
 77 198 78 218 84 239 c 1
 98 307 l 2
 113 381 158 453 221 503 c 0
 283 554 350 578 430 578 c 0
 482 578 527 569 565 549 c 1
 581 570 591 578 611 578 c 0
 632 578 646 565 646 542 c 0
 646 535 646 533 642 515 c 2
 626 439 l 1
 620 412 617 404 608 395 c 0
 596 381 580 375 565 375 c 0
 551 375 539 381 534 389 c 0
 529 396 529 396 527 427 c 0
 525 460 480 482 411 482 c 0
 303 482 216 412 195 307 c 1
 181 244 l 2
 177 226 175 210 175 193 c 0
 175 123 232 84 332 84 c 0
 379 84 418 90 460 107 c 1
 473 174 l 1
 378 174 l 2
 337 174 322 185 322 213 c 0
 322 228 330 246 345 257 c 1
 358 270 367 271 397 271 c 2
 567 271 l 2
 587 271 591 270 601 267 c 0
 613 264 622 249 622 234 c 0
 622 205 601 183 570 174 c 1
312 -122 m 1
 211 -244 l 2
 198 -260 185 -270 170 -270 c 0
 155 -270 143 -257 143 -242 c 0
 143 -231 146 -222 162 -205 c 1
 263 -81 l 1
 275 -65 290 -57 303 -57 c 0
 319 -57 332 -70 332 -84 c 0
 332 -97 329 -105 316 -116 c 1
 312 -122 l 1
EndSplineSet
Ligature: 0 0 'liga' G uni0327
EndChar
StartChar: Umacron
Encoding: 320 362 214
Width: 579
Flags: W
HStem: -15 99<290 311> 468 97<195 323 480 630> 675 76<314 557>
VStem: 107 98<153 172>
DStem: 169 468 265 468 112 198 208 191 515 468 612 468 456 191 555 198
Fore
612 468 m 1
 555 198 l 1
 530 78 414 -15 290 -15 c 0
 183 -15 107 57 107 153 c 0
 107 169 108 182 112 198 c 1
 169 468 l 1
 133 468 119 480 119 507 c 0
 119 522 128 539 141 551 c 0
 156 563 164 565 195 565 c 2
 321 565 l 2
 342 565 346 565 353 561 c 1
 365 557 375 542 375 527 c 0
 375 511 365 492 353 482 c 0
 339 470 329 468 299 468 c 2
 265 468 l 1
 208 191 l 1
 205 183 205 177 205 170 c 0
 205 120 249 84 309 84 c 0
 378 84 443 131 456 191 c 2
 515 468 l 1
 482 468 l 2
 442 468 427 479 427 507 c 0
 427 522 436 539 450 551 c 0
 464 563 472 565 503 565 c 2
 628 565 l 2
 646 565 654 565 662 561 c 0
 675 557 683 542 683 527 c 0
 683 511 675 492 660 482 c 0
 646 472 636 468 612 468 c 1
326 751 m 2
 562 751 l 2
 594 751 605 743 605 720 c 0
 605 694 581 675 546 675 c 2
 309 675 l 2
 277 675 265 682 265 706 c 0
 265 733 290 751 326 751 c 2
EndSplineSet
Ligature: 0 0 'liga' U uni0304
EndChar
StartChar: Uogonek
Encoding: 321 370 215
Width: 579
Flags: W
HStem: -202 76<321 342> -15 99<290 309> 468 97<195 323 480 630>
VStem: 107 98<153 172> 246 200<-139 -129>
DStem: 169 468 265 468 112 198 208 191 515 468 612 468 456 191 555 198
Fore
612 468 m 1
 555 198 l 1
 535 121 508 86 427 15 c 1
 345 -60 326 -84 326 -110 c 0
 326 -121 332 -126 342 -126 c 0
 353 -126 361 -123 394 -110 c 1
 403 -105 409 -105 415 -105 c 0
 434 -105 446 -117 446 -136 c 0
 446 -149 437 -164 423 -172 c 0
 398 -189 353 -202 321 -202 c 0
 274 -202 246 -174 246 -131 c 0
 246 -90 267 -55 303 -31 c 2
 340 -8 l 1
 319 -12 306 -15 290 -15 c 0
 183 -15 107 57 107 153 c 0
 107 169 108 182 112 198 c 1
 169 468 l 1
 133 468 119 480 119 507 c 0
 119 522 128 539 141 551 c 0
 156 563 164 565 195 565 c 2
 321 565 l 2
 342 565 346 565 353 561 c 1
 365 557 375 542 375 527 c 0
 375 511 365 492 353 482 c 0
 339 470 329 468 299 468 c 2
 265 468 l 1
 208 191 l 1
 205 183 205 177 205 170 c 0
 205 120 249 84 309 84 c 0
 378 84 443 131 456 191 c 2
 515 468 l 1
 482 468 l 2
 442 468 427 479 427 507 c 0
 427 522 436 539 450 551 c 0
 464 563 472 565 503 565 c 2
 628 565 l 2
 646 565 654 565 662 561 c 0
 675 557 683 542 683 527 c 0
 683 511 675 492 660 482 c 0
 646 472 636 468 612 468 c 1
EndSplineSet
Ligature: 0 0 'liga' U uni0328
EndChar
StartChar: adieresis
Encoding: 322 228 216
Width: 579
Flags: W
HStem: -16 97<211 236> 0 97<489 513> 191 88<308 337> 339 97<355 384> 518 116<290 314 490 515>
VStem: 64 105<95 115> 242 119<565 587> 439 100<301 326> 443 120<565 587>
Fore
376 0 m 1x7f
 381 22 l 1
 329 -2 270 -16 211 -16 c 0xbf
 126 -16 64 31 64 95 c 0
 64 123 77 154 102 185 c 1
 153 244 236 279 335 279 c 0
 365 279 395 276 433 270 c 1
 437 291 l 1
 439 295 439 295 439 301 c 0
 439 329 412 339 357 339 c 0
 326 339 286 332 241 322 c 0
 225 319 211 316 202 316 c 0
 178 316 164 332 164 356 c 0
 164 376 177 395 195 404 c 0
 228 419 324 436 378 436 c 0
 477 436 539 394 539 326 c 0
 539 314 539 304 536 293 c 1
 494 97 l 1
 511 97 l 2
 530 97 536 97 543 93 c 1
 556 89 565 74 565 59 c 0
 565 43 556 26 542 15 c 1
 530 2 518 0 489 0 c 2
 376 0 l 1x7f
404 131 m 1
 415 178 l 1
 378 186 343 191 310 191 c 0
 263 191 224 177 192 152 c 1
 177 138 169 126 169 115 c 0
 169 97 197 81 234 81 c 0
 287 81 345 98 404 131 c 1
314 634 m 0
 342 634 361 613 361 587 c 0
 361 551 326 518 290 518 c 0
 263 518 242 538 242 565 c 0
 242 598 277 634 314 634 c 0
515 634 m 0
 543 634 563 613 563 587 c 0
 563 551 528 518 490 518 c 0
 464 518 443 538 443 565 c 0x3e80
 443 598 480 634 515 634 c 0
EndSplineSet
KernsSLIF: 121 -45 0 0 119 -15 0 0 118 -30 0 0
Ligature: 0 0 'liga' a uni0308
EndChar
StartChar: aacute
Encoding: 323 225 217
Width: 579
Flags: W
HStem: -16 97<213 236> 0 97<490 514> 191 88<310 338> 339 97<356 384>
VStem: 64 106<95 115> 440 101<301 326>
DStem: 503 659 536 604 349 551 381 496
Fore
378 0 m 1x7c
 381 22 l 1
 330 -2 270 -16 213 -16 c 0xbc
 127 -16 64 31 64 95 c 0
 64 123 78 154 102 185 c 1
 154 244 237 279 336 279 c 0
 367 279 396 276 434 270 c 1
 439 291 l 2
 440 295 440 295 440 301 c 0
 440 329 414 339 358 339 c 0
 329 339 287 332 242 322 c 0
 226 319 211 316 202 316 c 0
 180 316 164 332 164 356 c 0
 164 376 177 395 197 404 c 0
 229 419 325 436 378 436 c 0
 479 436 541 394 541 326 c 0
 541 314 539 304 536 293 c 1
 495 97 l 1
 512 97 l 2
 532 97 536 97 544 93 c 0
 557 89 566 74 566 59 c 0
 566 43 557 26 543 15 c 1
 532 2 518 0 490 0 c 2
 378 0 l 1x7c
406 131 m 1
 415 178 l 1
 379 186 345 191 312 191 c 0
 264 191 224 177 193 152 c 0
 177 138 170 126 170 115 c 0
 170 97 198 81 234 81 c 0
 288 81 345 98 406 131 c 1
536 604 m 1
 381 496 l 2
 365 484 358 480 349 480 c 0
 332 480 319 492 319 508 c 0
 319 524 329 536 349 551 c 2
 503 659 l 2
 519 671 525 675 536 675 c 0
 554 675 566 663 566 646 c 0
 566 632 557 620 536 604 c 1
EndSplineSet
KernsSLIF: 121 -45 0 0 119 -15 0 0 118 -30 0 0
Ligature: 0 0 'liga' a acutecomb
EndChar
